<?xml version="1.0" encoding="UTF-8" standalone="no"?>
<!-- Created with Inkscape (http://www.inkscape.org/) -->

<svg
   xmlns:dc="http://purl.org/dc/elements/1.1/"
   xmlns:cc="http://creativecommons.org/ns#"
   xmlns:rdf="http://www.w3.org/1999/02/22-rdf-syntax-ns#"
   xmlns:svg="http://www.w3.org/2000/svg"
   xmlns="http://www.w3.org/2000/svg"
   xmlns:sodipodi="http://sodipodi.sourceforge.net/DTD/sodipodi-0.dtd"
   xmlns:inkscape="http://www.inkscape.org/namespaces/inkscape"
   width="256"
   height="256"
   viewBox="0 0 256 256"
   version="1.1"
   id="svg1328"
   inkscape:version="0.92.5 (2060ec1f9f, 2020-04-08)"
   sodipodi:docname="github.svg">
  <defs
     id="defs1322" />
  <sodipodi:namedview
     id="base"
     pagecolor="#ffffff"
     bordercolor="#666666"
     borderopacity="1.0"
     inkscape:pageopacity="0.0"
     inkscape:pageshadow="2"
     inkscape:zoom="1.3617187"
     inkscape:cx="104.13352"
     inkscape:cy="140.78521"
     inkscape:document-units="px"
     inkscape:current-layer="layer1"
     showgrid="false"
     units="px"
     inkscape:snap-page="true"
     inkscape:snap-bbox="true"
     inkscape:bbox-nodes="true"
     inkscape:window-width="1280"
     inkscape:window-height="656"
     inkscape:window-x="0"
     inkscape:window-y="27"
     inkscape:window-maximized="1" />
  <metadata
     id="metadata1325">
    <rdf:RDF>
      <cc:Work
         rdf:about="">
        <dc:format>image/svg+xml</dc:format>
        <dc:type
           rdf:resource="http://purl.org/dc/dcmitype/StillImage" />
        <dc:title></dc:title>
      </cc:Work>
    </rdf:RDF>
  </metadata>
  <g
     inkscape:label="Layer 1"
     inkscape:groupmode="layer"
     id="layer1"
     transform="translate(0,-229.26665)">
    <path
       inkscape:connector-curvature="0"
       id="path938"
       style="fill:#ffffff;fill-opacity:1;fill-rule:evenodd;stroke:none;stroke-width:0.78578228"
       d="M 127.98823,232.42602 C 57.314956,232.42602 0,289.73294 0,360.42996 0,416.98264 36.672455,464.9547 87.536154,481.8804 c 6.404088,1.17826 8.73786,-2.77384 8.73786,-6.16841 0,-3.04109 -0.110213,-11.08736 -0.172676,-21.76626 -35.603768,7.73221 -43.115849,-17.16137 -43.115849,-17.16137 -5.822646,-14.78847 -14.2148,-18.72518 -14.2148,-18.72518 -11.621721,-7.93647 0.880073,-7.77924 0.880073,-7.77924 12.847541,0.90435 19.60527,13.19319 19.60527,13.19319 11.417414,19.55825 29.961854,13.90841 37.253952,10.63169 1.16294,-8.26639 4.471066,-13.90846 8.124946,-17.10656 -28.421712,-3.2295 -58.305021,-14.21468 -58.305021,-63.26323 0,-13.97123 4.989721,-25.40436 13.177574,-34.34654 -1.320125,-3.23753 -5.71264,-16.25786 1.25724,-33.87519 0,0 10.741645,-3.44156 35.195175,13.12263 10.207312,-2.84442 21.161142,-4.25884 32.044242,-4.31382 10.87521,0.0472 21.82113,1.47004 32.04418,4.31382 24.43785,-16.56419 35.16378,-13.12263 35.16378,-13.12263 6.98559,17.61733 2.59307,30.63766 1.2808,33.87519 8.20357,8.94218 13.154,20.37531 13.154,34.34654 0,49.17419 -29.93047,59.99447 -58.43863,63.16121 4.58899,3.95234 8.68287,11.76323 8.68287,23.69924 0,17.11434 -0.15735,30.92054 -0.15735,35.11651 0,3.426 2.31019,7.40997 8.80081,6.16063 C 219.35899,464.9075 256,416.96685 256,360.42996 256,289.73294 198.68506,232.42602 127.98817,232.42602" />
  </g>
</svg>
