<?xml version="1.0" encoding="UTF-8" standalone="no"?>
<svg
   xmlns:dc="http://purl.org/dc/elements/1.1/"
   xmlns:cc="http://creativecommons.org/ns#"
   xmlns:rdf="http://www.w3.org/1999/02/22-rdf-syntax-ns#"
   xmlns:svg="http://www.w3.org/2000/svg"
   xmlns="http://www.w3.org/2000/svg"
   id="svg351"
   viewBox="0 0 1e3 760"
   version="1.1"
   height="760"
   width="1e3">
  <metadata
     id="metadata355">
    <rdf:RDF>
      <cc:Work
         rdf:about="">
        <dc:format>image/svg+xml</dc:format>
        <dc:type
           rdf:resource="http://purl.org/dc/dcmitype/StillImage" />
        <dc:title></dc:title>
      </cc:Work>
    </rdf:RDF>
  </metadata>
  <defs
     id="defs29">
    <clipPath
       id="_clip1-0">
      <path
         id="path2"
         d="m4e3 534.3s2.78 66.12 2.78 76.2c0 32.59-15.7 40.79-41.09 53.48-6.62 3.313-64.98 26.15-74.83 31.15-38.2 19.37-33.73 12.78-44.64 34.58-17.38 34.77-73.3 266.9-66.93 286 3.81 11.43 491 50.62 506.4 35.17 20.56-20.56-9.74-255.2-21.29-282.1-11.95-27.89-12.77-37.55-48.48-57.43-7.92-4.41-74.39-34.01-88.62-48.24-26.57-26.57 13.31-105.1-10.76-123.1-5.23-3.924-37.27 20.11-43.92 19.37-12.01-1.334-68.61-39.38-68.61-25.08z" />
    </clipPath>
    <clipPath
       id="_clip2-6">
      <ellipse
         id="ellipse5"
         ry="136"
         rx="95.73"
         cy="331.9"
         cx="4143" />
    </clipPath>
    <clipPath
       id="_clip3-2">
      <path
         id="path8"
         d="m3984 391.2c-17.29 36.96-23.55 118.6-27.08 128.6-27.76 77.9-83.22 168.2-76.02 165.9 30.99-10.08 62.13-17.29 95.03-27.82 7.2-2.305 44.46-28.04 34.55-90.76-5.42-34.22-11.87-65.16-8.46-95.57 4.63-41.29 4.92-63.25 25.74-77.39 7.19-4.881 36.4-20.7 51.01-20.14 17.97 0.687 52.12 19.04 58.82 39.73 8.71 26.86 10.34 71.82 2.09 99.52-7.82 26.25-5.56 33.51-17.19 54.48-5.84 10.54-8.16 19.29-8.57 29.78-0.32 8.159 0.51 17.37 1.75 29.29 2.73 26.33 34.22 34.89 51.72 42.08 24.02 9.87 53.44 27.02 46.27 14.83-16.12-27.37-39.83-54.51-46.27-83.26-11.61-51.81 21.65-134 0-193.8-30.17-83.35-55.8-85.23-95.73-89.26-21.99-2.22-60.71 16.27-87.66 73.91z" />
    </clipPath>
    <clipPath
       id="_clip4-6">
      <ellipse
         id="ellipse11"
         ry="72.84"
         rx="430.6"
         cy="917"
         cx="4110" />
    </clipPath>
    <clipPath
       id="_clip5-1">
      <path
         id="path14"
         d="m3943 631.4-183.1-6.803-108.4 36.36 247.8 15.38z" />
    </clipPath>
    <clipPath
       id="_clip6-5">
      <rect
         id="rect17"
         height="73.75"
         width="107.6"
         y="422.2"
         x="4169" />
    </clipPath>
    <clipPath
       id="_clip7-4">
      <rect
         id="rect20"
         height="26.42"
         width="14.95"
         y="433.9"
         x="4144" />
    </clipPath>
    <clipPath
       id="_clip8">
      <path
         id="path23"
         d="m3981 363.6c-0.13-0.839 1.03-1.192 1.98-1.599 1.74-0.751 5.92-0.543 7.63-0.201 1.99 0.399 5.07 3.684 6.62 4.843 4.51 3.38 40.71 35.37 45.05 38.47 10.54 7.529 22.51 9.43 35.41 7.279 3.6-0.599 8.95-2.921 13.95-9.005 7.6-9.252 7.05-19.09 11.18-27.74 3.34-7.017 10.08-15.56 18.88-13.36 0.79 0.197 2.7 0.889 3.05 1.597 0.41 0.817-1.45 2.322-1.89 2.76-2.04 2.043-3.64 5.016-4.79 7.697-1.14 2.666-2.97 5.619-3.34 8.569-0.68 5.388-0.6 10.56-2.18 15.83-0.97 3.238-3.34 8.419-2.18 11.91 1.25 3.742 3.03 5.769 3.58 10.09 0.62 4.798 0.35 6.999 1.37 6.96 0.49-0.019 18.45 0.03 25.31 0.436 2.24 0.133 1.92 40.7-0.05 43.66-0.98 1.471-40.15 0.376-45.17 0.146-20.24-0.93-39.25-28.95-52.72-42.41-5.39-5.383-56.21-58.11-58.8-61.57-0.52-0.695-2.74-3.364-2.89-4.357z" />
    </clipPath>
    <clipPath
       id="_clip9">
      <rect
         id="rect26"
         height="415.9"
         width="341.6"
         y="98.46"
         x="3810" />
    </clipPath>
  </defs>
  <circle
     r="320"
     cy="380"
     cx="500"
     id="path1166"
     style="opacity:1;fill:#ff2a2a;fill-opacity:1;stroke:none;stroke-width:2.35170603;stroke-linecap:round;stroke-linejoin:round;stroke-miterlimit:4;stroke-dasharray:none;stroke-dashoffset:0;stroke-opacity:1" />
  <path
     d="m 539.37454,251.92298 q 0,13.46639 -1.46374,26.64002 -1.46373,12.88089 -3.80572,28.39651 L 513.61276,455.67524 H 485.21625 L 466.18766,318.37667 q -2.63472,-20.78508 -4.9767,-35.7152 -2.34198,-15.22287 -2.34198,-31.32399 0,-34.83695 10.5389,-50.93806 10.83167,-16.10111 30.44575,-16.10111 19.32133,0 29.27474,14.63738 10.24617,14.63737 10.24617,52.98729 z m 6.44045,277.52463 q 0,19.32133 -13.17364,32.78772 -13.17364,13.46639 -32.20223,13.46639 -19.32133,0 -32.78772,-13.46639 -13.46638,-13.46639 -13.46638,-32.78772 0,-19.02859 13.46638,-32.20222 13.46639,-13.17364 32.78772,-13.17364 19.02859,0 32.20223,13.17364 13.17364,13.17363 13.17364,32.20222 z"
     style="font-style:normal;font-variant:normal;font-weight:normal;font-stretch:normal;font-size:674.49023438px;line-height:1.25;font-family:'Abyssinica SIL';-inkscape-font-specification:'Abyssinica SIL';letter-spacing:0px;word-spacing:0px;fill:#ffffff;fill-opacity:1;stroke:none;stroke-width:14.9886713"
     id="path1172" />
</svg>
