<?xml version="1.0" encoding="UTF-8" standalone="no"?>
<!-- Created with Inkscape (http://www.inkscape.org/) -->

<svg
   width="1024"
   height="1024"
   viewBox="0 0 1024 1024"
   version="1.1"
   id="svg5"
   inkscape:version="1.1.2 (0a00cf5339, 2022-02-04)"
   sodipodi:docname="icons.svg"
   xmlns:inkscape="http://www.inkscape.org/namespaces/inkscape"
   xmlns:sodipodi="http://sodipodi.sourceforge.net/DTD/sodipodi-0.dtd"
   xmlns="http://www.w3.org/2000/svg"
   xmlns:svg="http://www.w3.org/2000/svg">
  <sodipodi:namedview
     id="namedview7"
     pagecolor="#757575"
     bordercolor="#ffffff"
     borderopacity="1"
     inkscape:pageshadow="0"
     inkscape:pageopacity="0"
     inkscape:pagecheckerboard="false"
     inkscape:document-units="px"
     showgrid="true"
     units="px"
     width="1024px"
     inkscape:snap-nodes="false"
     inkscape:snap-bbox="true"
     inkscape:bbox-nodes="true"
     inkscape:zoom="0.16"
     inkscape:cx="-228.125"
     inkscape:cy="-2659.375"
     inkscape:window-width="1280"
     inkscape:window-height="656"
     inkscape:window-x="0"
     inkscape:window-y="27"
     inkscape:window-maximized="1"
     inkscape:current-layer="layer1"
     inkscape:snap-grids="true"
     inkscape:snap-page="false"
     inkscape:snap-intersection-paths="true"
     inkscape:snap-smooth-nodes="true">
    <inkscape:grid
       type="xygrid"
       id="grid824"
       empspacing="4" />
  </sodipodi:namedview>
  <defs
     id="defs2">
    <rect
       x="640"
       y="640"
       width="128"
       height="128"
       id="rect5104" />
    <clipPath
       clipPathUnits="userSpaceOnUse"
       id="clipPath19332">
      <circle
         style="fill:#190d4d;fill-opacity:1;stroke-width:4.36364;stroke-linecap:round;stroke-linejoin:round"
         id="circle19334"
         cx="544"
         cy="384"
         r="144" />
    </clipPath>
    <clipPath
       clipPathUnits="userSpaceOnUse"
       id="clipPath1042">
      <ellipse
         style="fill:#a7b0ca;fill-opacity:1;stroke-width:15.5142;stroke-linecap:round;stroke-linejoin:round"
         id="ellipse1044"
         cx="511.96442"
         cy="511.97131"
         rx="511.96442"
         ry="511.97119" />
    </clipPath>
    <clipPath
       clipPathUnits="userSpaceOnUse"
       id="clipPath211334">
      <circle
         style="fill:#2b424d;fill-opacity:1;stroke:none;stroke-width:16;stroke-linecap:round;stroke-linejoin:round;stroke-miterlimit:4;stroke-dasharray:none;stroke-opacity:1"
         id="circle211336"
         cx="-1512"
         cy="-320"
         r="88" />
    </clipPath>
  </defs>
  <g
     inkscape:label="Layer 1"
     inkscape:groupmode="layer"
     id="layer1">
    <g
       id="g1054"
       transform="translate(-6783.9995,-4.2082859e-4)">
      <ellipse
         style="fill:#a7b0ca;fill-opacity:1;stroke-width:15.5142;stroke-linecap:round;stroke-linejoin:round"
         id="circle21309"
         cx="511.96442"
         cy="511.97131"
         rx="511.96442"
         ry="511.97119" />
      <g
         id="g1038"
         clip-path="url(#clipPath1042)">
        <path
           style="fill:none;stroke:#fcfcfc;stroke-width:37.1826;stroke-linecap:butt;stroke-linejoin:miter;stroke-miterlimit:4;stroke-dasharray:none;stroke-opacity:1"
           d="M -96,512 H 1120"
           id="path21311"
           sodipodi:nodetypes="cc" />
        <path
           style="fill:none;stroke:#ffffff;stroke-width:35.5533;stroke-linecap:butt;stroke-linejoin:miter;stroke-miterlimit:4;stroke-dasharray:none;stroke-opacity:1"
           d="M 512,-96 V 1136"
           id="path21313"
           sodipodi:nodetypes="cc" />
        <ellipse
           style="fill:none;fill-opacity:1;stroke:#ffffff;stroke-width:40.7182;stroke-linecap:round;stroke-linejoin:round;stroke-miterlimit:4;stroke-dasharray:none;stroke-opacity:1"
           id="ellipse21315"
           transform="rotate(90)"
           ry="321.75543"
           rx="605.383"
           cy="-511.96439"
           cx="520.05493" />
        <ellipse
           style="fill:none;fill-opacity:1;stroke:#ffffff;stroke-width:40.7182;stroke-linecap:round;stroke-linejoin:round;stroke-miterlimit:4;stroke-dasharray:none;stroke-opacity:1"
           id="ellipse21317"
           ry="321.7597"
           rx="605.37537"
           cy="520.05493"
           cx="511.96439" />
      </g>
      <path
         id="path21321"
         style="fill:#ff8552;fill-opacity:1;stroke-width:15.5341;stroke-linecap:round;stroke-linejoin:round"
         d="m 501.99355,0.02280812 c -3.90454,0.05813333 -7.00214,0.23093332 -9.02454,0.53119997 -20.30506,3.01439981 -21.43893,10.23146591 -4.87573,31.08245091 11.0528,13.914133 11.50987,15.914879 9.22133,40.550558 -1.98506,21.366665 -1.2528,27.075305 4.17814,32.508743 9.66293,9.66688 17.17226,8.21253 41.26879,-7.988745 27.58079,-18.543678 69.14772,-55.301223 71.25385,-63.014556 0.88907,-3.255093 2.6768,-9.637386 3.97387,-14.179412 1.81387,-6.352106 0.31467,-8.81152 -6.49173,-10.6668794 C 598.42606,5.2813145 547.39034,1.0477681 515.86341,0.16707478 510.60901,0.02040812 505.89755,-0.03505854 501.99355,0.02307479 Z M 405.41116,37.485686 c -11.86879,0 -22.12853,5.585333 -22.12853,12.047572 0,1.500107 5.2416,4.555787 11.648,6.790027 12.824,4.472266 14.3504,10.282666 5.70293,21.720532 -8.24959,10.911999 -7.00586,21.317438 3.0336,25.354553 11.9616,4.80998 11.06027,5.00187 21.10453,-4.438181 11.0752,-10.40896 11.62773,-26.804265 1.2208,-36.226185 -4.27093,-3.86688 -7.76533,-11.126932 -7.76533,-16.136799 0,-7.715413 -1.9632,-9.111519 -12.816,-9.111519 z m -62.16105,25.938665 c -2.232,0.2192 -4.55094,1.370666 -6.83253,3.436746 -3.45014,3.123627 -16.99894,9.890293 -30.10613,15.029173 -13.10773,5.138879 -29.36213,13.282239 -36.12746,18.101705 -8.80694,6.273655 -18.47893,8.951895 -34.0496,9.430185 -35.56852,1.09253 -58.26559,13.6088 -94.01918,51.83946 -33.62986,35.95968 -55.869324,67.24277 -80.444787,113.16997 -16.629864,31.07856 -40.656526,96.50901 -45.045325,122.66837 -2.508266,14.94965 -1.771733,16.64928 12.929598,29.9369 18.935463,17.11419 39.677326,28.05008 64.914121,34.22331 26.560533,6.49722 37.926393,12.90837 54.327453,30.64245 7.83894,8.47621 17.9392,16.53392 22.44693,17.90442 18.89067,5.74347 21.6592,12.11638 20.72533,47.78069 -0.8064,30.79168 0.13334,35.57664 11.54187,58.72064 8.00426,16.23648 22.76106,35.78981 41.50399,54.99552 21.34026,21.86714 29.60053,33.2457 31.01653,42.72794 1.06133,7.10821 3.60907,26.43312 5.65706,42.94037 3.13814,25.29755 6.14347,33.56875 19.14827,52.62853 23.11039,33.87157 28.47253,46.05802 32.37333,73.61317 4.10773,29.01728 7.89813,35.51296 30.14399,51.63466 8.94933,6.48555 21.02666,18.66272 26.83786,27.06917 10.81973,15.65275 22.3664,19.70688 31.14506,10.92475 6.15414,-6.15717 5.90454,-10.87925 -0.56906,-10.87925 -2.872,0 -8.47947,-3.60342 -12.4672,-8.01147 -6.44587,-7.12592 -7.6912,-13.65834 -9.2896,-48.74421 -0.10667,-2.37232 -4.56533,-10.74725 -9.904,-18.6176 -10.66453,-15.72202 -12.08906,-21.73568 -5.15626,-21.73568 7.55946,0 18.74613,-12.34688 18.74613,-20.68879 0,-4.30752 -2.88907,-11.03115 -6.42347,-14.93814 -6.06453,-6.704 -5.8752,-7.10106 3.40533,-7.10106 13.87253,0 20.31947,-9.71446 19.46613,-29.32992 -1.04693,-24.06757 7.37174,-44.47685 35.83946,-86.86704 29.47253,-43.88613 36.82826,-65.9089 29.8176,-89.31754 -5.45013,-18.19914 -16.18933,-25.33429 -44.49173,-29.58032 -20.75999,-3.11445 -26.73973,-7.7225 -37.54506,-28.91263 -17.64426,-34.60032 -63.72905,-62.27877 -103.68798,-62.27877 -11.51306,0 -22.91839,-3.29595 -34.07999,-9.83984 -15.57387,-9.13067 -19.05173,-9.64245 -48.42026,-7.19216 -31.16693,2.60037 -31.81119,2.46778 -43.46773,-8.61845 -16.11573,-15.32667 -23.97653,-31.54027 -21.43839,-44.23766 4.32266,-21.62122 -11.9264,-25.28293 -33.45066,-7.53354 -16.77547,13.83381 -28.577598,12.68394 -32.555198,-3.1712 -4.473599,-17.83083 5.741333,-28.7136 47.214388,-50.35253 21.34027,-11.13451 41.10773,-20.31136 43.93066,-20.39291 3.94134,-0.1136 4.53067,4.62992 2.5552,20.44598 -1.9376,15.51578 -1.2032,21.72538 2.95787,25.1801 7.9744,6.62128 15.7664,-1.01429 24.02399,-23.52613 4.9696,-13.54757 12.70667,-23.47061 28.77173,-36.90149 12.08533,-10.10395 28.96533,-26.16352 37.5072,-35.69509 45.75519,-51.05589 50.14132,-54.5328 68.85758,-54.5328 20.08533,0 27.21333,-6.02725 25.49547,-21.56123 -0.9632,-8.70511 1.92266,-12.76799 16.30399,-22.97231 19.72,-13.992 27.0352,-25.68155 27.1184,-43.31211 0.0747,-15.6841 -13.17867,-32.56949 -25.56373,-32.56949 -11.80906,0 -40.40959,27.70597 -51.93866,50.31456 -12.632,24.77136 -28.63626,25.50469 -29.03679,1.32768 -0.128,-7.80246 -2.57227,-11.04352 -9.59307,-12.7152 -5.18026,-1.23355 -10.056,-4.15909 -10.8368,-6.50176 -2.76533,-8.30059 18.69493,-28.34699 35.0736,-32.75909 36.22239,-9.75792 57.01172,-26.414774 57.01172,-45.686773 0,-8.14688 -1.37813,-9.058773 -10.8592,-7.16176 -5.97333,1.195147 -13.35679,0.628747 -16.41066,-1.25936 -0.8976,-0.555146 -1.8384,-0.919626 -2.7984,-1.100106 -0.72,-0.135467 -1.45493,-0.163734 -2.19893,-0.09067 z m 440.65645,18.071412 c -0.77866,-0.04267 -1.4288,0.0592 -1.93386,0.303467 -19.2064,9.284212 -55.03679,32.66026 -58.48319,38.15322 -3.216,5.12582 -2.7808,8.16544 1.82773,12.7759 6.7232,6.72618 52.31892,21.68128 55.72266,18.27621 1.19093,-1.1912 2.1616,-7.92992 2.1616,-14.976 0,-8.99632 2.40266,-14.09696 8.06826,-17.13067 13.81227,-7.39504 20.3856,-1.75424 18.07147,15.5071 -2.1952,16.37456 0.936,19.61146 18.95093,19.61146 12.46186,0 16.73013,11.08005 7.00693,18.19275 -4.0736,2.97994 -10.90773,4.98992 -15.18933,4.4609 -4.2816,-0.52906 -12.5616,2.20598 -18.39733,6.07696 -8.80853,5.84262 -12.704,6.30555 -22.90933,2.7464 -21.616,-7.53856 -35.82133,-5.36778 -47.97279,7.32107 -6.11254,6.38256 -17.06453,12.71621 -24.33547,14.0808 -16.11093,3.02368 -19.12746,9.38602 -10.61653,22.38058 7.53227,11.50032 4.95627,17.96518 -7.1664,17.96518 -23.13013,0 -34.35252,26.47749 -18.10879,42.72799 15.76053,15.76747 46.77706,7.86464 66.23305,-16.88032 19.39627,-24.6689 46.82079,-21.33557 54.76746,6.66107 5.79946,20.43099 8.36586,23.232 18.3824,20.05147 10.67199,-3.38859 10.86186,-20.75184 0.41066,-37.90283 -9.1696,-15.04549 -10.04746,-26.31045 -2.048,-26.31045 7.776,0 16.12213,14.20288 19.3984,33.01706 1.48853,8.5456 5.4512,18.59638 8.80426,22.3351 8.312,9.26672 22.63467,8.55338 29.6592,-1.47947 7.60426,-10.86139 15.2096,-7.55349 27.53493,11.97931 9.3408,14.80282 11.00586,15.71951 28.50613,15.71951 10.22346,0 20.68799,2.09456 23.25066,4.65824 11.82026,11.82518 -0.43733,34.18539 -18.73866,34.18539 -5.79734,0 -21.6832,-3.59968 -35.30827,-8.00389 -22.10079,-7.14406 -27.20639,-7.50491 -47.33545,-3.30774 -20.65973,4.30763 -23.44373,4.05675 -33.0032,-3.01194 -5.74186,-4.24592 -13.47946,-14.05334 -17.19146,-21.78891 -14.144,-29.4728 -37.89866,-28.97861 -101.31412,2.10155 -67.34719,33.00709 -77.07092,46.13381 -79.54238,107.38132 l -1.62294,40.35334 18.8976,18.39002 c 10.3968,10.11397 24.33973,24.72859 30.97866,32.4784 14.8656,17.35408 24.12533,17.91386 62.90399,3.79328 26.97333,-9.8216 29.02933,-10.03488 41.25386,-4.20293 12.10986,5.77728 12.96053,7.51813 14.56,29.64101 1.3616,18.83349 4.0384,26.41525 13.45333,38.16837 24.97333,31.17685 25.79093,39.13461 9.12266,88.46778 -13.27306,39.28394 -15.33439,74.93034 -5.67253,98.0649 10.02293,23.99866 19.92266,25.91386 51.48373,9.93856 33.61919,-17.01691 70.13065,-59.25296 85.66985,-99.10426 2.31413,-5.93531 10.52266,-13.80363 18.82186,-18.04112 26.28,-13.41835 28.62346,-18.40192 29.4768,-62.6201 0.74986,-38.86885 0.98773,-39.80757 12.41386,-49.38901 6.40694,-5.37195 15.57974,-13.07552 20.38454,-17.11547 7.1531,-6.01435 8.736,-11.30597 8.736,-29.18581 0,-19.59653 -1.2315,-22.88416 -11.9819,-32.06869 -37.6853,-32.19653 -46.30183,-41.27931 -53.2885,-56.14874 -11.48267,-24.43894 -12.3744,-39.26683 -2.4496,-40.68715 12.74346,-1.82368 28.1504,13.45461 42.68693,42.33344 7.41657,14.73306 15.20427,26.78842 17.31307,26.78842 4.9691,0 4.9861,0.16107 -3.7083,-40.78581 C 990.98759,307.11639 946.21054,223.79511 874.55988,151.77085 836.91455,113.92957 795.58603,82.106483 783.90763,81.495763 Z m -150.84157,3.133226 c -0.59093,0.016 -1.2032,0.072 -1.84267,0.166934 -10.21226,1.51952 -17.07519,11.542239 -13.77919,20.134927 3.43573,8.95776 17.11093,7.90544 22.25759,-1.71455 5.50827,-10.296751 2.2272,-18.817444 -6.63573,-18.587311 z m 59.52212,46.741331 c -0.536,-0.016 -1.08533,0.032 -1.64533,0.144 -5.6992,1.14811 -6.53707,4.98171 -5.392,24.55797 0.74613,12.75637 3.14667,25.37728 5.3312,28.04779 5.78293,7.0688 21.18133,5.94053 24.1376,-1.76768 1.39733,-3.64214 0,-11.94491 -3.0864,-18.45072 -3.09707,-6.50587 -7.568,-16.75541 -9.93387,-22.78267 -2.49813,-6.36368 -5.65813,-9.63509 -9.4112,-9.74885 z m -23.00053,27.94917 c -4.00053,-0.048 -10.63199,8.03109 -10.63199,14.59675 0,10.09066 7.30933,9.15365 11.31466,-1.44912 1.816,-4.80688 2.4784,-10.1367 1.47093,-11.84272 -0.368,-0.62011 -0.83786,-1.00454 -1.38773,-1.18358 -0.24,-0.0784 -0.50133,-0.11786 -0.76587,-0.12106 z m 333.89752,484.11106 c -2.9114,-0.12213 -12.00424,9.58971 -16.49384,19.55078 -3.76693,8.35648 -10.09973,18.13669 -14.0752,21.73578 -12.95626,11.73061 -6.20586,34.46032 7.1136,23.95099 2.5488,-2.0112 8.48373,-15.32891 13.1872,-29.58789 4.704,-14.25904 9.36644,-28.12982 10.35894,-30.82448 1.1264,-3.05558 1.0352,-4.516 0.176,-4.77963 -0.08,-0.0267 -0.1707,-0.0427 -0.2667,-0.048 z" />
      <path
         id="path21323"
         style="fill:#000000;fill-opacity:0.193529;stroke-width:15.5142;stroke-linecap:round;stroke-linejoin:round"
         d="m 955.2724,255.87079 c 138.3461,239.48276 61.488,545.55053 -173.5861,691.25895 C 546.61221,1092.8381 238.31199,1025.5071 85.385619,795.06164 682.61911,1023.9425 1023.9289,511.97126 955.2724,255.87079 Z"
         sodipodi:nodetypes="cscc" />
    </g>
    <ellipse
       style="fill:#a7b0ca;fill-opacity:1;stroke-width:15.5142;stroke-linecap:round;stroke-linejoin:round"
       id="ellipse6924"
       cx="511.96442"
       cy="-828.02869"
       rx="511.96442"
       ry="511.97119" />
    <path
       style="fill:none;stroke:#fcfcfc;stroke-width:40;stroke-linecap:butt;stroke-linejoin:miter;stroke-miterlimit:4;stroke-dasharray:none;stroke-opacity:1"
       d="M -96,-828 H 1120"
       id="path6926"
       sodipodi:nodetypes="cc" />
    <path
       style="fill:none;stroke:#ffffff;stroke-width:40;stroke-linecap:butt;stroke-linejoin:miter;stroke-miterlimit:4;stroke-dasharray:none;stroke-opacity:1"
       d="M 512,-1436 V -204"
       id="path6928"
       sodipodi:nodetypes="cc" />
    <ellipse
       style="fill:none;fill-opacity:1;stroke:#ffffff;stroke-width:40;stroke-linecap:round;stroke-linejoin:round;stroke-miterlimit:4;stroke-dasharray:none;stroke-opacity:1"
       id="ellipse6930"
       transform="rotate(90)"
       ry="321.75543"
       rx="605.38342"
       cy="-511.96439"
       cx="-819.94507" />
    <ellipse
       style="fill:none;fill-opacity:1;stroke:#ffffff;stroke-width:40;stroke-linecap:round;stroke-linejoin:round;stroke-miterlimit:4;stroke-dasharray:none;stroke-opacity:1"
       id="ellipse6932"
       ry="321.7597"
       rx="607.96436"
       cy="-819.94507"
       cx="511.96439" />
    <path
       id="path6934"
       style="fill:#ff8552;fill-opacity:1;stroke-width:15.5341;stroke-linecap:round;stroke-linejoin:round"
       d="m 501.99355,-1339.9772 c -3.90454,0.058 -7.00214,0.2309 -9.02454,0.5312 -20.30506,3.0144 -21.43893,10.2315 -4.87573,31.0825 11.0528,13.9141 11.50987,15.9148 9.22133,40.5505 -1.98506,21.3667 -1.2528,27.0753 4.17814,32.5088 9.66293,9.6668 17.17226,8.2125 41.26879,-7.9888 27.58079,-18.5437 69.14772,-55.3012 71.25385,-63.0145 0.88907,-3.2551 2.6768,-9.6374 3.97387,-14.1795 1.81387,-6.3521 0.31467,-8.8115 -6.49173,-10.6668 -13.07147,-3.5649 -64.10719,-7.7984 -95.63412,-8.6791 -5.2544,-0.1467 -9.96586,-0.2022 -13.86986,-0.144 z m -96.58239,37.4629 c -11.86879,0 -22.12853,5.5853 -22.12853,12.0476 0,1.5001 5.2416,4.5557 11.648,6.79 12.824,4.4723 14.3504,10.2827 5.70293,21.7205 -8.24959,10.912 -7.00586,21.3175 3.0336,25.3546 11.9616,4.8099 11.06027,5.0018 21.10453,-4.4382 11.0752,-10.409 11.62773,-26.8043 1.2208,-36.2262 -4.27093,-3.8669 -7.76533,-11.1269 -7.76533,-16.1368 0,-7.7154 -1.9632,-9.1115 -12.816,-9.1115 z m -62.16105,25.9387 c -2.232,0.2192 -4.55094,1.3706 -6.83253,3.4367 -3.45014,3.1236 -16.99894,9.8903 -30.10613,15.0292 -13.10773,5.1388 -29.36213,13.2822 -36.12746,18.1017 -8.80694,6.2736 -18.47893,8.9519 -34.0496,9.4302 -35.56852,1.0925 -58.26559,13.6088 -94.01918,51.8394 -33.62986,35.9597 -55.869324,67.2428 -80.444787,113.17 -16.629864,31.0785 -40.656526,96.509 -45.045325,122.66836 -2.508266,14.94965 -1.771733,16.64928 12.929598,29.9369 18.935463,17.11419 39.677326,28.05008 64.914121,34.22331 26.560533,6.49722 37.926393,12.90837 54.327453,30.64245 7.83894,8.47621 17.9392,16.53392 22.44693,17.90442 18.89067,5.74347 21.6592,12.11638 20.72533,47.78069 -0.8064,30.79168 0.13334,35.57664 11.54187,58.72064 8.00426,16.23648 22.76106,35.78981 41.50399,54.99552 21.34026,21.86714 29.60053,33.2457 31.01653,42.72794 1.06133,7.10821 3.60907,26.43312 5.65706,42.94037 3.13814,25.29755 6.14347,33.56875 19.14827,52.62853 23.11039,33.87157 28.47253,46.05802 32.37333,73.61317 4.10773,29.01728 7.89813,35.51296 30.14399,51.63466 8.94933,6.48555 21.02666,18.66272 26.83786,27.06917 10.81973,15.65275 22.3664,19.70688 31.14506,10.92475 6.15414,-6.15717 5.90454,-10.87925 -0.56906,-10.87925 -2.872,0 -8.47947,-3.60342 -12.4672,-8.01147 -6.44587,-7.12592 -7.6912,-13.65834 -9.2896,-48.74421 -0.10667,-2.37232 -4.56533,-10.74725 -9.904,-18.6176 -10.66453,-15.72202 -12.08906,-21.73568 -5.15626,-21.73568 7.55946,0 18.74613,-12.34688 18.74613,-20.68879 0,-4.30752 -2.88907,-11.03115 -6.42347,-14.93814 -6.06453,-6.704 -5.8752,-7.10106 3.40533,-7.10106 13.87253,0 20.31947,-9.71446 19.46613,-29.32992 -1.04693,-24.06757 7.37174,-44.47685 35.83946,-86.86704 29.47253,-43.88613 36.82826,-65.9089 29.8176,-89.31754 -5.45013,-18.19914 -16.18933,-25.33429 -44.49173,-29.58032 -20.75999,-3.11445 -26.73973,-7.7225 -37.54506,-28.91263 -17.64426,-34.60032 -63.72905,-62.27877 -103.68798,-62.27877 -11.51306,0 -22.91839,-3.29595 -34.07999,-9.83984 -15.57387,-9.13067 -19.05173,-9.64245 -48.42026,-7.19216 -31.16693,2.60037 -31.81119,2.46778 -43.46773,-8.61845 -16.11573,-15.32667 -23.97653,-31.54027 -21.43839,-44.23766 4.32266,-21.62122 -11.9264,-25.28293 -33.45066,-7.53354 -16.77547,13.83381 -28.577598,12.68394 -32.555198,-3.1712 -4.473599,-17.83083 5.741333,-28.7136 47.214388,-50.35253 21.34027,-11.13451 41.10773,-20.31136 43.93066,-20.39291 3.94134,-0.1136 4.53067,4.62992 2.5552,20.44598 -1.9376,15.51578 -1.2032,21.72538 2.95787,25.1801 7.9744,6.62128 15.7664,-1.01429 24.02399,-23.52613 4.9696,-13.54757 12.70667,-23.47061 28.77173,-36.90152 12.08533,-10.1039 28.96533,-26.1635 37.5072,-35.6951 45.75519,-51.0558 50.14132,-54.5328 68.85758,-54.5328 20.08533,0 27.21333,-6.0272 25.49547,-21.5612 -0.9632,-8.7051 1.92266,-12.768 16.30399,-22.9723 19.72,-13.992 27.0352,-25.6815 27.1184,-43.3121 0.0747,-15.6841 -13.17867,-32.5695 -25.56373,-32.5695 -11.80906,0 -40.40959,27.706 -51.93866,50.3146 -12.632,24.7713 -28.63626,25.5046 -29.03679,1.3276 -0.128,-7.8024 -2.57227,-11.0435 -9.59307,-12.7152 -5.18026,-1.2335 -10.056,-4.159 -10.8368,-6.5017 -2.76533,-8.3006 18.69493,-28.347 35.0736,-32.7591 36.22239,-9.7579 57.01172,-26.4148 57.01172,-45.6868 0,-8.1469 -1.37813,-9.0588 -10.8592,-7.1617 -5.97333,1.1951 -13.35679,0.6287 -16.41066,-1.2594 -0.8976,-0.5551 -1.8384,-0.9196 -2.7984,-1.1001 -0.72,-0.1355 -1.45493,-0.1637 -2.19893,-0.091 z m 440.65645,18.0714 c -0.77866,-0.043 -1.4288,0.059 -1.93386,0.3034 -19.2064,9.2842 -55.03679,32.6603 -58.48319,38.1532 -3.216,5.1259 -2.7808,8.1655 1.82773,12.7759 6.7232,6.7262 52.31892,21.6813 55.72266,18.2763 1.19093,-1.1912 2.1616,-7.93 2.1616,-14.976 0,-8.9964 2.40266,-14.097 8.06826,-17.1307 13.81227,-7.3951 20.3856,-1.7543 18.07147,15.5071 -2.1952,16.3745 0.936,19.6114 18.95093,19.6114 12.46186,0 16.73013,11.0801 7.00693,18.1928 -4.0736,2.9799 -10.90773,4.9899 -15.18933,4.4609 -4.2816,-0.5291 -12.5616,2.206 -18.39733,6.077 -8.80853,5.8426 -12.704,6.3055 -22.90933,2.7464 -21.616,-7.5386 -35.82133,-5.3678 -47.97279,7.321 -6.11254,6.3826 -17.06453,12.7162 -24.33547,14.0808 -16.11093,3.0237 -19.12746,9.386 -10.61653,22.3806 7.53227,11.5003 4.95627,17.9652 -7.1664,17.9652 -23.13013,0 -34.35252,26.4775 -18.10879,42.728 15.76053,15.7674 46.77706,7.8646 66.23305,-16.8803 19.39627,-24.6689 46.82079,-21.3356 54.76746,6.661 5.79946,20.431 8.36586,23.232 18.3824,20.0515 10.67199,-3.3886 10.86186,-20.7518 0.41066,-37.9028 -9.1696,-15.0455 -10.04746,-26.3105 -2.048,-26.3105 7.776,0 16.12213,14.2029 19.3984,33.0171 1.48853,8.5456 5.4512,18.5964 8.80426,22.3351 8.312,9.2667 22.63467,8.5534 29.6592,-1.4795 7.60426,-10.8614 15.2096,-7.5535 27.53493,11.9793 9.3408,14.8028 11.00586,15.7195 28.50613,15.7195 10.22346,0 20.68799,2.0946 23.25066,4.6583 11.82026,11.8251 -0.43733,34.18536 -18.73866,34.18536 -5.79734,0 -21.6832,-3.59968 -35.30827,-8.00389 -22.10079,-7.14406 -27.20639,-7.50491 -47.33545,-3.30774 -20.65973,4.30763 -23.44373,4.05675 -33.0032,-3.01194 -5.74186,-4.24589 -13.47946,-14.05329 -17.19146,-21.78889 -14.144,-29.4728 -37.89866,-28.9786 -101.31412,2.1015 -67.34719,33.00712 -77.07092,46.13384 -79.54238,107.38135 l -1.62294,40.35334 18.8976,18.39002 c 10.3968,10.11397 24.33973,24.72859 30.97866,32.4784 14.8656,17.35408 24.12533,17.91386 62.90399,3.79328 26.97333,-9.8216 29.02933,-10.03488 41.25386,-4.20293 12.10986,5.77728 12.96053,7.51813 14.56,29.64101 1.3616,18.83349 4.0384,26.41525 13.45333,38.16837 24.97333,31.17685 25.79093,39.13461 9.12266,88.46778 -13.27306,39.28394 -15.33439,74.93034 -5.67253,98.0649 10.02293,23.99866 19.92266,25.91386 51.48373,9.93856 33.61919,-17.01691 70.13065,-59.25296 85.66985,-99.10426 2.31413,-5.93531 10.52266,-13.80363 18.82186,-18.04112 26.28,-13.41835 28.62346,-18.40192 29.4768,-62.6201 0.74986,-38.86885 0.98773,-39.80757 12.41386,-49.38901 6.40694,-5.37195 15.57974,-13.07552 20.38454,-17.11547 7.1531,-6.01435 8.736,-11.30597 8.736,-29.18581 0,-19.59653 -1.2315,-22.88416 -11.9819,-32.06869 -37.6853,-32.19653 -46.30183,-41.27931 -53.2885,-56.14874 -11.48267,-24.43894 -12.3744,-39.26683 -2.4496,-40.68715 12.74346,-1.82368 28.1504,13.45461 42.68693,42.33344 7.41657,14.73306 15.20427,26.78842 17.31307,26.78842 4.9691,0 4.9861,0.16107 -3.7083,-40.78581 -21.51411,-101.32558 -66.29116,-184.64688 -137.94182,-256.67118 -37.64533,-37.8412 -78.97385,-69.6643 -90.65225,-70.275 z m -150.84157,3.1332 c -0.59093,0.016 -1.2032,0.072 -1.84267,0.1669 -10.21226,1.5195 -17.07519,11.5423 -13.77919,20.1349 3.43573,8.9578 17.11093,7.9055 22.25759,-1.7145 5.50827,-10.2968 2.2272,-18.8174 -6.63573,-18.5873 z m 59.52212,46.7413 c -0.536,-0.016 -1.08533,0.032 -1.64533,0.144 -5.6992,1.1481 -6.53707,4.9817 -5.392,24.558 0.74613,12.7564 3.14667,25.3773 5.3312,28.0478 5.78293,7.0688 21.18133,5.9405 24.1376,-1.7677 1.39733,-3.6421 0,-11.9449 -3.0864,-18.4507 -3.09707,-6.5059 -7.568,-16.7554 -9.93387,-22.7827 -2.49813,-6.3637 -5.65813,-9.6351 -9.4112,-9.7488 z m -23.00053,27.9492 c -4.00053,-0.048 -10.63199,8.0311 -10.63199,14.5967 0,10.0907 7.30933,9.1537 11.31466,-1.4491 1.816,-4.8069 2.4784,-10.1367 1.47093,-11.8427 -0.368,-0.6201 -0.83786,-1.0045 -1.38773,-1.1836 -0.24,-0.078 -0.50133,-0.1178 -0.76587,-0.121 z m 333.89752,484.11105 c -2.9114,-0.12213 -12.00424,9.58971 -16.49384,19.55078 -3.76693,8.35648 -10.09973,18.13669 -14.0752,21.73578 -12.95626,11.73061 -6.20586,34.46032 7.1136,23.95099 2.5488,-2.0112 8.48373,-15.32891 13.1872,-29.58789 4.704,-14.25904 9.36644,-28.12982 10.35894,-30.82448 1.1264,-3.05558 1.0352,-4.516 0.176,-4.77963 -0.08,-0.0267 -0.1707,-0.0427 -0.2667,-0.048 z" />
    <path
       id="path6936"
       style="fill:#000000;fill-opacity:0.193529;stroke-width:15.5142;stroke-linecap:round;stroke-linejoin:round"
       d="m 955.2724,-1084.1292 c 138.3461,239.48275 61.488,545.55052 -173.5861,691.25894 C 546.61221,-247.1619 238.31199,-314.4929 85.385619,-544.93836 682.61911,-316.0575 1023.9289,-828.02874 955.2724,-1084.1292 Z"
       sodipodi:nodetypes="cscc" />
    <g
       id="g211833"
       transform="matrix(5.8181818,0,0,5.8181818,4829.0914,2373.8179)">
      <circle
         style="fill:#2b424d;fill-opacity:1;stroke:none;stroke-width:16;stroke-linecap:round;stroke-linejoin:round;stroke-miterlimit:4;stroke-dasharray:none;stroke-opacity:1"
         id="circle211775"
         cx="-1512"
         cy="-320"
         r="88" />
      <g
         id="g211831"
         clip-path="url(#clipPath211334)">
        <rect
           style="fill:#c4c4c4;fill-opacity:1;stroke:none;stroke-width:16;stroke-linecap:round;stroke-linejoin:round;stroke-miterlimit:4;stroke-dasharray:none;stroke-opacity:1"
           id="rect211777"
           width="16"
           height="8"
           x="-1584"
           y="-376"
           ry="4"
           rx="4" />
        <rect
           style="fill:#d96270;fill-opacity:1;stroke:none;stroke-width:16;stroke-linecap:round;stroke-linejoin:round;stroke-miterlimit:4;stroke-dasharray:none;stroke-opacity:1"
           id="rect211779"
           width="16"
           height="8"
           x="-1552"
           y="-280"
           ry="4"
           rx="4" />
        <rect
           style="fill:#d96270;fill-opacity:1;stroke:none;stroke-width:16;stroke-linecap:round;stroke-linejoin:round;stroke-miterlimit:4;stroke-dasharray:none;stroke-opacity:1"
           id="rect211781"
           width="24"
           height="8"
           x="-1528"
           y="-280"
           ry="4"
           rx="4" />
        <rect
           style="fill:#fce361;fill-opacity:1;stroke:none;stroke-width:16;stroke-linecap:round;stroke-linejoin:round;stroke-miterlimit:4;stroke-dasharray:none;stroke-opacity:1"
           id="rect211783"
           width="44"
           height="8"
           x="-1496"
           y="-280"
           ry="4"
           rx="4" />
        <rect
           style="fill:#6dcad4;fill-opacity:1;stroke:none;stroke-width:16;stroke-linecap:round;stroke-linejoin:round;stroke-miterlimit:4;stroke-dasharray:none;stroke-opacity:1"
           id="rect211785"
           width="84"
           height="8"
           x="-1528"
           y="-296"
           ry="4"
           rx="4" />
        <rect
           style="fill:#fce361;fill-opacity:1;stroke:none;stroke-width:16;stroke-linecap:round;stroke-linejoin:round;stroke-miterlimit:4;stroke-dasharray:none;stroke-opacity:1"
           id="rect211787"
           width="40"
           height="8"
           x="-1544"
           y="-312"
           ry="4"
           rx="4" />
        <rect
           style="fill:#d96270;fill-opacity:1;stroke:none;stroke-width:16;stroke-linecap:round;stroke-linejoin:round;stroke-miterlimit:4;stroke-dasharray:none;stroke-opacity:1"
           id="rect211789"
           width="56"
           height="8"
           x="-1496"
           y="-312"
           ry="4"
           rx="4" />
        <rect
           style="fill:#6dcad4;fill-opacity:1;stroke:none;stroke-width:16;stroke-linecap:round;stroke-linejoin:round;stroke-miterlimit:4;stroke-dasharray:none;stroke-opacity:1"
           id="rect211791"
           width="80"
           height="8"
           x="-1544"
           y="-328"
           ry="4"
           rx="4" />
        <rect
           style="fill:#d96270;fill-opacity:1;stroke:none;stroke-width:16;stroke-linecap:round;stroke-linejoin:round;stroke-miterlimit:4;stroke-dasharray:none;stroke-opacity:1"
           id="rect211793"
           width="24"
           height="8"
           x="-1456"
           y="-328" />
        <rect
           style="fill:#6dcad4;fill-opacity:1;stroke:none;stroke-width:16;stroke-linecap:round;stroke-linejoin:round;stroke-miterlimit:4;stroke-dasharray:none;stroke-opacity:1"
           id="rect211795"
           width="32"
           height="8"
           x="-1552"
           y="-344"
           ry="4"
           rx="4" />
        <rect
           style="fill:#d96270;fill-opacity:1;stroke:none;stroke-width:16;stroke-linecap:round;stroke-linejoin:round;stroke-miterlimit:4;stroke-dasharray:none;stroke-opacity:1"
           id="rect211797"
           width="24"
           height="8"
           x="-1512"
           y="-344"
           ry="4"
           rx="4" />
        <rect
           style="fill:#fce361;fill-opacity:1;stroke:none;stroke-width:16;stroke-linecap:round;stroke-linejoin:round;stroke-miterlimit:4;stroke-dasharray:none;stroke-opacity:1"
           id="rect211799"
           width="40"
           height="8"
           x="-1480"
           y="-344"
           ry="4"
           rx="4" />
        <rect
           style="fill:#d96270;fill-opacity:1;stroke:none;stroke-width:16;stroke-linecap:round;stroke-linejoin:round;stroke-miterlimit:4;stroke-dasharray:none;stroke-opacity:1"
           id="rect211801"
           width="16"
           height="8"
           x="-1552"
           y="-360"
           ry="4"
           rx="4" />
        <rect
           style="fill:#fce361;fill-opacity:1;stroke:none;stroke-width:16;stroke-linecap:round;stroke-linejoin:round;stroke-miterlimit:4;stroke-dasharray:none;stroke-opacity:1"
           id="rect211803"
           width="16"
           height="8"
           x="-1528"
           y="-360"
           ry="4"
           rx="4" />
        <rect
           style="fill:#d96270;fill-opacity:1;stroke:none;stroke-width:16;stroke-linecap:round;stroke-linejoin:round;stroke-miterlimit:4;stroke-dasharray:none;stroke-opacity:1"
           id="rect211805"
           width="32"
           height="8"
           x="-1504"
           y="-360"
           ry="4"
           rx="4" />
        <rect
           style="fill:#6dcad4;fill-opacity:1;stroke:none;stroke-width:16;stroke-linecap:round;stroke-linejoin:round;stroke-miterlimit:4;stroke-dasharray:none;stroke-opacity:1"
           id="rect211807"
           width="16"
           height="8"
           x="-1464"
           y="-360"
           ry="4"
           rx="4" />
        <rect
           style="fill:#6dcad4;fill-opacity:1;stroke:none;stroke-width:16;stroke-linecap:round;stroke-linejoin:round;stroke-miterlimit:4;stroke-dasharray:none;stroke-opacity:1"
           id="rect211809"
           width="24"
           height="8"
           x="-1552"
           y="-392"
           ry="4"
           rx="4" />
        <rect
           style="fill:#fce361;fill-opacity:1;stroke:none;stroke-width:16;stroke-linecap:round;stroke-linejoin:round;stroke-miterlimit:4;stroke-dasharray:none;stroke-opacity:1"
           id="rect211811"
           width="48"
           height="8"
           x="-1520"
           y="-392"
           ry="4"
           rx="4" />
        <rect
           style="fill:#fce361;fill-opacity:1;stroke:none;stroke-width:16;stroke-linecap:round;stroke-linejoin:round;stroke-miterlimit:4;stroke-dasharray:none;stroke-opacity:1"
           id="rect211813"
           width="32"
           height="8"
           x="-1552"
           y="-256"
           ry="4"
           rx="4" />
        <rect
           style="fill:#d96270;fill-opacity:1;stroke:none;stroke-width:16;stroke-linecap:round;stroke-linejoin:round;stroke-miterlimit:4;stroke-dasharray:none;stroke-opacity:1"
           id="rect211815"
           width="32"
           height="8"
           x="-1512"
           y="-256"
           ry="4"
           rx="4" />
        <rect
           style="fill:#c4c4c4;fill-opacity:1;stroke:none;stroke-width:16;stroke-linecap:round;stroke-linejoin:round;stroke-miterlimit:4;stroke-dasharray:none;stroke-opacity:1"
           id="rect211817"
           width="16"
           height="8"
           x="-1584"
           y="-360"
           ry="4"
           rx="4" />
        <rect
           style="fill:#c4c4c4;fill-opacity:1;stroke:none;stroke-width:16;stroke-linecap:round;stroke-linejoin:round;stroke-miterlimit:4;stroke-dasharray:none;stroke-opacity:1"
           id="rect211819"
           width="16"
           height="8"
           x="-1584"
           y="-344"
           ry="4"
           rx="4" />
        <rect
           style="fill:#c4c4c4;fill-opacity:1;stroke:none;stroke-width:16;stroke-linecap:round;stroke-linejoin:round;stroke-miterlimit:4;stroke-dasharray:none;stroke-opacity:1"
           id="rect211821"
           width="16"
           height="8"
           x="-1584"
           y="-328"
           ry="4"
           rx="4" />
        <rect
           style="fill:#c4c4c4;fill-opacity:1;stroke:none;stroke-width:16;stroke-linecap:round;stroke-linejoin:round;stroke-miterlimit:4;stroke-dasharray:none;stroke-opacity:1"
           id="rect211823"
           width="16"
           height="8"
           x="-1584"
           y="-312"
           ry="4"
           rx="4" />
        <rect
           style="fill:#c4c4c4;fill-opacity:1;stroke:none;stroke-width:16;stroke-linecap:round;stroke-linejoin:round;stroke-miterlimit:4;stroke-dasharray:none;stroke-opacity:1"
           id="rect211825"
           width="16"
           height="8"
           x="-1584"
           y="-296"
           ry="4"
           rx="4" />
        <rect
           style="fill:#c4c4c4;fill-opacity:1;stroke:none;stroke-width:16;stroke-linecap:round;stroke-linejoin:round;stroke-miterlimit:4;stroke-dasharray:none;stroke-opacity:1"
           id="rect211827"
           width="16"
           height="8"
           x="-1584"
           y="-280"
           ry="4"
           rx="4" />
        <rect
           style="fill:#c4c4c4;fill-opacity:1;stroke:none;stroke-width:16;stroke-linecap:round;stroke-linejoin:round;stroke-miterlimit:4;stroke-dasharray:none;stroke-opacity:1"
           id="rect211829"
           width="16"
           height="8"
           x="-1584"
           y="-264"
           ry="4"
           rx="4" />
      </g>
    </g>
    <path
       id="ellipse7364"
       style="fill:#85f2cb;fill-opacity:1;stroke-width:15.5142;stroke-linecap:round;stroke-linejoin:round"
       d="m -6251.9292,1153.9782 v 0.4238 c 2.2934,0.1149 4.3361,0.1746 6.7012,0.3106 a 511.96442,511.97119 0 0 0 -6.7012,-0.7344 z m -46.3398,1.6289 a 511.96442,511.97119 0 0 0 -134.6133,24.8379 c -12.3052,15.1879 -24.1864,32.0995 -35.5039,50.8418 9.5468,-4.232 18.2776,-8.588 20.875,-10.9395 2.2816,-2.0661 4.6,-3.2183 6.832,-3.4375 0.744,-0.073 1.4792,-0.044 2.1992,0.092 0.96,0.1805 1.9012,0.5445 2.7988,1.0996 3.0539,1.8881 10.4369,2.4549 16.4102,1.2598 9.4811,-1.8971 10.8594,-0.9848 10.8594,7.1621 0,19.272 -20.7894,35.9277 -57.0117,45.6856 -16.3787,4.4121 -37.8396,24.4591 -35.0743,32.7597 0.7808,2.3427 5.6577,5.2685 10.8379,6.502 7.0208,1.6717 9.4638,4.9124 9.5918,12.7148 0.4006,24.177 16.4051,23.4432 29.0371,-1.3281 11.5291,-22.6086 40.1304,-50.3145 51.9395,-50.3145 12.385,0 25.6372,16.8863 25.5625,32.5704 -0.061,12.9716 -4.088,22.726 -14.0391,32.5488 31.4017,-3.1496 63.3472,-5.0737 95.6387,-5.6211 v -141.6035 c -1.2179,-1.6856 -2.2265,-3.1999 -3.9063,-5.3145 -14.2455,-17.9333 -15.3076,-25.7526 -2.4335,-29.5156 z m 131.705,9.8262 c 1.4529,1.697 1.6505,3.9751 0.625,7.5664 -1.297,4.5421 -3.0855,10.9226 -3.9746,14.1777 -2.1061,7.7133 -43.6731,44.4719 -71.2539,63.0156 -4.2496,2.8573 -7.4411,4.7024 -10.7617,6.6621 v 75.1856 c 66.17,1.1257 130.9275,7.9017 192.2734,19.7539 2.4457,-1.7579 4.7415,-3.5987 6.5567,-5.4941 7.5447,-7.8784 15.8883,-11.688 26.2988,-11.6504 -5.1696,-14.0271 -10.7345,-27.5321 -16.543,-40.6875 -7.0856,-2.8585 -13.197,-5.6746 -15.2695,-7.7481 -4.6085,-4.6104 -5.0422,-7.6495 -1.8262,-12.7754 0.5776,-0.9205 3.1232,-2.9012 5.2891,-4.6758 -2.3109,-4.6517 -4.5636,-9.3957 -6.9609,-13.9062 -15.4632,-29.0939 -32.297,-54.0073 -49.9336,-75.5918 a 511.96442,511.97119 0 0 0 -54.5196,-13.832 z m 54.5254,13.834 a 511.96442,511.97119 0 0 1 68.959,28.4023 511.96442,511.97119 0 0 0 -68.959,-28.4023 z m -266.4785,11.705 c 10.8528,0 12.8145,1.396 12.8145,9.1114 0,5.0099 3.4947,12.2698 7.7656,16.1367 10.4069,9.4219 9.8545,25.8175 -1.2207,36.2265 -10.0443,9.44 -9.1419,9.2474 -21.1035,4.4375 -10.0395,-4.0371 -11.2848,-14.4434 -3.0352,-25.3554 8.6475,-11.4378 7.1209,-17.2484 -5.7031,-21.7207 -6.4064,-2.2343 -11.6465,-5.289 -11.6465,-6.7891 0,-6.4623 10.2601,-12.0469 22.1289,-12.0469 z m 335.4453,16.7032 c 5.5763,9.1735 11.0496,18.561 16.2832,28.4082 1.7532,3.2986 3.3374,6.8227 5.0449,10.1836 7.2019,-4.3038 14.1944,-8.279 19.7872,-10.9825 0.505,-0.2444 1.1549,-0.3457 1.9335,-0.3027 v 0 c 3.0675,0.1604 8.2639,2.5754 14.8184,6.5859 a 511.96442,511.97119 0 0 0 -57.8692,-33.8925 z m -458.6562,1.4062 a 511.96442,511.97119 0 0 0 -228.3145,229.7383 c 1.1776,-0.6802 2.419,-1.3272 3.6035,-2.0039 1.3703,-2.7984 2.8862,-6.4811 4.1797,-8.8985 24.5755,-45.9272 46.8155,-77.2102 80.4453,-113.1699 35.7536,-38.2306 58.451,-50.7473 94.0196,-51.8398 7.3304,-0.2252 13.2786,-0.99 18.5195,-2.336 3.9515,-8.2855 7.9168,-16.5558 12.1328,-24.4882 4.9638,-9.3394 10.1417,-18.268 15.4141,-27.002 z m 350.8633,29.0332 c 8.8629,-0.2301 12.1449,8.2911 6.6367,18.5879 -5.1467,9.62 -18.8221,10.6726 -22.2578,1.7148 -3.296,-8.5926 3.567,-18.6172 13.7793,-20.1367 0.6394,-0.095 1.2508,-0.15 1.8418,-0.166 z m 167.1816,31.1445 c -2.5224,0.2414 -5.5235,1.2763 -8.9766,3.125 -5.6656,3.0337 -8.0683,8.1345 -8.0683,17.1309 0,0.7312 -0.1108,1.2911 -0.1309,2.0098 6.1617,14.748 12.0677,29.7912 17.457,45.3925 0.4216,-0.268 0.7403,-0.3902 1.1856,-0.6855 5.8357,-3.871 14.1149,-6.6053 18.3965,-6.0762 4.2816,0.529 11.1158,-1.481 15.1894,-4.4609 9.7232,-7.1127 5.456,-18.1934 -7.0058,-18.1934 -18.015,0 -21.1464,-3.2368 -18.9512,-19.6113 1.7356,-12.946 -1.5284,-19.3551 -9.0957,-18.6309 z m 43.7969,7.377 c 7.2825,6.4122 14.662,13.4568 22.1015,20.6621 a 511.96442,511.97119 0 0 0 -22.1015,-20.6621 z m -151.4551,8.2187 c 3.7531,0.1137 6.912,3.3863 9.4101,9.75 2.3659,6.0273 6.8366,16.2773 9.9336,22.7832 3.0864,6.5058 4.4853,14.8072 3.0879,18.4493 -2.9562,7.7082 -18.3557,8.8363 -24.1386,1.7675 -2.1846,-2.6705 -4.5859,-15.2904 -5.3321,-28.0468 -1.145,-19.5763 -0.3066,-23.4105 5.3926,-24.5586 0.56,-0.112 1.1105,-0.1586 1.6465,-0.1426 z m -23.002,27.9512 c 0.2646,0 0.5257,0.043 0.7657,0.1211 0.5498,0.1791 1.0206,0.5635 1.3886,1.1836 1.0075,1.706 0.3453,7.0349 -1.4707,11.8418 -4.0053,10.6028 -11.3144,11.5399 -11.3144,1.4492 0,-6.5656 6.6303,-14.6437 10.6308,-14.5957 z m 212.3477,0.3809 c 8.9723,9.3743 17.4917,18.9538 25.5859,28.7246 a 511.96442,511.97119 0 0 0 -25.5859,-28.7246 z m -389.9336,58.8574 c -42.6707,0.7616 -84.7269,3.9836 -125.5195,9.4277 -2.2817,8.1267 -10.0367,11.4864 -24.9981,11.4864 -18.7162,0 -23.1022,3.4774 -68.8574,54.5332 -8.5419,9.5316 -25.4205,25.5894 -37.5059,35.6933 -3.6713,3.0694 -6.7982,5.921 -9.666,8.709 -7.7696,45.3283 -12.5827,92.6133 -14.3633,140.793 2.0105,-0.1607 3.1505,-0.1977 5.4864,-0.3926 29.3685,-2.4503 32.846,-1.9393 48.4199,7.1914 4.3345,2.5413 8.7152,4.4412 13.1152,6 h 213.8887 z m 40,0 v 273.4394 h 102.1758 c -1.2541,-1.2458 -2.6533,-2.7361 -3.8321,-3.8828 l -18.8984,-18.3906 1.6231,-40.3535 c 2.4714,-61.2476 12.1957,-74.3738 79.5429,-107.3809 63.4155,-31.0801 87.1705,-31.5744 101.3145,-2.1016 0.4389,0.9148 1.0873,1.9111 1.6289,2.8711 -3.7935,-20.194 -8.1494,-39.9611 -13.0586,-59.2363 -11.9697,-11.6848 -31.0796,-8.9817 -45.6602,9.5625 -19.456,24.7449 -50.4719,32.6483 -66.2324,16.8809 -16.2437,-16.2505 -5.0207,-42.7286 18.1094,-42.7286 10.1224,0 13.1652,-4.7274 9.6484,-12.9101 -53.3112,-9.2972 -109.2729,-14.7471 -166.3613,-15.7695 z m 399.3906,1.1133 c 3.2833,4.6606 6.6185,9.2951 9.7246,14.0488 a 511.96442,511.97119 0 0 0 -9.7246,-14.0488 z m -107.0176,45.4941 c 6.2842,26.0403 11.575,52.8577 15.879,80.2461 1.3928,-0.2771 2.2727,-0.3902 3.8671,-0.7226 20.1291,-4.1972 25.2352,-3.8355 47.336,3.3085 13.625,4.4043 29.5113,8.004 35.3086,8.004 18.3014,0 30.5585,-22.3605 18.7383,-34.1856 -2.5627,-2.5637 -13.0265,-4.6582 -23.25,-4.6582 -17.5002,0 -19.1651,-0.9179 -28.5059,-15.7207 -4.5312,-7.1809 -8.4184,-12.1281 -11.9082,-15.0254 -2.4304,-1.0151 -4.9567,-1.9588 -7.416,-2.9531 -2.8686,0.2372 -5.5458,2.1933 -8.211,6 -7.0246,10.0329 -21.3481,10.7452 -29.6601,1.4785 -3.3531,-3.7387 -7.3142,-13.7884 -8.8028,-22.334 -0.1555,-0.893 -0.4531,-1.6151 -0.6308,-2.4863 -0.9283,-0.3056 -1.8128,-0.6483 -2.7442,-0.9512 z m 142.7403,13.709 c 1.1157,2.1929 2.1685,4.4244 3.2519,6.6367 0.2736,0.1584 0.5648,0.3082 0.8379,0.4668 a 511.96442,511.97119 0 0 0 -4.0898,-7.1035 z m -790.3028,65.625 c -2.8229,0.082 -22.5913,9.2581 -43.9316,20.3926 -41.473,21.6389 -51.6884,32.5227 -47.2148,50.3535 3.9776,15.8551 15.7811,17.0037 32.5566,3.1699 21.5243,-17.7494 37.7719,-14.088 33.4492,7.5332 -2.4376,12.1946 4.9289,27.6218 19.7754,42.4024 1.2984,-29.1243 3.6949,-57.8989 7.1445,-86.1661 -0.4877,-3.9352 -0.206,-9.3809 0.7754,-17.2402 1.9755,-15.816 1.3867,-20.5589 -2.5547,-20.4453 z m -145.6777,3.2324 c -1.3165,0.9636 -2.7149,1.9053 -4.0078,2.875 a 511.96442,511.97119 0 0 0 -25.6973,141.3906 h 147.4746 c -0.033,-0.036 -0.072,-0.062 -0.1054,-0.098 -16.4011,-17.734 -27.7676,-24.1453 -54.3282,-30.6425 -25.2368,-6.1733 -45.9786,-17.1085 -64.914,-34.2227 -14.7014,-13.2876 -15.438,-14.9878 -12.9297,-29.9375 1.8643,-11.1123 7.6285,-29.7234 14.5078,-49.3652 z m 965.584,2.877 c 1.6927,5.1835 3.451,10.3223 5,15.6074 a 511.96442,511.97119 0 0 0 -3.7422,-14.6992 c -0.4054,-0.3065 -0.85,-0.6024 -1.2578,-0.9082 z m -40.5059,29.4941 c -9.9248,1.4203 -9.0334,16.2486 2.4493,40.6875 6.9867,14.8694 15.6018,23.9519 53.2871,56.1485 6.3648,5.4377 9.2018,9.1464 10.6132,15.0585 h 0.879 a 511.96442,511.97119 0 0 0 -4.752,-43.2597 c -0.5738,0.4277 -1.3801,0.4883 -2.4766,0.4883 -2.1088,0 -9.8978,-12.056 -17.3144,-26.7891 -14.5365,-28.8788 -29.9421,-44.1577 -42.6856,-42.334 z m 56.4649,29.1719 c 1.5252,7.1832 2.5401,12.073 3.5332,16.8926 a 511.96442,511.97119 0 0 0 -3.5332,-16.8926 z m 10.8496,86.2285 a 511.96442,511.97119 0 0 1 0.035,1.4727 c 1e-4,9e-4 0,10e-4 0,0 a 511.96442,511.97119 0 0 0 -0.037,-1.4746 z m 0.3633,14.791 c -1e-4,0.012 0,0.019 0,0.031 a 511.96442,511.97119 0 0 1 0.041,1.6426 511.96442,511.97119 0 0 1 -0.1679,2.3399 c 0,0.07 0,0.1393 -0.01,0.2089 a 511.96442,511.97119 0 0 0 0.1758,-2.5488 511.96442,511.97119 0 0 0 -0.041,-1.6738 z m -0.6758,12.0742 c -0.013,0.1008 -0.036,0.1799 -0.049,0.2793 a 511.96442,511.97119 0 0 1 -0.6678,9.3496 h -2.1465 c -1.282,2.236 -2.8492,4.2555 -5.1562,6.1953 -4.8048,4.04 -13.9779,11.7452 -20.3848,17.1172 -11.4262,9.5814 -11.6622,10.5198 -12.4121,49.3887 -0.8533,44.2182 -3.1985,49.2008 -29.4785,62.6191 -8.2992,4.2375 -16.5062,12.1057 -18.8203,18.041 -8.5696,21.9773 -23.6042,44.5321 -40.9278,63.3301 13.5707,-5.9678 26.806,-12.1646 39.334,-18.7949 12.8159,-6.7827 24.6304,-13.8905 35.9844,-21.1348 -4.0637,-5.1406 -3.6532,-16.7285 4.4277,-24.0449 3.9754,-3.5991 10.3072,-13.3798 14.0742,-21.7363 4.4896,-9.9611 13.5828,-19.6729 16.4942,-19.5508 v 0 c 0.096,0.01 0.1856,0.022 0.2656,0.049 0.8592,0.2636 0.9506,1.7237 -0.1758,4.7793 -0.9925,2.6947 -5.6534,16.5652 -10.3574,30.8242 -2.1608,6.5505 -4.5679,12.6642 -6.8008,17.8125 0.6312,-0.4447 1.3524,-0.8645 1.9785,-1.3105 a 511.96442,511.97119 0 0 0 34.8184,-173.211 z m -34.8184,173.211 a 511.96442,511.97119 0 0 1 -0.2519,0.7519 511.96442,511.97119 0 0 0 0.3984,-0.8476 c -0.046,0.033 -0.1003,0.063 -0.1465,0.096 z m -0.2519,0.7519 a 511.96442,511.97119 0 0 1 -30.7793,65.4942 511.96442,511.97119 0 0 0 30.7793,-65.4942 z m -30.7793,65.4942 c -2.0725,1.1286 -4.0459,2.3091 -6.1485,3.4218 -41.8705,22.1597 -88.7866,40.6834 -139.1406,55.4571 -14.6904,49.4741 -33.0321,95.597 -54.9336,136.8047 -0.6321,1.1894 -1.306,2.2987 -1.9433,3.4785 a 511.96442,511.97119 0 0 0 202.166,-199.1622 z m -955.9317,-229.8282 a 511.96442,511.97119 0 0 0 33.9571,163.4883 c 16.8395,12.0058 35.4788,23.5289 56.0351,34.4082 32.6523,17.2809 69.0497,32.3331 108.1309,45.0449 -18.3295,-75.9541 -28.3252,-158.4205 -29.1895,-242.9414 z m 381.2754,0 c 8.2776,7.9505 15.2742,16.7369 20.0586,26.1191 10.8054,21.1902 16.785,25.7977 37.5449,28.9122 28.3024,4.246 39.0401,11.3809 44.4903,29.58 7.0106,23.4087 -0.3439,45.4323 -29.8164,89.3184 -28.4677,42.3902 -36.8868,62.7996 -35.8399,86.8672 0.5062,11.6355 -1.6219,19.6994 -6.2793,24.4062 26.05,2.3333 52.4506,3.8714 79.1348,4.3477 V 1685.484 Z m 149.293,0 v 289.5488 c 86.9404,-1.5571 171.3993,-13.1988 247.5937,-33.4355 4.2314,-15.7453 7.9834,-31.9349 11.459,-48.3438 -0.01,-18.194 3.6494,-39.1738 10.9922,-61.4433 3.1989,-21.7173 5.7472,-43.8067 7.6231,-66.2012 -3.3003,-7.1086 -8.4533,-14.4925 -16.1739,-24.1309 -9.4149,-11.7531 -12.0934,-19.3344 -13.455,-38.1679 -0.6396,-8.8461 -1.3322,-13.9367 -2.5,-17.8262 h -76.8125 c -11.5202,2.9751 -19.1177,2.9543 -25.5957,0 z m -315.3613,105.5273 c 5.6474,52.4824 14.9539,103.1739 27.6953,150.586 16.3999,4.3557 33.2493,8.2309 50.3574,11.7754 -7.7274,-12.9036 -10.4655,-22.4529 -13.0039,-42.916 -2.048,-16.5073 -4.5949,-35.8332 -5.6563,-42.9414 -1.416,-9.4823 -9.6773,-20.8595 -31.0175,-42.7266 -11.1459,-11.4211 -20.6302,-22.8811 -28.375,-33.7774 z m -150.0723,124.3047 a 511.96442,511.97119 0 0 0 202.1641,199.1582 c -0.6374,-1.1798 -1.3112,-2.289 -1.9434,-3.4785 -21.9015,-41.2077 -40.2431,-87.3306 -54.9336,-136.8047 -50.3543,-14.7736 -97.2701,-33.2974 -139.1406,-55.457 -2.1015,-1.1122 -4.0751,-2.2899 -6.1465,-3.418 z m 191.0996,71.0235 c 12.5875,38.2315 27.4299,73.8718 44.4434,105.8828 10.157,19.1104 20.9997,36.0989 32.1465,51.9805 a 511.96442,511.97119 0 0 0 157.7421,31.7929 v -160.959 c -31.977,-0.5421 -63.6178,-2.4272 -94.7246,-5.5215 -3.9063,4.8691 -9.0929,8.8203 -13.3242,8.8203 -6.9328,0 -5.5083,6.0143 5.1562,21.7363 5.3387,7.8704 9.7957,16.2449 9.9024,18.6172 1.5984,35.0859 2.8451,41.6183 9.291,48.7442 3.9877,4.408 9.5948,8.0117 12.4668,8.0117 6.4736,0 6.7225,4.7217 0.5683,10.8789 -8.7786,8.7821 -20.3248,4.7289 -31.1445,-10.9238 -5.8112,-8.4065 -17.8886,-20.5848 -26.8379,-27.0703 -22.2458,-16.1217 -26.0368,-22.6175 -30.1445,-51.6348 -2.107,-14.8839 -4.9227,-25.4535 -10.4492,-37.209 -22.1194,-3.7554 -43.8819,-8.0903 -65.0938,-13.1484 z m 508.5957,0 c -73.4009,17.503 -152.8079,27.3115 -234.2617,28.6972 v 160.9531 a 511.96442,511.97119 0 0 0 157.668,-31.7871 c 11.1473,-15.8822 21.9928,-32.8709 32.1504,-51.9824 17.0132,-32.0105 31.856,-67.65 44.4433,-105.8809 z" />
    <g
       id="g1735"
       transform="translate(-2815.9995,-2.9875828e-4)">
      <path
         id="rect1243"
         style="fill:#85f2cb;fill-opacity:1;stroke:none;stroke-width:93.0909;stroke-linecap:round;stroke-linejoin:round;stroke-miterlimit:4;stroke-dasharray:none;stroke-opacity:1"
         d="m -1361.4551,1245.0918 c -12.8931,0 -23.2715,10.3784 -23.2715,23.2715 0,12.8931 10.3784,23.2734 23.2715,23.2734 h 93.0918 c 12.8931,0 23.2715,-10.3803 23.2715,-23.2734 0,-12.8931 -10.3784,-23.2715 -23.2715,-23.2715 z m 186.1817,0 c -12.8931,0 -23.2715,10.3784 -23.2715,23.2715 0,12.8931 10.3784,23.2734 23.2715,23.2734 h 232.72848 c 12.89309,0 23.27344,-10.3803 23.27344,-23.2734 0,-12.8931 -10.38035,-23.2715 -23.27344,-23.2715 z m -372.3633,93.0898 c -12.8931,0 -23.2715,10.3804 -23.2715,23.2735 0,12.8931 10.3784,23.2715 23.2715,23.2715 h 46.5449 c 12.8931,0 23.2734,-10.3784 23.2734,-23.2715 0,-12.8931 -10.3803,-23.2735 -23.2734,-23.2735 z m 0,93.0918 c -12.8931,0 -23.2715,10.3784 -23.2715,23.2715 0,12.8931 10.3784,23.2735 23.2715,23.2735 h 46.5449 c 12.8931,0 23.2734,-10.3804 23.2734,-23.2735 0,-12.8931 -10.3803,-23.2715 -23.2734,-23.2715 z m 186.1816,0 c -12.8931,0 -23.2715,10.3784 -23.2715,23.2715 0,12.8931 10.3784,23.2735 23.2715,23.2735 h 46.5469 c 12.8931,0 23.2715,-10.3804 23.2715,-23.2735 0,-12.8931 -10.3784,-23.2715 -23.2715,-23.2715 z m 139.6367,0 c -12.8931,0 -23.2734,10.3784 -23.2734,23.2715 0,12.8931 10.3803,23.2735 23.2734,23.2735 h 46.545 c 12.8931,0 23.2734,-10.3804 23.2734,-23.2735 0,-12.8931 -10.3803,-23.2715 -23.2734,-23.2715 z m 139.6368,0 c -12.8931,0 -23.2735,10.3784 -23.2735,23.2715 0,12.8931 10.3804,23.2735 23.2735,23.2735 h 139.63668 c 12.89309,0 23.27148,-10.3804 23.27148,-23.2735 0,-12.8931 -10.37839,-23.2715 -23.27148,-23.2715 z m 232.72652,0 c -12.89309,0 -23.27148,10.3784 -23.27148,23.2715 0,12.8931 10.37839,23.2735 23.27148,23.2735 h 46.54688 c 12.89309,0 23.27148,-10.3804 23.27148,-23.2735 0,-12.8931 -10.37839,-23.2715 -23.27148,-23.2715 z m -698.18162,93.0899 c -12.8931,0 -23.2715,10.3803 -23.2715,23.2734 0,12.8931 10.3784,23.2715 23.2715,23.2715 h 46.5449 c 12.8931,0 23.2734,-10.3784 23.2734,-23.2715 0,-12.8931 -10.3803,-23.2734 -23.2734,-23.2734 z m 186.1816,0 c -12.8931,0 -23.2715,10.3803 -23.2715,23.2734 0,12.8931 10.3784,23.2715 23.2715,23.2715 h 139.6367 c 12.8931,0 23.2735,-10.3784 23.2735,-23.2715 0,-12.8931 -10.3804,-23.2734 -23.2735,-23.2734 z m 232.7285,0 c -12.8931,0 -23.2734,10.3803 -23.2734,23.2734 0,12.8931 10.3803,23.2715 23.2734,23.2715 h 93.0899 c 12.8931,0 23.2734,-10.3784 23.2734,-23.2715 0,-12.8931 -10.3803,-23.2734 -23.2734,-23.2734 z m 186.18168,0 c -12.89309,0 -23.27344,10.3803 -23.27344,23.2734 0,12.8931 10.38035,23.2715 23.27344,23.2715 h 186.18164 c 12.89309,0 23.27148,-10.3784 23.27148,-23.2715 0,-12.8931 -10.37839,-23.2734 -23.27148,-23.2734 z m -605.09178,93.0918 c -12.8931,0 -23.2715,10.3784 -23.2715,23.2715 0,12.8931 10.3784,23.2734 23.2715,23.2734 h 46.5449 c 12.8931,0 23.2734,-10.3803 23.2734,-23.2734 0,-12.8931 -10.3803,-23.2715 -23.2734,-23.2715 z m 232.7285,0 c -12.8931,0 -23.2734,10.3784 -23.2734,23.2715 0,12.8931 10.3803,23.2734 23.2734,23.2734 H -896 c 12.89309,0 23.27344,-10.3803 23.27344,-23.2734 0,-12.8931 -10.38035,-23.2715 -23.27344,-23.2715 z m 488.72656,0 V 1664 h 139.63672 v -46.5449 z m -721.45506,93.0898 c -12.8931,0 -23.2715,10.3804 -23.2715,23.2735 0,12.8931 10.3784,23.2734 23.2715,23.2734 h 46.5449 c 12.8931,0 23.2734,-10.3803 23.2734,-23.2734 0,-12.8931 -10.3803,-23.2735 -23.2734,-23.2735 z m 232.7285,0 c -12.8931,0 -23.2734,10.3804 -23.2734,23.2735 0,12.8931 10.3803,23.2734 23.2734,23.2734 h 186.1816 c 12.8931,0 23.2715,-10.3803 23.2715,-23.2734 0,-12.8931 -10.3784,-23.2735 -23.2715,-23.2735 z m 279.2715,0 c -12.8931,0 -23.2715,10.3804 -23.2715,23.2735 0,12.8931 10.3784,23.2734 23.2715,23.2734 h 279.27342 c 12.89309,0 23.27148,-10.3803 23.27148,-23.2734 0,-12.8931 -10.37839,-23.2735 -23.27148,-23.2735 z m -512,93.0918 c -12.8931,0 -23.2715,10.3784 -23.2715,23.2715 0,12.8931 10.3784,23.2734 23.2715,23.2734 h 46.5449 c 12.8931,0 23.2734,-10.3803 23.2734,-23.2734 0,-12.8931 -10.3803,-23.2715 -23.2734,-23.2715 z m 325.8183,0 c -12.8931,0 -23.2734,10.3784 -23.2734,23.2715 0,12.8931 10.3803,23.2734 23.2734,23.2734 h 442.18168 c 12.89309,0 23.27344,-10.3803 23.27344,-23.2734 0,-12.8931 -10.38035,-23.2715 -23.27344,-23.2715 z m -325.8183,93.0899 c -12.8931,0 -23.2715,10.3803 -23.2715,23.2734 0,12.8931 10.3784,23.2734 23.2715,23.2734 h 46.5449 c 12.8931,0 23.2734,-10.3803 23.2734,-23.2734 0,-12.8931 -10.3803,-23.2734 -23.2734,-23.2734 z m 186.1816,0 c -12.8931,0 -23.2715,10.3803 -23.2715,23.2734 0,12.8931 10.3784,23.2734 23.2715,23.2734 h 46.5469 c 12.8931,0 23.2715,-10.3803 23.2715,-23.2734 0,-12.8931 -10.3784,-23.2734 -23.2715,-23.2734 z m 139.6367,0 c -12.8931,0 -23.2734,10.3803 -23.2734,23.2734 0,12.8931 10.3803,23.2734 23.2734,23.2734 h 93.0918 c 12.8931,0 23.2715,-10.3803 23.2715,-23.2734 0,-12.8931 -10.3784,-23.2734 -23.2715,-23.2734 z m 186.1817,0 c -12.8931,0 -23.2715,10.3803 -23.2715,23.2734 0,12.8931 10.3784,23.2734 23.2715,23.2734 h 209.45506 c 12.89309,0 23.27344,-10.3803 23.27344,-23.2734 0,-12.8931 -10.38035,-23.2734 -23.27344,-23.2734 z m -512,93.0918 c -12.8931,0 -23.2715,10.3803 -23.2715,23.2734 0,12.8931 10.3784,23.2715 23.2715,23.2715 h 46.5449 c 12.8931,0 23.2734,-10.3784 23.2734,-23.2715 0,-12.8931 -10.3803,-23.2734 -23.2734,-23.2734 z m 186.1816,46.5449 c -12.8931,0 -23.2715,10.3803 -23.2715,23.2734 0,12.8931 10.3784,23.2715 23.2715,23.2715 h 139.6367 c 12.8931,0 23.2735,-10.3784 23.2735,-23.2715 0,-12.8931 -10.3804,-23.2734 -23.2735,-23.2734 z m 232.7285,0 c -12.8931,0 -23.2734,10.3803 -23.2734,23.2734 0,12.8931 10.3803,23.2715 23.2734,23.2715 h 139.6348 c 12.89309,0 23.27344,-10.3784 23.27344,-23.2715 0,-12.8931 -10.38035,-23.2734 -23.27344,-23.2734 z" />
      <rect
         style="fill:none;stroke:none;stroke-width:3.77953;stroke-linejoin:round"
         id="rect1348"
         width="1024"
         height="1024"
         x="-1664"
         y="1152"
         rx="23.272699"
         ry="23.272699" />
    </g>
    <g
       id="g4385"
       transform="translate(-3328.0005,-2.9875828e-4)">
      <path
         id="path2012"
         style="color:#000000;fill:#01575c;fill-opacity:1;stroke-width:0.931762;stroke-linejoin:round;-inkscape-stroke:none"
         d="M 513.79883,0.046875 A 34.944583,34.944583 0 0 0 506.62109,0.41601562 34.944583,34.944583 0 0 0 496.37305,3.6894531 L 19.310547,242.2207 a 34.944583,34.944583 0 0 0 0,62.50391 L 496.37305,543.25586 a 34.944583,34.944583 0 0 0 31.2539,0 L 896,359.07031 v 405.51367 c -19.12374,11.06743 -32,31.7314 -32,55.41602 0.0428,2.22748 0.20186,4.45122 0.47656,6.66211 C 864.18625,828.40094 864,830.17624 864,832 v 160 c 0,17.728 14.272,32 32,32 h 64 c 17.728,0 32,-14.272 32,-32 V 832 c 0,-1.82376 -0.18625,-3.59906 -0.47656,-5.33789 0.2747,-2.21089 0.43377,-4.43463 0.47656,-6.66211 0,-23.68462 -12.87626,-44.34859 -32,-55.41602 V 327.07031 l 44.6895,-22.3457 a 34.944583,34.944583 0 0 0 0,-62.50391 L 527.62695,3.6894531 A 34.944583,34.944583 0 0 0 513.79883,0.046875 Z M 512,216 a 88,40 0 0 1 88,40 88,40 0 0 1 -88,40 88,40 0 0 1 -88,-40 88,40 0 0 1 88,-40 z" />
      <path
         id="rect2320"
         style="fill:#01575c;fill-opacity:1;stroke:none;stroke-width:75;stroke-linejoin:round;stroke-miterlimit:4;stroke-dasharray:none"
         d="M 192,451.07031 V 736 c 0,70.69245 143.26888,128 320,128 176.73112,0 320,-57.30755 320,-128 V 451.07031 L 527.62695,603.25586 c -9.83745,4.91844 -21.41645,4.91844 -31.2539,0 z"
         sodipodi:nodetypes="cssscccc" />
    </g>
    <path
       id="rect4434"
       style="fill:#01575c;fill-opacity:1;stroke:none;stroke-width:64;stroke-linejoin:round;stroke-miterlimit:4;stroke-dasharray:none"
       d="m -2112,0 c -35.456,0 -64,28.544 -64,64 v 896 c 0,35.456 28.544,64 64,64 h 191.2148 l 5.5059,-62.90039 v -0.0195 c 0.6406,-7.04726 3.6456,-14.02745 8.875,-18.88867 5.8857,-5.48662 13.9077,-7.68555 22.0078,-7.68555 5.3259,0 10.9478,0.99501 17.5136,2.69726 l -0.096,-0.0234 c 4.9534,1.23834 11.9301,2.00195 20.6582,2.00195 11.5903,0 21.4699,-1.62776 29.7813,-4.63281 8.0386,-3.12346 14.3544,-7.72692 19.5918,-14.22852 l 0.059,-0.0742 0.059,-0.0703 c 5.4007,-6.48083 9.7739,-15.251 12.793,-26.71484 3.0143,-11.6685 4.6464,-26.35992 4.6464,-43.91992 V 525.03125 h 112.293 v 322.50586 c 0,28.08472 -3.4503,53.69627 -10.5117,76.76367 -7.0719,23.1015 -17.8306,43.17533 -32.293,59.81836 -14.3,16.71236 -32.347,29.59716 -53.6211,38.44136 -1.3244,0.5507 -2.769,0.924 -4.1172,1.4395 h 234.4571 c -6.2161,-1.9408 -12.3942,-3.9777 -18.4121,-6.4043 l -0.031,-0.012 -0.029,-0.012 c -14.2077,-5.8228 -27.6389,-12.8289 -40.2578,-21.00785 l -0.039,-0.0254 -0.041,-0.0273 c -12.4272,-8.20663 -23.6351,-17.40045 -33.5723,-27.57422 l -6.0723,-6.21484 30.9024,-51.10938 0.4238,-0.53906 c 3.2416,-4.12569 7.1934,-7.62564 11.668,-10.32227 5.2336,-3.24368 11.3719,-4.98828 17.5312,-4.98828 8.7095,0 16.921,3.57193 24.6192,9.14649 l -0.209,-0.14844 c 6.2904,4.33824 13.7359,9.267 22.2871,14.75 0,0.002 0.01,0.003 0.01,0.004 8.1802,5.11196 17.8903,9.93282 29.1113,14.38672 10.4194,3.84125 23.4279,5.94727 39.0781,5.94727 23.8311,0 40.6525,-5.49908 52.1172,-15.3125 11.4037,-9.98133 17.1504,-23.56582 17.1504,-43.93555 0,-10.78806 -2.5615,-18.25758 -7.2031,-24.01953 l -0.061,-0.0742 -0.059,-0.0762 c -5.108,-6.56748 -12.0483,-12.21293 -21.293,-16.93359 l -0.084,-0.043 -0.084,-0.043 c -9.6479,-5.1319 -20.8146,-9.53729 -33.5254,-13.13867 -13.4948,-3.82353 -27.2053,-7.98187 -41.1328,-12.47461 -14.2547,-4.5983 -28.2726,-10.115 -42.0469,-16.54297 -14.43,-6.73403 -27.4054,-15.57974 -38.7539,-26.44531 -11.6421,-11.1467 -20.9505,-24.95039 -27.9218,-41.05664 l -0.039,-0.0918 -0.039,-0.0918 c -6.9648,-16.91434 -10.1973,-36.9491 -10.1973,-60.05078 0,-19.05844 3.7711,-37.73726 11.2051,-55.72265 l 0.023,-0.0586 0.025,-0.0586 c 7.709,-18.06809 18.869,-34.18427 33.25,-48.08594 l 0.033,-0.0332 0.035,-0.0312 c 14.7186,-13.99475 32.6045,-25.10654 53.3496,-33.35742 21.1273,-8.40289 44.9616,-12.48438 71.2812,-12.48438 29.6699,0 57.319,4.65053 82.7208,14.05859 25.3002,9.37045 47.1794,22.64155 65.2753,39.78516 l 6.1426,5.81836 -25.8652,49.76758 c -3.0619,6.12381 -7.1276,11.40018 -12.8125,14.85937 -5.1305,3.25043 -11.1907,4.70508 -17.2676,4.70508 -7.2594,0 -14.1058,-2.59003 -20.8047,-6.60937 l -0.1387,-0.084 -0.1367,-0.0879 c -5.3197,-3.40461 -11.7089,-7.19816 -19.1308,-11.3457 -6.7868,-3.79261 -15.0334,-7.32287 -24.7227,-10.48242 l -0.1406,-0.0449 -0.1406,-0.0508 c -8.4866,-3.01744 -19.1372,-4.69531 -31.9766,-4.69531 -11.5336,0 -21.2497,1.45563 -29.1816,4.09961 l -0.078,0.0273 -0.078,0.0234 c -7.9207,2.51143 -14.3263,5.95507 -19.5352,10.24805 -4.9092,4.22625 -8.4308,9.09237 -10.8867,15.05664 l -0.022,0.0547 -0.023,0.0547 c -2.4805,5.84674 -3.7852,12.40116 -3.7852,19.99805 0,9.26775 2.2983,15.75896 6.75,21.19141 5.3525,6.24862 12.5235,11.80199 21.8653,16.57226 9.8105,5.00966 21.1544,9.58364 34.0214,13.6582 13.4223,4.25038 27.061,8.83559 40.9122,13.74805 14.4582,4.81962 28.5753,10.55882 42.3418,17.20899 14.3354,6.69851 27.2371,15.37081 38.5449,25.94726 11.6188,10.64246 20.8624,23.76751 27.6465,39.00586 7.2877,15.85938 10.6914,34.51516 10.6914,55.73438 0,23.10657 -4.0331,45.05405 -12.1309,65.54882 -7.9037,20.34491 -19.7483,38.35092 -35.3066,53.66993 -15.4045,15.16375 -34.2432,27.10955 -56.1621,35.83005 l -0.049,0.02 -0.049,0.018 c -0.9913,0.3837 -2.0676,0.6378 -3.0704,1.0039 H -1216 c 35.456,0 64,-28.54396 64,-63.99996 V 64 c 0,-35.456 -28.544,-64 -64,-64 z" />
    <text
       xml:space="preserve"
       id="text5102"
       style="font-style:normal;font-weight:normal;font-size:144px;line-height:1.25;font-family:sans-serif;white-space:pre;shape-inside:url(#rect5104);fill:#000000;fill-opacity:1;stroke:none"><tspan
         x="640"
         y="895.40625"
         id="tspan1099"><tspan
           dx="0 53.578125"
           style="font-weight:bold;-inkscape-font-specification:'sans-serif Bold'"
           id="tspan1097">JS</tspan></tspan></text>
    <g
       id="path47707"
       style="font-size:667.984px;stroke:#000000;stroke-width:22.4496" />
    <g
       id="g6157"
       transform="translate(-3200,1664)">
      <rect
         style="fill:#000000;fill-opacity:1;stroke:none;stroke-width:3.77953;stroke-linejoin:round"
         id="rect912"
         width="1024"
         height="192"
         x="0"
         y="0" />
      <rect
         style="fill:#000000;fill-opacity:1;stroke:none;stroke-width:3.77953;stroke-linejoin:round"
         id="rect1082"
         width="1024"
         height="192"
         x="0"
         y="416" />
      <rect
         style="fill:#000000;fill-opacity:1;stroke:none;stroke-width:3.77953;stroke-linejoin:round"
         id="rect1084"
         width="1024"
         height="192"
         x="0"
         y="832" />
    </g>
    <g
       id="g4072">
      <ellipse
         style="fill:#010202;fill-opacity:1;stroke:none;stroke-width:2.07863;stroke-linejoin:round"
         id="path3546"
         cx="-5204"
         cy="432"
         rx="28"
         ry="56" />
      <path
         style="fill:#00000f;fill-opacity:1;stroke-width:2.04365"
         d="m -5375.9675,433.86356 c 3.5357,-0.46824 9.3242,-0.46824 12.86,0 3.5373,0.46825 0.6454,0.85214 -6.4292,0.85214 -7.0747,0 -9.9698,-0.38389 -6.4308,-0.85214 z m 22.1616,-18.79817 c -7.4701,-20.96226 -38.2701,-120.36342 -40.631,-131.13393 -2.5417,-11.59253 -2.54,-13.93272 0,-19.18465 3.8246,-7.88908 22.812,-26.48928 42.0624,-41.20493 24.0368,-18.37348 23.0524,-17.28016 21.5194,-23.92288 -2.269,-9.83041 -10.8089,-23.65226 -16.5055,-26.71222 -9.4485,-5.07599 -15.4112,-5.58589 -27.1562,-2.32263 -24.1094,6.69884 -58.3435,31.9631 -58.3435,43.05571 0,2.38736 -0.8876,4.34074 -1.9784,4.34074 -1.0974,0 -1.9801,-0.40627 -1.9801,-0.90206 0,-0.49579 -0.936,-8.1721 -2.1044,-17.05689 -3.9036,-29.9283 2.9339,-57.02836 18.4307,-73.07335 9.0854,-9.40555 44.8558,-28.869415 68.628,-37.343285 9.179,-3.272039 17.5898,-7.472134 18.6904,-9.333411 5.1641,-8.733644 -9.3468,-22.687366 -23.6059,-22.701654 -20.6044,-0.01446 -15.6195,-20.739842 8.0139,-33.314822 19.2117,-10.223078 34.4262,-13.570863 66.8351,-14.7067027 35.5994,-1.2480815 52.5502,0.9571487 79.5854,10.3456477 21.195,7.361443 56.3699,25.101586 74.013,37.32848 6.9698,4.830505 13.7831,8.782706 15.1403,8.782706 3.4549,0 6.8132,-11.442239 6.8132,-23.216897 0,-11.946979 -6.6615,-22.943523 -21.1531,-34.9213176 L -5137.0484,0 l 9.6615,1.3393204 c 20.6608,2.8635291 67.8389,26.7981156 92.2387,46.7958226 26.1542,21.434808 50.3281,55.454747 61.2484,86.197837 l 2.1527,6.05948 5.7595,-8.48059 c 12.8858,-18.97669 31.5117,-27.86113 61.9051,-29.5284 12.6824,-0.69548 22.4118,-0.1205 28.4602,1.68878 9.9083,2.95942 24.4918,15.90435 24.4918,21.74072 0,1.90827 -6.6777,13.93892 -14.84,26.73477 -8.1624,12.79584 -14.8175,23.96712 -14.7885,24.82494 0,0.8573 4.7025,4.84617 10.3878,8.86258 22.8475,16.14174 46.6164,36.25203 58.5598,49.54418 12.3532,13.75007 12.5807,14.21126 11.2914,22.91891 -1.6251,10.97468 -40.2147,135.10025 -43.3744,139.51743 -2.0108,2.80895 -4.1055,2.42644 -17.1493,-3.1326 l -14.8611,-6.33251 -8.3915,-24.69962 c -11.0994,-32.68096 -14.2478,-49.6232 -14.2881,-76.94137 v -22.69081 h -8.1898 c -19.0762,0 -81.0506,13.68104 -115.9061,25.58584 -48.1511,16.44627 -68.302,17.66474 -137.6126,8.32083 -76.416,-10.30192 -88.1705,-11.1971 -99.5765,-7.58369 -12.8422,4.06823 -27.3644,14.41543 -32.1362,22.89636 -2.077,3.69397 -5.2125,15.26498 -6.965,25.71323 -3.7375,22.28522 -11.1833,43.89889 -19.8395,57.59973 -6.2209,9.84986 -11.811,14.32608 -25.5101,20.43238 -7.4232,3.30923 -7.4539,3.30217 -9.4566,-2.31678 z"
         id="path633401" />
      <ellipse
         style="fill:#010202;fill-opacity:1;stroke:none;stroke-width:2.07863;stroke-linejoin:round"
         id="ellipse3846"
         cx="-5020"
         cy="432"
         rx="28"
         ry="56" />
      <path
         style="clip-rule:evenodd;fill:#2c3e66;fill-opacity:1;fill-rule:evenodd;stroke-width:7.33781;stroke-linejoin:round;stroke-miterlimit:2"
         d="m -5589.6323,451.6872 c -12.6734,0 -24.7268,5.51715 -33.1016,15.15234 -4.369,5.02004 -7.5082,10.90328 -9.2656,17.20118 l 63.543,536.39648 899.6308,3.5625 60.8262,-539.31055 c -1.7558,-6.52773 -4.9888,-12.61874 -9.5215,-17.79492 -8.4582,-9.67203 -20.6042,-15.20703 -33.3594,-15.20703 z"
         id="path633399" />
      <circle
         style="fill:#ffea7d;fill-opacity:1;stroke:none;stroke-width:3.77953;stroke-linejoin:round"
         id="path2994"
         cx="-5120"
         cy="736"
         r="96" />
    </g>
    <path
       id="path433441"
       style="fill:#3d3d3d;fill-opacity:1;stroke-width:25.6002"
       d="m -1279.9998,1792.0004 c -141.8239,0 -256.0003,57.088 -256.0003,128 v 102.3999 h 256.0003 v 25.6 H -1536.0001 -1664 c -70.912,0 -128,114.176 -128,255.9999 0,141.8239 57.088,255.9999 128,255.9999 h 102.3999 c 0,-64.5333 3.9673,-113.3568 13.4001,-151.089 9.4328,-37.7301 24.7996,-64.8298 47.3999,-82.9098 45.2014,-36.1622 112.0003,-34.8011 208.0003,-34.8011 108.8,0 176.945,-1.472 214.7989,-29.5104 18.929,-14.0202 32.0789,-34.7669 41.0005,-68.9343 8.9216,-34.1675 13.0005,-81.2885 13.0005,-144.7552 v -127.9999 c 0,-70.912 -114.176,-128 -255.9999,-128 z m -140.7999,80.6443 a 47.359979,47.359979 0 0 1 47.3557,47.3557 47.359979,47.359979 0 0 1 -47.3557,47.3557 47.359979,47.359979 0 0 1 -47.3558,-47.3557 47.359979,47.359979 0 0 1 47.3558,-47.3557 z m 422.39981,175.3556 c 0,64.5333 -3.92111,113.4123 -13.80051,151.2448 -9.8774,37.8325 -26.3275,65.0858 -50.6006,83.0655 -48.5439,35.9595 -121.1988,34.4896 -229.9988,34.4896 -96,0 -157.201,1.3653 -192.0003,29.2011 -17.3995,13.9178 -30.0329,34.8415 -38.5999,69.1093 -8.5673,34.2698 -12.6001,81.4229 -12.6001,144.8895 V 2688 c 0,70.912 114.1764,128 256.0003,128 141.8239,0 255.9999,-57.088 255.9999,-128 v -102.3999 h -255.9999 v -25.6 h 255.9999 127.99994 c 70.91196,0 127.99996,-114.176 127.99996,-255.9999 0,-141.8239 -57.088,-255.9999 -127.99996,-255.9999 z m -140.80001,592.644 a 47.359979,47.359979 0 0 1 47.3558,47.3557 47.359979,47.359979 0 0 1 -47.3558,47.3557 47.359979,47.359979 0 0 1 -47.3557,-47.3557 47.359979,47.359979 0 0 1 47.3557,-47.3557 z" />
    <path
       style="fill:#3d3d3d;fill-opacity:1;stroke-width:4.28636"
       d="m -512,2803.9721 c 0,-19.7751 12.60624,-76.3295 24.14698,-108.3299 22.64452,-62.7893 70.76546,-130.3888 113.0134,-158.7599 l 12.90859,-8.6687 V 2672.1068 2816 H -436.96552 -512 Z m 229.51724,-154.0036 V 2483.937 l 29.79311,-10.4037 29.7931,-10.4038 23.2011,24.1443 c 28.84767,30.0203 69.84298,54.775 114.60458,69.2027 29.34069,9.4573 41.71211,11.0677 85.09087,11.0768 42.99785,0.01 56.21054,-1.6746 86.41501,-11.0114 49.69401,-15.3611 98.67431,-47.0296 128.37076,-82.9984 l 9.51878,-11.5296 25.77876,8.9613 c 14.17843,4.9288 28.26152,10.8148 31.296,13.08 4.24651,3.17 5.51724,41.873 5.51724,168.0317 V 2816 H 2.2069 -282.48276 Z m 644.41379,22.2753 c 0,-166.3796 -4.30565,-156.8606 47.13667,-104.2097 33.1286,33.9072 61.65672,80.1141 78.78532,127.6081 C 499.3938,2727.6426 512,2784.197 512,2803.9721 V 2816 H 436.96551 361.93103 Z M -44.13793,2499.2824 c -10.92414,-1.9857 -36.03112,-11.1357 -55.79388,-20.3333 -68.04833,-31.6703 -124.95845,-103.0715 -146.99873,-184.4299 -9.89528,-36.5273 -16.67972,-104.7242 -10.75906,-108.1559 2.1429,-1.2422 18.79305,0.1782 36.99995,3.1567 108.8768,17.8108 306.7008,19.0008 419.31034,2.5223 32.77241,-4.7956 60.37583,-8.728 61.34113,-8.7385 0.96529,-0.013 0.44403,17.5666 -1.15773,39.0603 -6.39736,85.8278 -38.73016,157.3062 -95.38031,210.8568 -60.83443,57.5062 -131.28033,79.9273 -207.56171,66.0615 z m -99.31035,-335.4846 c -42.29075,-3.4418 -131.49307,-14.1621 -151.48094,-18.2048 -39.96821,-8.0838 -55.67558,-39.9389 -29.97407,-60.7883 6.60878,-5.3613 15.38605,-9.7478 19.505,-9.7478 5.67923,0 9.26014,-7.2914 14.82196,-30.1788 19.81308,-81.5338 79.05501,-154.8797 153.8635,-190.4936 23.20728,-11.0485 26.04359,-11.5624 28.02361,-5.0783 1.21159,3.9678 7.49419,32.5019 13.96127,63.4093 12.26329,58.6077 15.68663,66.6016 28.52105,66.6016 17.52497,0 17.74036,-8.4678 2.1226,-83.4506 -8.32221,-39.9558 -16.17832,-76.7261 -17.45832,-81.7118 C -86.48518,1794.9045 -75.79454,1792 0,1792 c 75.79454,0 86.48518,2.9045 81.54262,22.1547 -1.28,4.9857 -9.13611,41.756 -17.45832,81.7118 -16.04016,77.0108 -15.67735,83.4506 4.69981,83.4506 11.82764,0 13.2021,-3.7417 28.28579,-77.0082 13.9754,-67.8832 9.14935,-62.8562 43.83956,-45.6644 73.80436,36.5759 130.29297,107.5877 149.72381,188.217 5.14207,21.337 9.25749,30.1954 14.02924,30.1954 10.31415,0 26.45804,12.1589 30.95526,23.3144 5.23873,12.9947 -1.05975,28.4301 -15.15432,37.1398 -12.48,7.7118 -90.95503,20.3664 -165.98069,26.7654 -46.11311,3.933 -255.18036,5.0006 -297.93104,1.5213 z"
       id="path6294" />
    <g
       id="g7183"
       transform="translate(1024,1792)">
      <path
         id="rect449852-3-2"
         style="fill:#dd404b;fill-opacity:1;stroke:none;stroke-width:114.202;stroke-linecap:round;stroke-miterlimit:4;stroke-dasharray:none;stroke-opacity:1"
         d="M 44.474325,755.36523 A 550.2602,537.2699 0 0 0 201.02221,923.30273 V 755.36523 Z" />
      <path
         id="rect449854-6-8"
         style="fill:#ff8552;fill-opacity:1;stroke:none;stroke-width:114.202;stroke-linecap:round;stroke-miterlimit:4;stroke-dasharray:none;stroke-opacity:1"
         d="m 244.46505,621.04688 v 329.58593 a 550.2602,537.2699 0 0 0 229.2738,70.16409 V 621.04688 Z" />
      <path
         id="rect449856-0-9"
         style="fill:#a7b0ca;fill-opacity:1;stroke:none;stroke-width:114.202;stroke-linecap:round;stroke-miterlimit:4;stroke-dasharray:none;stroke-opacity:1"
         d="M 519.59562,486.73047 V 1024 a 550.2602,537.2699 0 0 0 229.2738,-48.91992 V 486.73047 Z" />
      <path
         id="rect449858-6-7"
         style="fill:#2b424d;fill-opacity:1;stroke:none;stroke-width:114.202;stroke-linecap:round;stroke-miterlimit:4;stroke-dasharray:none;stroke-opacity:1"
         d="M 791.66251,285.19727 V 952.26562 A 550.2602,537.2699 0 0 0 1024,699.78711 V 285.19727 Z" />
      <path
         id="path449860-2-3"
         style="fill:#dd404b;fill-opacity:1;stroke:none;stroke-width:5.60606px;stroke-linecap:butt;stroke-linejoin:miter;stroke-opacity:1"
         d="M 727.56954,7.870152e-8 516.34052,85.700257 604.40915,129.55214 C 470.81483,355.49297 263.78295,427.42111 -2.410012e-7,427.42111 v 87.85276 C 283.63965,515.27387 535.41892,425.18668 685.66868,170.01452 l 88.84108,44.23612 z" />
    </g>
    <path
       id="path7209"
       style="fill:#fff5c3;fill-opacity:1;stroke:none;stroke-width:114.202;stroke-linecap:round;stroke-miterlimit:4;stroke-dasharray:none;stroke-opacity:1"
       d="m 1324.4743,1267.3652 a 550.2602,537.2699 0 0 0 156.5479,167.9375 v -167.9375 z" />
    <path
       id="path7211"
       style="fill:#fff5c3;fill-opacity:1;stroke:none;stroke-width:114.202;stroke-linecap:round;stroke-miterlimit:4;stroke-dasharray:none;stroke-opacity:1"
       d="m 1524.4651,1133.0469 v 329.5859 a 550.2602,537.2699 0 0 0 229.2738,70.1641 v -399.75 z" />
    <path
       id="path7213"
       style="fill:#fff5c3;fill-opacity:1;stroke:none;stroke-width:114.202;stroke-linecap:round;stroke-miterlimit:4;stroke-dasharray:none;stroke-opacity:1"
       d="M 1799.5956,998.73047 V 1536 a 550.2602,537.2699 0 0 0 229.2738,-48.9199 V 998.73047 Z" />
    <path
       id="path7215"
       style="fill:#fff5c3;fill-opacity:1;stroke:none;stroke-width:114.202;stroke-linecap:round;stroke-miterlimit:4;stroke-dasharray:none;stroke-opacity:1"
       d="M 2071.6625,797.19727 V 1464.2656 A 550.2602,537.2699 0 0 0 2304,1211.7871 V 797.19727 Z" />
    <path
       id="path7217"
       style="fill:#fff5c3;fill-opacity:1;stroke:none;stroke-width:5.60606px;stroke-linecap:butt;stroke-linejoin:miter;stroke-opacity:1"
       d="m 2007.5695,512 -211.229,85.70026 88.0687,43.85188 C 1750.8148,867.49297 1543.783,939.42111 1280,939.42111 v 87.85279 c 283.6397,0 535.4189,-90.08722 685.6687,-345.25938 l 88.8411,44.23612 z" />
    <rect
       style="fill:#000000;fill-opacity:1;stroke:none;stroke-width:3.77953;stroke-linejoin:round"
       id="rect912-3"
       width="1024"
       height="192"
       x="0"
       y="0" />
    <rect
       style="fill:#000000;fill-opacity:1;stroke:none;stroke-width:3.77953;stroke-linejoin:round"
       id="rect1082-6"
       width="1024"
       height="192"
       x="0"
       y="416" />
    <rect
       style="fill:#000000;fill-opacity:1;stroke:none;stroke-width:3.77953;stroke-linejoin:round"
       id="rect1084-7"
       width="1024"
       height="192"
       x="0"
       y="832" />
    <g
       id="g1810"
       transform="translate(1152,-1024)">
      <path
         style="fill:#fefefe;fill-opacity:1;stroke:none;stroke-width:0.966091px;stroke-linecap:butt;stroke-linejoin:miter;stroke-opacity:1"
         d="m 384,134.4 c 0,-179.2 256,-179.2 256,0 C 640,313.6 512,672 512,672 512,672 384,313.6 384,134.4 Z"
         id="path1106"
         sodipodi:nodetypes="zzcz" />
      <circle
         style="fill:#fefefe;fill-opacity:1;stroke:none;stroke-width:3.77953;stroke-linejoin:round"
         id="path1647"
         cx="512"
         cy="896"
         r="128" />
    </g>
    <rect
       style="fill:#4b8384;stroke-width:3;stroke-linecap:round;stroke-linejoin:round"
       id="rect1037"
       width="1024"
       height="1024"
       x="-1088"
       y="0"
       ry="64"
       rx="64" />
    <text
       xml:space="preserve"
       style="font-style:normal;font-variant:normal;font-weight:bold;font-stretch:normal;font-size:635.328px;line-height:1.25;font-family:'DejaVu Sans';-inkscape-font-specification:'DejaVu Sans Bold';fill:#000000;fill-opacity:1;stroke:#000000;stroke-width:15.8832;stroke-opacity:1"
       x="-896.38501"
       y="931.84882"
       id="text2634"
       transform="scale(0.92587529,1.0800591)"><tspan
         sodipodi:role="line"
         id="tspan2632"
         x="-896.38501"
         y="931.84882"
         style="font-style:normal;font-variant:normal;font-weight:bold;font-stretch:normal;font-family:Ubuntu;-inkscape-font-specification:'Ubuntu Bold';stroke:#000000;stroke-width:15.8832;stroke-opacity:1">JS</tspan></text>
    <rect
       style="fill:#4b8384;stroke-width:3;stroke-linecap:round;stroke-linejoin:round"
       id="rect19038"
       width="1024"
       height="1024"
       x="-2176"
       y="-1152.0001"
       ry="64"
       rx="64" />
    <text
       xml:space="preserve"
       style="font-style:normal;font-variant:normal;font-weight:bold;font-stretch:normal;font-size:635.328px;line-height:1.25;font-family:'DejaVu Sans';-inkscape-font-specification:'DejaVu Sans Bold';fill:#000000;fill-opacity:1;stroke:#000000;stroke-width:15.8832;stroke-opacity:1"
       x="-2071.4893"
       y="-134.75967"
       id="text19042"
       transform="scale(0.92587526,1.0800591)"><tspan
         sodipodi:role="line"
         id="tspan19040"
         x="-2071.4893"
         y="-134.75967"
         style="font-style:normal;font-variant:normal;font-weight:bold;font-stretch:normal;font-family:Ubuntu;-inkscape-font-specification:'Ubuntu Bold';stroke:#000000;stroke-width:15.8832;stroke-opacity:1">JS</tspan></text>
    <path
       id="rect19044"
       style="fill:#4b8384;stroke-width:3;stroke-linecap:round;stroke-linejoin:round"
       d="M -2112 -2304 C -2147.456 -2304 -2176 -2275.456 -2176 -2240 L -2176 -1344 C -2176 -1308.544 -2147.456 -1280 -2112 -1280 L -1840.5879 -1280 L -1840.5879 -1673.2363 L -1963.5273 -1673.2363 L -1963.5273 -1781.6562 L -1618.5273 -1781.6562 L -1611.1758 -1781.6562 L -1611.1758 -1673.2363 L -1734.1172 -1673.2363 L -1734.1172 -1280 L -1528.2012 -1280 C -1531.5246 -1280.8977 -1535.0224 -1281.7087 -1538.1367 -1282.7109 L -1538.168 -1282.7227 L -1538.2012 -1282.7324 C -1549.3794 -1286.5749 -1559.3007 -1290.4633 -1567.8984 -1294.7617 L -1567.9609 -1294.793 L -1568.0195 -1294.8242 C -1576.019 -1299.0273 -1582.8819 -1303.0182 -1588.6504 -1306.8633 L -1593.9863 -1310.4219 L -1563.1602 -1421.7656 L -1555.5859 -1416.918 C -1544.0243 -1409.5219 -1529.5882 -1402.6278 -1512.3418 -1396.3613 C -1495.1999 -1390.7209 -1473.8991 -1387.7832 -1448.5332 -1387.7832 C -1436.032 -1387.7832 -1425.9835 -1388.9194 -1418.6035 -1390.9512 C -1410.6633 -1393.4884 -1404.6366 -1396.5957 -1400.5273 -1399.877 C -1396.3862 -1403.6352 -1393.8558 -1407.5365 -1392.4531 -1411.791 C -1390.8551 -1416.6375 -1390.0039 -1422.1855 -1390.0039 -1428.6113 C -1390.0039 -1441.4741 -1394.5469 -1451.0752 -1405.6387 -1459.9707 L -1405.7012 -1460.0215 L -1405.7637 -1460.0742 C -1417.0798 -1469.5622 -1438.2465 -1480.7601 -1468.5039 -1492.5254 L -1468.5645 -1492.5488 L -1468.625 -1492.5742 C -1482.1396 -1498.1384 -1495.6456 -1504.3946 -1509.1445 -1511.3418 L -1509.2285 -1511.3828 L -1509.3086 -1511.4277 C -1523.1916 -1519.0488 -1535.7207 -1528.3826 -1546.8281 -1539.4199 L -1546.8867 -1539.4805 L -1546.9434 -1539.5391 C -1558.2097 -1551.2213 -1567.4184 -1565.1478 -1574.4785 -1581.1348 L -1574.498 -1581.1816 L -1574.5176 -1581.2285 C -1581.8031 -1598.2263 -1585.293 -1618.3613 -1585.293 -1641.332 C -1585.293 -1664.3454 -1581.5741 -1685.3367 -1574.0137 -1703.9727 C -1566.5097 -1722.9247 -1555.7778 -1739.129 -1542.0098 -1752.2695 C -1528.2427 -1765.4093 -1511.65 -1775.2829 -1492.459 -1781.9609 C -1473.1962 -1789.1218 -1451.6735 -1792.6367 -1427.9414 -1792.6367 L -1427.9473 -1792.6426 C -1399.9711 -1792.6426 -1375.5709 -1789.1617 -1354.6973 -1782 C -1334.3454 -1775.0173 -1317.4251 -1767.3004 -1303.8398 -1758.6562 L -1298.2773 -1755.1191 L -1329.793 -1654.6328 L -1337.209 -1659.1074 C -1348.1301 -1665.6969 -1360.4609 -1671.4615 -1374.2129 -1676.3633 L -1374.332 -1676.4043 L -1374.4492 -1676.4512 C -1387.1585 -1681.5343 -1403.0449 -1684.2227 -1422.0645 -1684.2227 C -1443.325 -1684.2227 -1458.0436 -1680.3475 -1465.748 -1674.5957 L -1465.7812 -1674.5723 L -1465.8145 -1674.5469 C -1473.2334 -1669.1378 -1476.4766 -1662.0629 -1476.4766 -1649.5684 C -1476.4766 -1642.2309 -1475.0635 -1636.8311 -1472.4883 -1632.4922 C -1469.5981 -1627.622 -1465.42 -1622.8799 -1459.8203 -1618.3594 C -1453.5703 -1614.0906 -1446.5449 -1609.9839 -1438.7285 -1606.0684 C -1430.2018 -1602.4531 -1420.9144 -1598.6153 -1410.834 -1594.5449 L -1410.7598 -1594.5156 L -1410.6855 -1594.4844 C -1389.3456 -1585.2645 -1370.7103 -1576.0198 -1354.7324 -1566.7051 C -1338.4825 -1557.6927 -1324.8523 -1546.9048 -1313.9785 -1534.2363 C -1302.6519 -1521.4969 -1294.163 -1506.396 -1288.7012 -1489.2422 C -1283.2052 -1471.9813 -1280.5938 -1451.546 -1280.5938 -1427.9297 C -1280.5938 -1381.5516 -1295.0273 -1333.856 -1323.373 -1307.5977 L -1323.4004 -1307.5742 L -1323.4258 -1307.5508 C -1336.7336 -1295.3076 -1353.1507 -1286.2702 -1372.3418 -1280 L -1216 -1280 C -1180.544 -1280 -1152 -1308.544 -1152 -1344 L -1152 -2240 C -1152 -2275.456 -1180.544 -2304 -1216 -2304 L -2112 -2304 z " />
    <g
       id="g976"
       transform="translate(0,64)">
      <ellipse
         style="fill:#000000;fill-opacity:1;stroke:none;stroke-width:112.065;stroke-linecap:round;stroke-linejoin:round"
         id="path1098"
         cx="30.156128"
         cy="-2670.2566"
         rx="99.451355"
         ry="94.4552" />
      <path
         id="circle1180"
         style="fill:#000000;fill-opacity:1;stroke:none;stroke-width:190.181;stroke-linecap:round;stroke-linejoin:round"
         d="m 30.15612,-2594.6925 a 159.12217,170.01937 0 0 0 -159.12217,170.0194 159.12217,170.01937 0 0 0 1.42524,21.2927 358.02487,340.03873 0 0 0 157.69693,35.3804 358.02487,340.03873 0 0 0 157.69692,-35.3804 159.12217,170.01937 0 0 0 1.42524,-21.2927 159.12217,170.01937 0 0 0 -159.12216,-170.0194 z" />
      <ellipse
         style="fill:#000000;fill-opacity:1;stroke:none;stroke-width:96.3858;stroke-linecap:round;stroke-linejoin:round"
         id="circle1371"
         cx="247.14087"
         cy="-2662.0215"
         rx="85.536949"
         ry="81.239822" />
      <path
         id="path1373"
         style="fill:#000000;fill-opacity:1;stroke:none;stroke-width:163.572;stroke-linecap:round;stroke-linejoin:round"
         d="m 247.14088,-2597.0295 a 136.85912,146.23168 0 0 0 -136.85912,146.2317 136.85912,146.23168 0 0 0 1.22583,18.3136 307.93302,292.46335 0 0 0 135.63329,30.4302 307.93302,292.46335 0 0 0 135.63332,-30.4302 136.85912,146.23168 0 0 0 1.2258,-18.3136 136.85912,146.23168 0 0 0 -136.85912,-146.2317 z" />
      <ellipse
         style="fill:#000000;fill-opacity:1;stroke:none;stroke-width:96.3858;stroke-linecap:round;stroke-linejoin:round"
         id="circle1377"
         cx="-186.82867"
         cy="-2662.0215"
         rx="85.536949"
         ry="81.239822" />
      <path
         id="path1379"
         style="fill:#000000;fill-opacity:1;stroke:none;stroke-width:163.572;stroke-linecap:round;stroke-linejoin:round"
         d="m -186.82866,-2597.0295 a 136.85912,146.23168 0 0 0 -136.85912,146.2317 136.85912,146.23168 0 0 0 1.22583,18.3136 307.93302,292.46335 0 0 0 135.63329,30.4302 307.93302,292.46335 0 0 0 135.63329,-30.4302 136.85912,146.23168 0 0 0 1.22583,-18.3136 136.85912,146.23168 0 0 0 -136.85912,-146.2317 z" />
      <circle
         style="fill:#000000;fill-opacity:1;stroke:none;stroke-width:148;stroke-linecap:round;stroke-linejoin:round"
         id="path1416"
         cx="-480"
         cy="-3168"
         r="96" />
      <rect
         style="fill:#000000;fill-opacity:1;stroke:none;stroke-width:170.896;stroke-linecap:round;stroke-linejoin:round"
         id="rect1520"
         width="128"
         height="544"
         x="-544"
         y="-3008"
         ry="64"
         rx="62.415123" />
      <rect
         style="fill:#000000;fill-opacity:1;stroke:none;stroke-width:113.037;stroke-linecap:round;stroke-linejoin:round"
         id="rect1704"
         width="128"
         height="320"
         x="-640"
         y="-3008"
         ry="64"
         rx="58.991882" />
      <rect
         style="fill:#000000;fill-opacity:1;stroke:none;stroke-width:113.037;stroke-linecap:round;stroke-linejoin:round"
         id="rect1910"
         width="224"
         height="352"
         x="-640"
         y="-3040"
         ry="64"
         rx="58.991882" />
      <rect
         style="fill:#000000;fill-opacity:1;stroke:none;stroke-width:148;stroke-linecap:round;stroke-linejoin:round"
         id="rect1934"
         width="544"
         height="96"
         x="-640"
         y="-3040"
         rx="58.991901"
         ry="45.7971" />
      <path
         id="rect2038"
         style="fill:none;stroke:#000000;stroke-width:64;stroke-linecap:round;stroke-linejoin:round"
         d="m -480,-3344 v -16 h 832 v 512 h -672"
         sodipodi:nodetypes="ccccc" />
    </g>
  </g>
</svg>
