<?xml version="1.0" encoding="UTF-8"?>
<svg
  version="1.1"
  viewBox="0 0 1024 1024"
  xmlns="http://www.w3.org/2000/svg"
>
  <path
    fill="#000000"
    d="m256.03 433.86c3.5357-0.46824 9.3242-0.46824 12.86 0 3.5373 0.46825 0.6454 0.85214-6.4292 0.85214-7.0747 0-9.9698-0.38389-6.4308-0.85214zm22.162-18.798c-7.4701-20.962-38.27-120.36-40.631-131.13-2.5417-11.593-2.54-13.933 0-19.185 3.8246-7.8891 22.812-26.489 42.062-41.205 24.037-18.373 23.052-17.28 21.519-23.923-2.269-9.8304-10.809-23.652-16.506-26.712-9.4485-5.076-15.411-5.5859-27.156-2.3226-24.109 6.6988-58.344 31.963-58.344 43.056 0 2.3874-0.8876 4.3407-1.9784 4.3407-1.0974 0-1.9801-0.40627-1.9801-0.90206s-0.936-8.1721-2.1044-17.057c-3.9036-29.928 2.9339-57.028 18.431-73.073 9.0854-9.4056 44.856-28.869 68.628-37.343 9.179-3.272 17.59-7.4721 18.69-9.3334 5.1641-8.7336-9.3468-22.687-23.606-22.702-20.604-0.01446-15.62-20.74 8.0139-33.315 19.212-10.223 34.426-13.571 66.835-14.707 35.599-1.2481 52.55 0.95715 79.585 10.346 21.195 7.3614 56.37 25.102 74.013 37.328 6.9698 4.8305 13.783 8.7827 15.14 8.7827 3.4549 0 6.8132-11.442 6.8132-23.217 0-11.947-6.6615-22.944-21.153-34.921l-9.5162-7.867 9.6615 1.3393c20.661 2.8635 67.839 26.798 92.239 46.796 26.154 21.435 50.328 55.455 61.248 86.198l2.1527 6.0595 5.7595-8.4806c12.886-18.977 31.512-27.861 61.905-29.528 12.682-0.69548 22.412-0.1205 28.46 1.6888 9.9083 2.9594 24.492 15.904 24.492 21.741 0 1.9083-6.6777 13.939-14.84 26.735-8.1624 12.796-14.818 23.967-14.788 24.825 0 0.8573 4.7025 4.8462 10.388 8.8626 22.848 16.142 46.616 36.252 58.56 49.544 12.353 13.75 12.581 14.211 11.291 22.919-1.6251 10.975-40.215 135.1-43.374 139.52-2.0108 2.809-4.1055 2.4264-17.149-3.1326l-14.861-6.3325-8.3915-24.7c-11.099-32.681-14.248-49.623-14.288-76.941v-22.691h-8.1898c-19.076 0-81.051 13.681-115.91 25.586-48.151 16.446-68.302 17.665-137.61 8.3208-76.416-10.302-88.17-11.197-99.576-7.5837-12.842 4.0682-27.364 14.415-32.136 22.896-2.077 3.694-5.2125 15.265-6.965 25.713-3.7375 22.285-11.183 43.899-19.84 57.6-6.2209 9.8499-11.811 14.326-25.51 20.432-7.4232 3.3092-7.4539 3.3022-9.4566-2.3168z"
  />
  
  <ellipse fill="#000000" cx="428" cy="432" rx="28" ry="56" />
  <ellipse fill="#000000" cx="612" cy="432" rx="28" ry="56" />

  <path 
    fill="#2c3e66"
    d="m42.367 451.69c-12.673 0-24.727 5.5172-33.102 15.152-4.369 5.02-7.5082 10.903-9.2656 17.201l63.543 536.4 899.63 3.5625 60.826-539.31c-1.7558-6.5277-4.9888-12.619-9.5215-17.795-8.4582-9.672-20.604-15.207-33.359-15.207z"
  />

  <circle cx="512" cy="736" r="96" fill="#ffe24a"/>
</svg>
