<?xml version="1.0" encoding="UTF-8"?>
<!-- Created with Inkscape (http://www.inkscape.org/) -->
<svg width="1024" height="1024" version="1.1" viewBox="0 0 1024 1024" xmlns="http://www.w3.org/2000/svg">
 <g>
  <path d="m44.474 755.37a550.26 537.27 0 0 0 156.55 167.94v-167.94z" fill="#dd404b"/>
  <path d="m244.47 621.05v329.59a550.26 537.27 0 0 0 229.27 70.164v-399.75z" fill="#ff8552"/>
  <path d="m519.6 486.73v537.27a550.26 537.27 0 0 0 229.27-48.92v-488.35z" fill="#a7b0ca"/>
  <path d="m791.66 285.2v667.07a550.26 537.27 0 0 0 232.34-252.48v-414.59z" fill="#2b424d"/>
  <path d="m727.57 7.8702e-8 -211.23 85.7 88.069 43.852c-133.59 225.94-340.63 297.87-604.41 297.87v87.853c283.64 0 535.42-90.087 685.67-345.26l88.841 44.236z" fill="#dd404b"/>
 </g>
</svg>
