<?xml version="1.0" encoding="UTF-8"?>
<!-- Created with Inkscape (http://www.inkscape.org/) -->
<svg width="1024" height="1024" version="1.1" viewBox="0 0 1024 1024" xmlns="http://www.w3.org/2000/svg">
 <g transform="translate(1664,-1152)">
  <path d="m-1361.5 1245.1c-12.893 0-23.272 10.378-23.272 23.272s10.378 23.273 23.272 23.273h93.092c12.893 0 23.272-10.38 23.272-23.273s-10.378-23.272-23.272-23.272zm186.18 0c-12.893 0-23.272 10.378-23.272 23.272s10.378 23.273 23.272 23.273h232.73c12.893 0 23.273-10.38 23.273-23.273s-10.38-23.272-23.273-23.272zm-372.36 93.09c-12.893 0-23.272 10.38-23.272 23.274s10.378 23.272 23.272 23.272h46.545c12.893 0 23.273-10.378 23.273-23.272s-10.38-23.274-23.273-23.274zm0 93.092c-12.893 0-23.272 10.378-23.272 23.272s10.378 23.274 23.272 23.274h46.545c12.893 0 23.273-10.38 23.273-23.274s-10.38-23.272-23.273-23.272zm186.18 0c-12.893 0-23.272 10.378-23.272 23.272s10.378 23.274 23.272 23.274h46.547c12.893 0 23.272-10.38 23.272-23.274s-10.378-23.272-23.272-23.272zm139.64 0c-12.893 0-23.273 10.378-23.273 23.272s10.38 23.274 23.273 23.274h46.545c12.893 0 23.273-10.38 23.273-23.274s-10.38-23.272-23.273-23.272zm139.64 0c-12.893 0-23.274 10.378-23.274 23.272s10.38 23.274 23.274 23.274h139.64c12.893 0 23.271-10.38 23.271-23.274s-10.378-23.272-23.271-23.272zm232.73 0c-12.893 0-23.271 10.378-23.271 23.272s10.378 23.274 23.271 23.274h46.547c12.893 0 23.271-10.38 23.271-23.274s-10.378-23.272-23.271-23.272zm-698.18 93.09c-12.893 0-23.272 10.38-23.272 23.273s10.378 23.272 23.272 23.272h46.545c12.893 0 23.273-10.378 23.273-23.272s-10.38-23.273-23.273-23.273zm186.18 0c-12.893 0-23.272 10.38-23.272 23.273s10.378 23.272 23.272 23.272h139.64c12.893 0 23.274-10.378 23.274-23.272s-10.38-23.273-23.274-23.273zm232.73 0c-12.893 0-23.273 10.38-23.273 23.273s10.38 23.272 23.273 23.272h93.09c12.893 0 23.273-10.378 23.273-23.272s-10.38-23.273-23.273-23.273zm186.18 0c-12.893 0-23.273 10.38-23.273 23.273s10.38 23.272 23.273 23.272h186.18c12.893 0 23.271-10.378 23.271-23.272s-10.378-23.273-23.271-23.273zm-605.09 93.092c-12.893 0-23.272 10.378-23.272 23.272s10.378 23.273 23.272 23.273h46.545c12.893 0 23.273-10.38 23.273-23.273s-10.38-23.272-23.273-23.272zm232.73 0c-12.893 0-23.273 10.378-23.273 23.272s10.38 23.273 23.273 23.273h418.91c12.893 0 23.273-10.38 23.273-23.273s-10.38-23.272-23.273-23.272zm488.73 0v46.545h139.64v-46.545zm-721.46 93.09c-12.893 0-23.272 10.38-23.272 23.274s10.378 23.273 23.272 23.273h46.545c12.893 0 23.273-10.38 23.273-23.273s-10.38-23.274-23.273-23.274zm232.73 0c-12.893 0-23.273 10.38-23.273 23.274s10.38 23.273 23.273 23.273h186.18c12.893 0 23.272-10.38 23.272-23.273s-10.378-23.274-23.272-23.274zm279.27 0c-12.893 0-23.272 10.38-23.272 23.274s10.378 23.273 23.272 23.273h279.27c12.893 0 23.271-10.38 23.271-23.273s-10.378-23.274-23.271-23.274zm-512 93.092c-12.893 0-23.272 10.378-23.272 23.272s10.378 23.273 23.272 23.273h46.545c12.893 0 23.273-10.38 23.273-23.273s-10.38-23.272-23.273-23.272zm325.82 0c-12.893 0-23.273 10.378-23.273 23.272s10.38 23.273 23.273 23.273h442.18c12.893 0 23.273-10.38 23.273-23.273s-10.38-23.272-23.273-23.272zm-325.82 93.09c-12.893 0-23.272 10.38-23.272 23.273s10.378 23.273 23.272 23.273h46.545c12.893 0 23.273-10.38 23.273-23.273s-10.38-23.273-23.273-23.273zm186.18 0c-12.893 0-23.272 10.38-23.272 23.273s10.378 23.273 23.272 23.273h46.547c12.893 0 23.272-10.38 23.272-23.273s-10.378-23.273-23.272-23.273zm139.64 0c-12.893 0-23.273 10.38-23.273 23.273s10.38 23.273 23.273 23.273h93.092c12.893 0 23.272-10.38 23.272-23.273s-10.378-23.273-23.272-23.273zm186.18 0c-12.893 0-23.272 10.38-23.272 23.273s10.378 23.273 23.272 23.273h209.46c12.893 0 23.273-10.38 23.273-23.273s-10.38-23.273-23.273-23.273zm-512 93.092c-12.893 0-23.272 10.38-23.272 23.273s10.378 23.272 23.272 23.272h46.545c12.893 0 23.273-10.378 23.273-23.272s-10.38-23.273-23.273-23.273zm186.18 46.545c-12.893 0-23.272 10.38-23.272 23.273s10.378 23.272 23.272 23.272h139.64c12.893 0 23.274-10.378 23.274-23.272s-10.38-23.273-23.274-23.273zm232.73 0c-12.893 0-23.273 10.38-23.273 23.273s10.38 23.272 23.273 23.272h139.63c12.893 0 23.273-10.378 23.273-23.272s-10.38-23.273-23.273-23.273z" fill="#7ac5cd"/>
  <rect x="-1664" y="1152" width="1024" height="1024" rx="23.273" ry="23.273" fill="none"/>
 </g>
</svg>
