<?xml version="1.0" encoding="UTF-8"?>
<!-- Created with Inkscape (http://www.inkscape.org/) -->
<svg width="1024" height="1024" version="1.1" viewBox="0 0 1024 1024" xmlns="http://www.w3.org/2000/svg">
 <defs>
  <clipPath id="clipPath211334">
   <circle cx="-1512" cy="-320" r="88" fill="#2b424d"/>
  </clipPath>
 </defs>
 <g>
  <circle cx="512" cy="512" r="512" fill="#2b424d"/>
  <g transform="matrix(5.8182 0 0 5.8182 9309.1 2373.8)" clip-path="url(#clipPath211334)">
   <rect x="-1584" y="-376" width="16" height="8" rx="4" ry="4" fill="#c4c4c4"/>
   <rect x="-1552" y="-280" width="16" height="8" rx="4" ry="4" fill="#d96270"/>
   <rect x="-1528" y="-280" width="24" height="8" rx="4" ry="4" fill="#d96270"/>
   <rect x="-1496" y="-280" width="44" height="8" rx="4" ry="4" fill="#fce361"/>
   <rect x="-1528" y="-296" width="84" height="8" rx="4" ry="4" fill="#6dcad4"/>
   <rect x="-1544" y="-312" width="40" height="8" rx="4" ry="4" fill="#fce361"/>
   <rect x="-1496" y="-312" width="56" height="8" rx="4" ry="4" fill="#d96270"/>
   <rect x="-1544" y="-328" width="80" height="8" rx="4" ry="4" fill="#6dcad4"/>
   <rect x="-1456" y="-328" width="24" height="8" fill="#d96270"/>
   <rect x="-1552" y="-344" width="32" height="8" rx="4" ry="4" fill="#6dcad4"/>
   <rect x="-1512" y="-344" width="24" height="8" rx="4" ry="4" fill="#d96270"/>
   <rect x="-1480" y="-344" width="40" height="8" rx="4" ry="4" fill="#fce361"/>
   <rect x="-1552" y="-360" width="16" height="8" rx="4" ry="4" fill="#d96270"/>
   <rect x="-1528" y="-360" width="16" height="8" rx="4" ry="4" fill="#fce361"/>
   <rect x="-1504" y="-360" width="32" height="8" rx="4" ry="4" fill="#d96270"/>
   <rect x="-1464" y="-360" width="16" height="8" rx="4" ry="4" fill="#6dcad4"/>
   <rect x="-1552" y="-392" width="24" height="8" rx="4" ry="4" fill="#6dcad4"/>
   <rect x="-1520" y="-392" width="48" height="8" rx="4" ry="4" fill="#fce361"/>
   <rect x="-1552" y="-256" width="32" height="8" rx="4" ry="4" fill="#fce361"/>
   <rect x="-1512" y="-256" width="32" height="8" rx="4" ry="4" fill="#d96270"/>
   <g fill="#c4c4c4">
    <rect x="-1584" y="-360" width="16" height="8" rx="4" ry="4"/>
    <rect x="-1584" y="-344" width="16" height="8" rx="4" ry="4"/>
    <rect x="-1584" y="-328" width="16" height="8" rx="4" ry="4"/>
    <rect x="-1584" y="-312" width="16" height="8" rx="4" ry="4"/>
    <rect x="-1584" y="-296" width="16" height="8" rx="4" ry="4"/>
    <rect x="-1584" y="-280" width="16" height="8" rx="4" ry="4"/>
    <rect x="-1584" y="-264" width="16" height="8" rx="4" ry="4"/>
   </g>
  </g>
 </g>
</svg>
