<?xml version="1.0" encoding="UTF-8" standalone="no"?>
<!-- Created with Inkscape (http://www.inkscape.org/) -->

<svg
   width="1024"
   height="1024"
   viewBox="0 0 1024 1024"
   version="1.1"
   id="svg5"
   xmlns="http://www.w3.org/2000/svg"
   xmlns:svg="http://www.w3.org/2000/svg">
  <defs
     id="defs2">
    <clipPath
       clipPathUnits="userSpaceOnUse"
       id="clipPath19332">
      <circle
         style="fill:#190d4d;fill-opacity:1;stroke-width:4.36364;stroke-linecap:round;stroke-linejoin:round"
         id="circle19334"
         cx="544"
         cy="384"
         r="144" />
    </clipPath>
  </defs>
  <g
     id="layer1">
    <rect
       style="fill:#ffffff;fill-opacity:1;stroke:#e5e5e5;stroke-width:4;stroke-linecap:round;stroke-linejoin:round"
       id="rect1890"
       width="1024"
       height="1024"
       x="2"
       y="2"
       rx="9.2433998e-05"
       ry="0.000124069" />
    <circle
       style="fill:#2c3e66;fill-opacity:1;stroke:none;stroke-width:3.77953;stroke-linejoin:round"
       id="circle1894"
       cx="514"
       cy="770"
       r="127.99999" />
    <path
       style="color:#000000;fill:#2c3e66;fill-opacity:1;stroke-width:0.949745;-inkscape-stroke:none"
       d="m 524.3197,128.0061 c -20.2048,-0.1097 -40.3819,1.2559 -56.6901,4.4676 -73.0415,14.384 -134.9665,52.1812 -163.8423,105.7494 C 293.2448,257.7809 288,276.9651 288,297.42807 c 0,12.84693 3.2838,26.22644 8.53,35.62126 11.1473,19.96195 34.9576,35.0653 59.9177,39.67644 10.2918,1.90191 18.239,2.44805 29.1941,1.40907 16.7119,-1.585 35.444,-6.69516 49.5112,-18.04225 14.0672,-11.34709 22.5711,-25.16751 32.9453,-43.70718 10.3098,-18.42444 12.9368,-21.88139 17.4895,-26.15252 9.8564,-9.24709 18.1599,-12.48709 43.648,-11.34099 26.2201,1.1791 34.5994,6.97981 40.7379,20.67785 1.3747,3.06757 1.2489,1.5736 1.308,13.05885 0.076,15.02429 3.0431,3.5091 -2.7747,14.04321 -5.0225,9.09359 -14.6393,19.32235 -39.1948,36.72847 -27.7298,19.65618 -44.8915,32.16565 -57.7843,43.13679 -12.8927,10.97114 -21.7092,21.2596 -28.6372,31.7766 -12.0673,18.31887 -18.2705,37.88121 -18.4207,58.66976 -0.1019,14.05791 2.6814,26.92526 7.6161,36.60037 10.2583,20.11333 24.7837,34.91682 50.6759,42.0471 v 0 c 18.4817,4.56057 42.0745,6.93139 60.8669,0.0878 22.2727,-8.11111 42.0817,-24.38988 51.5583,-45.15123 6.0373,-13.22692 9.838,-20.72896 12.2596,-24.5734 2.4216,-3.84442 2.9768,-4.39334 7.0044,-7.91212 1.5669,-1.36896 18.7943,-14.03597 31.5452,-22.21676 14.2319,-9.13091 30.5488,-20.02061 39.0163,-26.21232 43.2015,-31.5893 72.4203,-68.27182 80.3387,-108.96238 4.8263,-24.80048 3.0048,-53.49506 -5.0395,-77.61389 C 737.8797,191.8229 670.8246,147.0543 581.1744,132.386 v 0 c -16.4182,-2.6858 -36.65,-4.27 -56.8548,-4.3798 z"
       id="path39283" />
  </g>
</svg>
