<?xml version="1.0" encoding="UTF-8" standalone="no"?>
<!-- Created with Inkscape (http://www.inkscape.org/) -->

<svg
   width="1024"
   height="1024"
   viewBox="0 0 1024 1024"
   version="1.1"
   id="svg5"
   xmlns="http://www.w3.org/2000/svg"
   xmlns:svg="http://www.w3.org/2000/svg">
  <defs
     id="defs2">
    <clipPath
       clipPathUnits="userSpaceOnUse"
       id="clipPath19332">
      <circle
         style="fill:#190d4d;fill-opacity:1;stroke-width:4.36364;stroke-linecap:round;stroke-linejoin:round"
         id="circle19334"
         cx="544"
         cy="384"
         r="144" />
    </clipPath>
  </defs>
  <g
     id="layer1">
    <path
       id="rect434980"
       style="fill:#01575c;fill-opacity:1;stroke-width:25.6"
       d="M 512,0 C 370.176,0 256,57.088 256,128 v 85.33333 H 512 V 256 H 256 128 C 57.088,256 0,370.176 0,512 0,653.824 57.088,768 128,768 h 85.33334 c 0,-64.88875 3.904,-114.28096 13.62559,-153.16673 9.72161,-38.88553 26.04161,-68.03283 50.37441,-87.49993 48.66773,-38.93418 134.41706,-36.66668 230.41706,-36.66668 108.8,0 175.39414,-2.41109 209.68747,-27.81248 C 734.58346,450.15339 746.688,431.5505 755.29173,398.60417 763.89333,365.6578 768,319.11105 768,256 V 128 C 768,57.088 653.824,0 512,0 Z M 371.20854,80.645759 A 47.360003,47.360003 0 0 1 418.56213,128 47.360003,47.360003 0 0 1 371.20854,175.35424 47.360003,47.360003 0 0 1 323.83361,128 47.360003,47.360003 0 0 1 371.20854,80.645759 Z M 810.66666,256 c 0,64.88875 -3.88692,114.3422 -14.08426,153.39583 -10.19734,39.05367 -27.69494,68.45078 -53.74933,87.74999 -52.10667,38.59838 -126.28267,36.18752 -235.08267,36.18752 -96,0 -172.43947,2.26773 -203.77174,27.33332 -15.66505,12.5329 -27.34506,31.38581 -35.62453,64.50007 C 260.07466,658.28076 256,704.88895 256,768 v 128 c 0,70.912 114.176,128 256,128 141.824,0 256,-57.088 256,-128 V 810.66666 H 512 V 768 h 256 128 c 70.912,0 128,-114.176 128,-256 0,-141.824 -57.088,-256 -128,-256 z M 652.79146,848.64575 A 47.360003,47.360003 0 0 1 700.16641,896 47.360003,47.360003 0 0 1 652.79146,943.35425 47.360003,47.360003 0 0 1 605.43787,896 47.360003,47.360003 0 0 1 652.79146,848.64575 Z" />
  </g>
</svg>
