<?xml version="1.0" encoding="UTF-8"?>
<!-- Created with Inkscape (http://www.inkscape.org/) -->
<svg width="1024" height="1024" version="1.1" viewBox="0 0 1024 1024" xmlns="http://www.w3.org/2000/svg">
 <path d="m0 1012c0-19.775 12.606-76.329 24.147-108.33 22.645-62.789 70.765-130.39 113.01-158.76l12.909-8.6687v287.79h-150.07zm229.52-154v-166.03l59.586-20.808 23.201 24.144c28.848 30.02 69.843 54.775 114.6 69.203 29.341 9.4573 41.712 11.068 85.091 11.077 42.998 8e-3 56.211-1.6747 86.415-11.011 49.694-15.361 98.674-47.03 128.37-82.998l9.5188-11.53 25.779 8.9613c14.178 4.9288 28.262 10.815 31.296 13.08 4.2465 3.17 5.5172 41.873 5.5172 168.03v163.91h-569.38zm644.41 22.275c0-166.38-4.3056-156.86 47.137-104.21 33.129 33.907 61.657 80.114 78.785 127.61 11.541 32 24.147 88.555 24.147 108.33v12.028h-150.07zm-406.07-172.96c-10.924-1.9857-36.031-11.136-55.794-20.333-68.048-31.67-124.96-103.07-147-184.43-9.8953-36.527-16.68-104.72-10.759-108.16 2.1429-1.2422 18.793 0.17816 37 3.1567 108.88 17.811 306.7 19.001 419.31 2.5223 32.772-4.7956 60.376-8.728 61.341-8.7386 0.96529-0.0125 0.44403 17.567-1.1577 39.06-6.3974 85.828-38.73 157.31-95.38 210.86-60.834 57.506-131.28 79.927-207.56 66.061zm-99.31-335.48c-42.291-3.4418-131.49-14.162-151.48-18.205-39.968-8.0839-55.676-39.939-29.974-60.788 6.6088-5.3613 15.386-9.7477 19.505-9.7477 5.6792 0 9.2601-7.2914 14.822-30.179 19.813-81.534 79.055-154.88 153.86-190.49 23.207-11.048 26.044-11.562 28.024-5.0783 1.2116 3.9678 7.4942 32.502 13.961 63.409 12.263 58.608 15.687 66.602 28.521 66.602 17.525 0 17.74-8.4678 2.1226-83.451-8.3222-39.956-16.178-76.726-17.458-81.712-4.9426-19.25 5.7481-22.155 81.543-22.155s86.485 2.9045 81.543 22.155c-1.28 4.9856-9.1361 41.756-17.458 81.712-16.04 77.011-15.677 83.451 4.6998 83.451 11.828 0 13.202-3.7417 28.286-77.008 13.975-67.883 9.1494-62.856 43.84-45.664 73.804 36.576 130.29 107.59 149.72 188.22 5.1421 21.337 9.2575 30.195 14.029 30.195 10.314 0 26.458 12.159 30.955 23.314 5.2387 12.995-1.0598 28.43-15.154 37.14-12.48 7.7118-90.955 20.366-165.98 26.765-46.113 3.933-255.18 5.0006-297.93 1.5214z" fill="#3d3d3d" stroke-width="4.2864"/>
</svg>
