<?xml version="1.0" encoding="UTF-8"?>
<!-- Created with Inkscape (http://www.inkscape.org/) -->
<svg width="1024" height="1024" version="1.1" viewBox="0 0 1024 1024" xmlns="http://www.w3.org/2000/svg">
 <g>
  <path d="m42.367 451.69c-12.673 0-24.727 5.5172-33.102 15.152-4.369 5.02-7.5082 10.903-9.2656 17.201l63.543 536.4 899.63 3.5625 60.826-539.31c-1.7558-6.5277-4.9888-12.619-9.5215-17.795-8.4582-9.672-20.604-15.207-33.359-15.207h-938.75zm467.74 190.2a96 96 0 0 1 96 96 96 96 0 0 1-96 96 96 96 0 0 1-96-96 96 96 0 0 1 96-96z" clip-rule="evenodd" fill="#01575c" fill-rule="evenodd" stroke-linejoin="round" stroke-miterlimit="2" stroke-width="7.3378"/>
  <path d="m221.4 433.86c3.5852-0.46824 9.4547-0.46824 13.04 0 3.5868 0.46825 0.65453 0.85214-6.5191 0.85214-7.1737 0-10.109-0.38389-6.5208-0.85214zm22.472-18.798c-7.5746-20.962-38.806-120.36-41.2-131.13-2.5772-11.593-2.5756-13.933 0-19.185 3.8781-7.8891 23.131-26.489 42.651-41.205 24.373-18.373 23.375-17.28 21.82-23.923-2.3007-9.8304-10.96-23.652-16.736-26.712-9.5807-5.076-15.627-5.5859-27.536-2.3226-24.447 6.6988-59.16 31.963-59.16 43.056 0 2.3874-0.89998 4.3407-2.0061 4.3407-1.1127 0-2.0078-0.40627-2.0078-0.90206s-0.94907-8.1721-2.1338-17.057c-3.9583-29.928 2.9748-57.028 18.689-73.073 9.2125-9.4056 45.483-28.869 69.588-37.343 9.3075-3.272 17.836-7.4721 18.952-9.3334 5.2363-8.7336-9.4776-22.687-23.936-22.702-20.893-0.01446-15.838-20.74 8.126-33.315 19.481-10.223 34.908-13.571 67.77-14.707 36.097-1.2481 53.286 0.95715 80.699 10.346 21.492 7.3614 57.159 25.102 75.049 37.328 7.0673 4.8305 13.976 8.7827 15.352 8.7827 3.5034 0 6.9086-11.442 6.9086-23.217 0-11.947-6.7548-22.944-21.449-34.921l-9.6494-7.867 9.7967 1.3393c20.95 2.8635 68.788 26.798 93.529 46.796 26.52 21.435 51.032 55.455 62.105 86.198l2.1829 6.0595 5.8401-8.4806c13.066-18.977 31.953-27.861 62.771-29.528 12.86-0.69548 22.725-0.1205 28.858 1.6888 10.047 2.9594 24.835 15.904 24.835 21.741 0 1.9083-6.7711 13.939-15.048 26.735-8.2766 12.796-15.025 23.967-14.995 24.825 0 0.8573 4.7683 4.8462 10.533 8.8626 23.167 16.142 47.269 36.252 59.379 49.544 12.526 13.75 12.757 14.211 11.449 22.919-1.6478 10.975-40.777 135.1-43.981 139.52-2.0389 2.809-4.1628 2.4264-17.389-3.1326l-15.069-6.3325-8.5089-24.7c-11.255-32.681-14.447-49.623-14.488-76.941v-22.691h-8.3044c-19.343 0-82.185 13.681-117.53 25.586-48.825 16.446-69.258 17.665-139.54 8.3208-77.485-10.302-89.404-11.197-100.97-7.5837-13.022 4.0682-27.747 14.415-32.586 22.896-2.106 3.694-5.2854 15.265-7.0624 25.713-3.7898 22.285-11.34 43.899-20.117 57.6-6.3081 9.8499-11.976 14.326-25.867 20.432-7.5271 3.3092-7.5582 3.3022-9.5889-2.3168z" stroke-width="2.0579"/>
 </g>
</svg>
