<?xml version="1.0" encoding="UTF-8" standalone="no"?>
<!-- Created with Inkscape (http://www.inkscape.org/) -->

<svg
   width="1024"
   height="1024"
   viewBox="0 0 1024 1024"
   version="1.1"
   id="svg5"
   xmlns="http://www.w3.org/2000/svg"
   xmlns:svg="http://www.w3.org/2000/svg">
  <defs
     id="defs2">
    <clipPath
       clipPathUnits="userSpaceOnUse"
       id="clipPath19332">
      <circle
         style="fill:#190d4d;fill-opacity:1;stroke-width:4.36364;stroke-linecap:round;stroke-linejoin:round"
         id="circle19334"
         cx="544"
         cy="384"
         r="144" />
    </clipPath>
  </defs>
  <g
     id="layer1">
    <path
       id="rect1169"
       style="fill:#01575c;fill-opacity:1;stroke:none;stroke-width:10;stroke-linecap:round;stroke-linejoin:round;stroke-miterlimit:4;stroke-dasharray:none;stroke-opacity:1"
       d="M 512,0 C 495.64038,0 479.28168,6.2671458 466.74609,18.802734 L 20.259766,465.28906 C 7.8051592,476.95148 0,493.51236 0,512 v 448 c 0,35.456 28.544,64 64,64 h 448 448 c 35.456,0 64,-28.544 64,-64 V 512 c 0,-18.48764 -7.8052,-35.04852 -20.2598,-46.71094 L 557.25586,18.802734 C 544.72027,6.2671458 528.35962,0 512,0 Z" />
    <path
       id="path4923"
       style="fill:#fefefe;fill-opacity:1;stroke:none;stroke-width:50;stroke-linecap:round;stroke-linejoin:round"
       d="M 192,160 V 608 L 512,864 832,608 V 160 Z" />
    <path
       id="rect3093"
       style="fill:none;stroke:#01575c;stroke-width:64;stroke-linecap:round;stroke-linejoin:round;stroke-miterlimit:4;stroke-dasharray:none;stroke-opacity:1"
       d="M 832,608 V 160 H 192 v 448" />
    <path
       id="path2609"
       style="color:#000000;fill:#fdfdfd;-inkscape-stroke:none"
       d="m 25.810547,459.73828 -5.550781,5.55078 C 7.8051588,476.95148 0,493.51236 0,512 v 9.23242 L 236.5,713.38867 1.7089844,974.26758 c 5.111278,22.53283 22.0571776,40.24052 43.9999996,46.77932 L 286.23438,753.79688 491.82031,920.83594 a 32.0032,32.0032 0 0 0 40.35938,0 l 205.58593,-167.03906 240.5254,267.25002 c 21.94278,-6.5388 38.88868,-24.24649 43.99998,-46.77932 L 787.5,713.38867 1024,521.23242 V 512 c 0,-18.48764 -7.8052,-35.04852 -20.2598,-46.71094 L 998.18945,459.73828 512,854.76953 Z" />
    <g
       aria-label="@"
       transform="scale(1.0078874,0.99217431)"
       id="text9979"
       style="font-size:441.333px;line-height:1.25;fill:#01575c;stroke:#01575c;stroke-width:10">
      <path
         d="m 467.48025,484.43226 q 0,26.50584 11.20572,41.80595 11.42121,15.30012 30.81573,15.30012 19.17902,0 30.60024,-15.30012 11.42121,-15.51561 11.42121,-41.80595 0,-26.07486 -11.63671,-41.15948 -11.42121,-15.30012 -30.81573,-15.30012 -18.96353,0 -30.38474,15.30012 -11.20572,15.08462 -11.20572,41.15948 z m 88.35279,64.86388 q -6.46483,15.30012 -20.90297,23.9199 -14.22265,8.40429 -33.40167,8.40429 -37.06508,0 -60.3385,-26.72133 -23.05793,-26.93683 -23.05793,-70.03576 0,-43.09892 23.27342,-70.03575 23.27342,-26.93683 60.12301,-26.93683 19.17902,0 33.40167,8.61979 14.43814,8.61978 20.90297,23.9199 v -28.2298 h 45.03838 v 149.33778 q 26.72134,-4.0944 42.02146,-25.64386 15.30012,-21.76496 15.30012,-55.59761 0,-21.54947 -6.24935,-40.2975 -6.24934,-18.96353 -18.96353,-34.69464 -20.47199,-26.29034 -51.28772,-40.51299 -30.60024,-14.22264 -66.37235,-14.22264 -24.99737,0 -47.8398,6.68033 -22.84244,6.46484 -42.23695,19.17902 -31.89321,21.11848 -49.77926,54.73564 -17.67056,33.40167 -17.67056,72.4062 0,32.1087 11.42121,60.33849 11.63671,28.01431 33.40167,49.56377 21.54946,21.11847 49.34827,32.1087 28.0143,11.20572 59.69201,11.20572 27.15233,0 54.30465,-10.12825 27.15233,-10.12824 46.33135,-27.36782 l 23.05792,34.91014 q -26.93683,20.90297 -58.83003,31.8932 -31.67771,11.20572 -64.4329,11.20572 -39.8665,0 -75.20762,-14.22264 -35.34112,-14.00716 -62.92444,-40.94398 -27.58331,-26.93683 -42.02145,-62.27795 -14.43814,-35.55662 -14.43814,-76.2851 0,-39.22003 14.65364,-74.77664 14.65363,-35.55662 41.80595,-62.49344 27.15233,-26.72134 63.13993,-41.37497 36.2031,-14.65364 74.99213,-14.65364 48.2708,0 87.70632,18.53254 39.43552,18.31704 65.94136,53.01168 16.16209,21.11847 24.35089,45.90036 8.40429,24.56638 8.40429,51.71871 0,58.39904 -35.12562,90.72324 -35.12563,32.32419 -99.12753,32.32419 h -8.4043 z"
         style="font-weight:bold;-inkscape-font-specification:'sans-serif Bold'"
         id="path15409" />
    </g>
  </g>
</svg>
