<?xml version="1.0" encoding="UTF-8" standalone="no"?>
<!-- Created with Inkscape (http://www.inkscape.org/) -->

<svg
   width="1024"
   height="1024"
   viewBox="0 0 1024 1024"
   version="1.1"
   id="svg5"
   xmlns="http://www.w3.org/2000/svg"
   xmlns:svg="http://www.w3.org/2000/svg">
  <defs
     id="defs2">
    <clipPath
       clipPathUnits="userSpaceOnUse"
       id="clipPath19332">
      <circle
         style="fill:#190d4d;fill-opacity:1;stroke-width:4.36364;stroke-linecap:round;stroke-linejoin:round"
         id="circle19334"
         cx="544"
         cy="384"
         r="144" />
    </clipPath>
  </defs>
  <g
     id="layer1">
    <rect
       style="fill:#fffdfc;fill-opacity:1;stroke:none;stroke-width:4;stroke-linecap:round;stroke-linejoin:round;stroke-opacity:1"
       id="rect42935"
       width="1024"
       height="1024"
       x="0"
       y="0"
       rx="9.2433998e-05"
       ry="0.000124069" />
    <path
       id="rect43240"
       style="color:#000000;fill:#2c3e66;fill-opacity:1;stroke-width:0.949074;stroke-linecap:round;stroke-linejoin:round;-inkscape-stroke:none"
       d="m 757.3163,134.3145 c -5.3179,-5.3612 -12.53,-8.373 -20.0501,-8.3733 -7.5201,3e-4 -14.7322,3.0121 -20.0501,8.3733 l -64.1602,64.6914 168.4206,169.81474 64.1603,-64.69134 c 5.3172,-5.3619 8.3044,-12.63368 8.3046,-20.21604 -2e-4,-7.58236 -2.9874,-14.85416 -8.3046,-20.21606 z M 610.2824,242.1334 289.4811,565.59013 c -4.6901,4.72931 -7.5876,10.96665 -8.1885,17.62716 -0.7617,8.45009 2.2382,16.80483 8.1885,22.80492 l 128.3205,129.38268 c 5.9508,5.99948 14.237,9.02421 22.6177,8.25622 6.6058,-0.60581 12.792,-3.52731 17.4824,-8.25622 L 778.703,411.9482 Z" />
    <path
       style="fill:none;stroke:#2c3e66;stroke-width:56.9444;stroke-linecap:round;stroke-linejoin:round;stroke-miterlimit:4;stroke-dasharray:none;stroke-opacity:1"
       d="M 309.5312,585.80617 159.8239,866.1353 437.8517,715.18885 Z"
       id="path43871" />
    <path
       style="fill:none;stroke:#2c3e66;stroke-width:60;stroke-linecap:round;stroke-linejoin:miter;stroke-miterlimit:4;stroke-dasharray:none;stroke-opacity:1"
       d="M 446,862 H 862"
       id="path45368" />
    <path
       style="fill:none;stroke:#2c3e66;stroke-width:60;stroke-linecap:round;stroke-linejoin:miter;stroke-miterlimit:4;stroke-dasharray:none;stroke-opacity:1"
       d="M 702,702 H 862"
       id="path46090" />
  </g>
</svg>
