<?xml version="1.0" encoding="UTF-8" standalone="no"?>
<!-- Created with Inkscape (http://www.inkscape.org/) -->

<svg
   width="1024"
   height="1024"
   viewBox="0 0 1024 1024"
   version="1.1"
   id="svg5"
   xmlns="http://www.w3.org/2000/svg"
   xmlns:svg="http://www.w3.org/2000/svg">
  <defs
     id="defs2">
    <clipPath
       clipPathUnits="userSpaceOnUse"
       id="clipPath19332">
      <circle
         style="fill:#190d4d;fill-opacity:1;stroke-width:4.36364;stroke-linecap:round;stroke-linejoin:round"
         id="circle19334"
         cx="544"
         cy="384"
         r="144" />
    </clipPath>
  </defs>
  <g
     id="layer1">
    <rect
       style="fill:#ffffff;fill-opacity:1;stroke:#e5e5e5;stroke-width:4;stroke-linecap:round;stroke-linejoin:round"
       id="rect46386"
       width="1024"
       height="1024"
       x="2"
       y="2"
       rx="9.2433998e-05"
       ry="0.000124069" />
    <path
       style="fill:#2c3e66;fill-opacity:1;stroke-width:3.20712"
       d="m 613.1584,578.94201 c -18.8924,-3.68627 -28.9642,-8.09525 -42.3498,-18.53896 -16.5077,-12.87956 -24.9849,-28.36609 -28.8692,-52.7394 -5.1809,-32.50818 -16.6373,-42.75757 -52.1701,-46.67339 -50.005,-5.51073 -80.4933,-34.7424 -80.6671,-77.34204 -0.1018,-25.36826 11.5106,-45.40693 36.5472,-63.05609 76.5909,-53.99243 174.8406,-49.84633 242.4479,10.23072 56.6898,50.3757 69.9808,118.90653 35.4888,182.98699 -26.0995,48.48829 -68.2659,73.35878 -110.4277,65.13217 z"
       id="path57306" />
    <path
       id="path57304"
       style="fill:#2c3e66;fill-opacity:1;stroke:#2c3e66;stroke-width:20.5259;stroke-miterlimit:4;stroke-dasharray:none;stroke-opacity:1"
       d="m 636.8129,793.94416 c 37.1083,-8.81896 76.3623,-18.29863 87.2307,-21.06592 l 19.7609,-5.03143 0.2925,-62.34384 c 0.3281,-70.17527 5.4825,-93.94154 31.7392,-146.31001 7.8365,-15.62961 19.5512,-41.62869 26.0332,-57.77573 48.2282,-120.13876 -28.955,-253.99533 -168.1911,-291.68883 -62.571,-16.9393 -128.0267,-12.0099 -188.2622,14.1769 -45.1743,19.639 -94.0672,62.55786 -115.5367,101.4187 -16.9123,30.61182 -26.6011,63.85718 -26.6838,91.5591 -0.06,19.2034 -0.9414,20.71486 -48.0743,82.18668 -37.8206,49.32645 -47.1719,63.81531 -44.0405,68.23651 3.1787,4.48832 12.7996,5.81202 48.0158,6.60606 l 44.0407,0.99301 v 59.7632 c 0,64.6446 1.5196,70.63257 22.3721,88.16488 18.5824,15.62326 27.9597,16.90539 123.6471,16.90539 h 90.174 l 4.5789,16.68194 c 10.2486,37.3363 16.5752,53.55784 20.8881,53.55784 2.5014,0 34.909,-7.21552 72.0174,-16.03445 z m -138.3916,52.20449 -12.0981,-41.43803 -72.8211,-2.05838 c -80.8653,-2.28578 -95.6434,-5.34865 -125.484,-26.00796 -37.8754,-26.22174 -52.2251,-52.77266 -55.0603,-101.87726 -1.1526,-19.96204 -3.9301,-36.23351 -6.4349,-37.70012 -2.4244,-1.41912 -9.3866,-2.60442 -15.4725,-2.63399 -20.6965,-0.10047 -52.8791,-19.59901 -63.8513,-38.68565 -8.279,-14.40196 -10.6724,-34.09049 -6.0132,-49.46651 2.4084,-7.94784 23.2491,-39.15562 46.3125,-69.35059 41.3685,-54.15999 42.0052,-55.30311 47.2374,-84.81502 12.7953,-72.16552 43.2015,-125.33234 98.5764,-172.36624 32.473,-27.5818 56.7527,-42.7143 89.624,-55.8589 161.8757,-64.7302 350.1309,-5.1362 429.5114,135.96567 23.7704,42.25254 33.0776,78.84419 32.8297,129.0721 -0.249,50.16753 -8.1925,80.54643 -34.3288,131.26032 -41.276,80.09077 -49.1794,142.93441 -27.9863,222.52663 3.9795,14.94456 6.471,27.84769 5.5369,28.67363 -1.406,1.24304 -275.9182,67.26672 -308.0463,74.08899 -9.7176,2.06351 -10.1957,1.20939 -22.0315,-39.32869 z" />
  </g>
</svg>
