<?xml version="1.0" encoding="UTF-8" standalone="no"?>
<!-- Created with Inkscape (http://www.inkscape.org/) -->

<svg
   width="1024"
   height="1024"
   viewBox="0 0 1024 1024"
   version="1.1"
   id="svg5"
   xmlns="http://www.w3.org/2000/svg"
   xmlns:svg="http://www.w3.org/2000/svg">
  <defs
     id="defs2">
    <clipPath
       clipPathUnits="userSpaceOnUse"
       id="clipPath19332">
      <circle
         style="fill:#190d4d;fill-opacity:1;stroke-width:4.36364;stroke-linecap:round;stroke-linejoin:round"
         id="circle19334"
         cx="544"
         cy="384"
         r="144" />
    </clipPath>
  </defs>
  <g
     id="layer1">
    <path
       id="ellipse7364"
       style="fill:#85f2cb;fill-opacity:1;stroke-width:15.5142;stroke-linecap:round;stroke-linejoin:round"
       d="M 532 0.4921875 L 532 0.91601562 C 534.29341 1.0309407 536.33607 1.0906174 538.70117 1.2265625 A 511.96442 511.97119 0 0 0 532 0.4921875 z M 485.66016 2.1210938 A 511.96442 511.97119 0 0 0 351.04688 26.958984 C 338.74173 42.146904 326.86053 59.058495 315.54297 77.800781 C 325.0898 73.568767 333.82065 69.212823 336.41797 66.861328 C 338.69956 64.795228 341.018 63.643028 343.25 63.423828 C 343.994 63.351128 344.72922 63.380125 345.44922 63.515625 C 346.40922 63.696125 347.35045 64.060134 348.24805 64.615234 C 351.30192 66.503334 358.68487 67.0701 364.6582 65.875 C 374.13927 63.9779 375.51758 64.890209 375.51758 73.037109 C 375.51758 92.309109 354.72825 108.96476 318.50586 118.72266 C 302.12719 123.13476 280.66631 143.18182 283.43164 151.48242 C 284.21244 153.82512 289.08927 156.75088 294.26953 157.98438 C 301.29033 159.65608 303.73333 162.89682 303.86133 170.69922 C 304.26186 194.87622 320.26644 194.14239 332.89844 169.37109 C 344.42751 146.76249 373.02883 119.05664 384.83789 119.05664 C 397.22295 119.05664 410.47509 135.94285 410.40039 151.62695 C 410.33918 164.59856 406.31237 174.35304 396.36133 184.17578 C 427.76305 181.02617 459.70846 179.1021 492 178.55469 L 492 36.951172 C 490.78213 35.265607 489.77352 33.751337 488.09375 31.636719 C 473.84825 13.703412 472.78608 5.8841048 485.66016 2.1210938 z M 617.36523 11.947266 C 618.81807 13.644304 619.01574 15.922409 617.99023 19.513672 C 616.69316 24.055772 614.90469 30.436306 614.01562 33.691406 C 611.90949 41.404706 570.34251 78.163331 542.76172 96.707031 C 538.51209 99.564266 535.32062 101.40935 532 103.36914 L 532 178.55469 C 598.17002 179.68036 662.92755 186.45636 724.27344 198.30859 C 726.71909 196.55067 729.01486 194.70987 730.83008 192.81445 C 738.37481 184.93609 746.71843 181.12647 757.12891 181.16406 C 751.9593 167.13698 746.39442 153.63196 740.58594 140.47656 C 733.50027 137.61809 727.38891 134.80195 725.31641 132.72852 C 720.70788 128.11812 720.27423 125.07903 723.49023 119.95312 C 724.0678 119.03259 726.61339 117.05188 728.7793 115.27734 C 726.46842 110.62561 724.21566 105.88162 721.81836 101.37109 C 706.35524 72.277218 689.52136 47.363807 671.88477 25.779297 A 511.96442 511.97119 0 0 0 617.36523 11.947266 z M 671.89062 25.78125 A 511.96442 511.97119 0 0 1 740.84961 54.183594 A 511.96442 511.97119 0 0 0 671.89062 25.78125 z M 405.41211 37.486328 C 416.26491 37.486328 418.22656 38.882256 418.22656 46.597656 C 418.22656 51.607556 421.72126 58.867475 425.99219 62.734375 C 436.39912 72.156275 435.84668 88.551937 424.77148 98.960938 C 414.72722 108.40094 415.62957 108.20834 403.66797 103.39844 C 393.62851 99.361337 392.38322 88.954969 400.63281 78.042969 C 409.28028 66.605169 407.75369 60.794566 394.92969 56.322266 C 388.52329 54.087966 383.2832 51.033303 383.2832 49.533203 C 383.2832 43.070903 393.54332 37.486328 405.41211 37.486328 z M 740.85742 54.189453 C 746.43366 63.362951 751.90697 72.750516 757.14062 82.597656 C 758.89384 85.896331 760.478 89.420384 762.18555 92.78125 C 769.38743 88.477481 776.37991 84.502312 781.97266 81.798828 C 782.47772 81.554428 783.12759 81.453094 783.90625 81.496094 L 783.9082 81.496094 C 786.97562 81.656499 792.17209 84.071532 798.72656 88.082031 A 511.96442 511.97119 0 0 0 740.85742 54.189453 z M 282.20117 55.595703 A 511.96442 511.97119 0 0 0 53.886719 285.33398 C 55.064324 284.65384 56.305744 284.00682 57.490234 283.33008 C 58.860527 280.53169 60.37641 276.849 61.669922 274.43164 C 86.245392 228.50444 108.48537 197.22142 142.11523 161.26172 C 177.86882 123.03112 200.56625 110.51438 236.13477 109.42188 C 243.46523 109.1967 249.41336 108.43192 254.6543 107.08594 C 258.60583 98.800384 262.5711 90.530092 266.78711 82.597656 C 271.75087 73.258336 276.92877 64.329733 282.20117 55.595703 z M 633.06445 84.628906 C 641.92738 84.398806 645.20944 92.919997 639.70117 103.2168 C 634.55451 112.8368 620.87909 113.88944 617.44336 104.93164 C 614.14736 96.339041 621.0104 86.314422 631.22266 84.794922 C 631.86213 84.700022 632.47352 84.644906 633.06445 84.628906 z M 800.24609 115.77344 C 797.72365 116.01484 794.7226 117.04966 791.26953 118.89844 C 785.60393 121.93214 783.20117 127.0329 783.20117 136.0293 C 783.20117 136.76045 783.09038 137.32038 783.07031 138.03906 C 789.23199 152.78706 795.13801 167.83032 800.52734 183.43164 C 800.94893 183.16363 801.26765 183.04142 801.71289 182.74609 C 807.54862 178.87509 815.82777 176.14082 820.10938 176.66992 C 824.39097 177.19892 831.22523 175.18888 835.29883 172.20898 C 845.02203 165.09628 840.75483 154.01562 828.29297 154.01562 C 810.27804 154.01562 807.1466 150.7788 809.3418 134.4043 C 811.07739 121.45825 807.81342 115.04923 800.24609 115.77344 z M 844.04297 123.15039 C 851.32553 129.56258 858.70503 136.60724 866.14453 143.8125 A 511.96442 511.97119 0 0 0 844.04297 123.15039 z M 692.58789 131.36914 C 696.34096 131.48284 699.49992 134.75544 701.99805 141.11914 C 704.36392 147.14644 708.83457 157.39644 711.93164 163.90234 C 715.01804 170.40814 716.41686 178.70946 715.01953 182.35156 C 712.06326 190.05976 696.66379 191.18794 690.88086 184.11914 C 688.69633 181.44864 686.29496 168.82867 685.54883 156.07227 C 684.40376 136.49597 685.24221 132.66177 690.94141 131.51367 C 691.50141 131.40167 692.05189 131.35509 692.58789 131.37109 L 692.58789 131.36914 z M 669.58594 159.32031 C 669.85048 159.32351 670.11156 159.36341 670.35156 159.44141 C 670.90143 159.62051 671.37223 160.0049 671.74023 160.625 C 672.7477 162.331 672.08553 167.6599 670.26953 172.4668 C 666.2642 183.0696 658.95508 184.00672 658.95508 173.91602 C 658.95508 167.35042 665.58541 159.27231 669.58594 159.32031 z M 881.93359 159.70117 C 890.90589 169.07552 899.42532 178.65498 907.51953 188.42578 A 511.96442 511.97119 0 0 0 881.93359 159.70117 z M 492 218.55859 C 449.32934 219.32016 407.27309 222.54215 366.48047 227.98633 C 364.19883 236.11301 356.44379 239.47266 341.48242 239.47266 C 322.76616 239.47266 318.38019 242.95006 272.625 294.00586 C 264.08313 303.53746 247.20447 319.59532 235.11914 329.69922 C 231.44784 332.76855 228.32094 335.62015 225.45312 338.4082 C 217.68346 383.73649 212.8704 431.02153 211.08984 479.20117 C 213.1003 479.04045 214.24031 479.00348 216.57617 478.80859 C 245.9447 476.3583 249.42222 476.86933 264.99609 486 C 269.33059 488.54125 273.71129 490.44119 278.11133 492 L 492 492 L 492 218.55859 z M 532 218.56055 L 532 492 L 634.17578 492 C 632.92169 490.75419 631.52249 489.26386 630.34375 488.11719 L 611.44531 469.72656 L 613.06836 429.37305 C 615.53982 368.12554 625.26414 354.99931 692.61133 321.99219 C 756.02679 290.91209 779.78178 290.41782 793.92578 319.89062 C 794.36472 320.80535 795.01313 321.80168 795.55469 322.76172 C 791.76123 302.5677 787.40533 282.80061 782.49609 263.52539 C 770.52644 251.84059 751.41653 254.54374 736.83594 273.08789 C 717.37995 297.83279 686.36405 305.73615 670.60352 289.96875 C 654.35979 273.71825 665.58276 247.24023 688.71289 247.24023 C 698.83528 247.24023 701.87814 242.51277 698.36133 234.33008 C 645.05014 225.03293 589.08843 219.58302 532 218.56055 z M 931.39062 219.67383 C 934.67393 224.33448 938.00907 228.96893 941.11523 233.72266 A 511.96442 511.97119 0 0 0 931.39062 219.67383 z M 824.37305 265.16797 C 830.65717 291.20826 835.94803 318.02564 840.25195 345.41406 C 841.64478 345.13696 842.5247 345.02385 844.11914 344.69141 C 864.24824 340.49424 869.35428 340.85594 891.45508 348 C 905.08008 352.40421 920.96637 356.00391 926.76367 356.00391 C 945.06507 356.00391 957.32215 333.64346 945.50195 321.81836 C 942.93925 319.25466 932.47545 317.16016 922.25195 317.16016 C 904.75175 317.16016 903.08689 316.24225 893.74609 301.43945 C 889.2149 294.25854 885.32771 289.31138 881.83789 286.41406 C 879.40754 285.39893 876.88117 284.4553 874.42188 283.46094 C 871.5533 283.69812 868.87607 285.65422 866.21094 289.46094 C 859.18634 299.49384 844.86282 300.20615 836.55078 290.93945 C 833.19772 287.20075 829.23658 277.15107 827.74805 268.60547 C 827.59253 267.71242 827.29494 266.99038 827.11719 266.11914 C 826.18894 265.81356 825.30436 265.4709 824.37305 265.16797 z M 967.11328 278.87695 C 968.22896 281.06985 969.28184 283.30134 970.36523 285.51367 C 970.63882 285.67206 970.92998 285.82186 971.20312 285.98047 A 511.96442 511.97119 0 0 0 967.11328 278.87695 z M 176.81055 344.50195 C 173.98762 344.5835 154.21918 353.76002 132.87891 364.89453 C 91.405856 386.53346 81.190462 397.41722 85.664062 415.24805 C 89.641663 431.10319 101.44523 432.25178 118.2207 418.41797 C 139.74496 400.66858 155.99258 404.32995 151.66992 425.95117 C 149.23228 438.14578 156.5988 453.57291 171.44531 468.35352 C 172.74368 439.22928 175.14025 410.45464 178.58984 382.1875 C 178.10208 378.25229 178.38378 372.80651 179.36523 364.94727 C 181.3407 349.13121 180.75189 344.38835 176.81055 344.50195 z M 31.132812 347.73438 C 29.816322 348.69795 28.417911 349.63967 27.125 350.60938 A 511.96442 511.97119 0 0 0 1.4277344 492 L 148.90234 492 C 148.86921 491.96428 148.82993 491.93808 148.79688 491.90234 C 132.39582 474.16826 121.02928 467.75699 94.46875 461.25977 C 69.23195 455.08654 48.490147 444.1513 29.554688 427.03711 C 14.853348 413.74949 14.11673 412.04926 16.625 397.09961 C 18.48934 385.98725 24.253471 367.3762 31.132812 347.73438 z M 996.7168 350.61133 C 998.40955 355.79486 1000.1678 360.93369 1001.7168 366.21875 A 511.96442 511.97119 0 0 0 997.97461 351.51953 C 997.56916 351.21309 997.12457 350.91717 996.7168 350.61133 z M 956.21094 380.10547 C 946.28614 381.52579 947.17746 396.35403 958.66016 420.79297 C 965.64686 435.6624 974.26197 444.74488 1011.9473 476.94141 C 1018.3121 482.37919 1021.1491 486.08783 1022.5605 492 L 1023.4395 492 A 511.96442 511.97119 0 0 0 1018.6875 448.74023 C 1018.1137 449.16798 1017.3074 449.22852 1016.2109 449.22852 C 1014.1021 449.22852 1006.3131 437.17251 998.89648 422.43945 C 984.35998 393.56062 968.95444 378.28179 956.21094 380.10547 z M 1012.6758 409.27734 C 1014.201 416.46056 1015.2159 421.35039 1016.209 426.16992 A 511.96442 511.97119 0 0 0 1012.6758 409.27734 z M 1023.5254 495.50586 A 511.96442 511.97119 0 0 1 1023.5605 496.97852 C 1023.5606 496.97942 1023.5624 496.97956 1023.5625 496.98047 A 511.96442 511.97119 0 0 0 1023.5254 495.50586 z M 1023.8887 510.29688 C 1023.8886 510.3088 1023.8868 510.31621 1023.8867 510.32812 A 511.96442 511.97119 0 0 1 1023.9277 511.9707 A 511.96442 511.97119 0 0 1 1023.7598 514.31055 C 1023.7578 514.38062 1023.756 514.44993 1023.7539 514.51953 A 511.96442 511.97119 0 0 0 1023.9297 511.9707 A 511.96442 511.97119 0 0 0 1023.8887 510.29688 z M 1023.2129 522.37109 C 1023.2003 522.47187 1023.1772 522.55096 1023.1641 522.65039 A 511.96442 511.97119 0 0 1 1022.4961 532 L 1020.3496 532 C 1019.0676 534.23597 1017.5004 536.25555 1015.1934 538.19531 C 1010.3886 542.23526 1001.2155 549.94055 994.80859 555.3125 C 983.38239 564.89394 983.14638 565.83232 982.39648 604.70117 C 981.54318 648.91935 979.19797 653.90196 952.91797 667.32031 C 944.61877 671.5578 936.41176 679.42602 934.09766 685.36133 C 925.52808 707.33857 910.49353 729.89341 893.16992 748.69141 C 906.74059 742.72359 919.97595 736.52679 932.50391 729.89648 C 945.31981 723.11377 957.13429 716.00602 968.48828 708.76172 C 964.4246 703.62113 964.83511 692.03323 972.91602 684.7168 C 976.89142 681.11771 983.22323 671.33695 986.99023 662.98047 C 991.47983 653.0194 1000.573 643.30756 1003.4844 643.42969 L 1003.4844 643.42773 C 1003.5804 643.43303 1003.67 643.44986 1003.75 643.47656 C 1004.6092 643.74019 1004.7006 645.20028 1003.5742 648.25586 C 1002.5817 650.95052 997.9208 664.82104 993.2168 679.08008 C 991.05603 685.63059 988.64886 691.74431 986.41602 696.89258 C 987.04716 696.44785 987.76837 696.0281 988.39453 695.58203 A 511.96442 511.97119 0 0 0 1023.2129 522.37109 z M 988.39453 695.58203 A 511.96442 511.97119 0 0 1 988.14258 696.33398 A 511.96442 511.97119 0 0 0 988.54102 695.48633 C 988.49488 695.51922 988.4407 695.54914 988.39453 695.58203 z M 988.14258 696.33398 A 511.96442 511.97119 0 0 1 957.36328 761.82812 A 511.96442 511.97119 0 0 0 988.14258 696.33398 z M 957.36328 761.82812 C 955.29078 762.95677 953.31744 764.13722 951.21484 765.25 C 909.34434 787.40961 862.42821 805.93335 812.07422 820.70703 C 797.38377 870.18112 779.04212 916.30403 757.14062 957.51172 C 756.50846 958.70117 755.83461 959.8105 755.19727 960.99023 A 511.96442 511.97119 0 0 0 957.36328 761.82812 z M 1.4316406 532 A 511.96442 511.97119 0 0 0 35.388672 695.48828 C 52.228172 707.49412 70.867508 719.01724 91.423828 729.89648 C 124.07612 747.17742 160.47354 762.22959 199.55469 774.94141 C 181.22519 698.9873 171.22952 616.52094 170.36523 532 L 1.4316406 532 z M 382.70703 532 C 390.98459 539.95048 397.98121 548.73693 402.76562 558.11914 C 413.57096 579.30927 419.55056 583.9168 440.31055 587.03125 C 468.61295 591.27728 479.35065 598.41219 484.80078 616.61133 C 491.81144 640.01997 484.45691 662.04356 454.98438 705.92969 C 426.51666 748.31988 418.0976 768.7293 419.14453 792.79688 C 419.65072 804.43236 417.52259 812.49627 412.86523 817.20312 C 438.91517 819.5364 465.31584 821.07454 492 821.55078 L 492 532 L 382.70703 532 z M 532 532 L 532 821.54883 C 618.94043 819.9917 703.39934 808.34999 779.59375 788.11328 C 783.82509 772.368 787.57709 756.17835 791.05273 739.76953 C 791.0465 721.57549 794.70208 700.59565 802.04492 678.32617 C 805.24382 656.60888 807.79209 634.51947 809.66797 612.125 C 806.3677 605.01639 801.21465 597.63247 793.49414 587.99414 C 784.07921 576.24102 781.40066 568.65966 780.03906 549.82617 C 779.3995 540.98007 778.7069 535.88951 777.53906 532 L 700.72656 532 C 689.20636 534.97515 681.6089 534.95434 675.13086 532 L 532 532 z M 216.63867 637.52734 C 222.2861 690.00974 231.59259 740.70118 244.33398 788.11328 C 260.73392 792.46896 277.58334 796.34415 294.69141 799.88867 C 286.96404 786.98505 284.22593 777.43576 281.6875 756.97266 C 279.63951 740.46541 277.09258 721.13946 276.03125 714.03125 C 274.61525 704.54901 266.35393 693.17183 245.01367 671.30469 C 233.86782 659.88363 224.38352 648.42364 216.63867 637.52734 z M 66.566406 761.83203 A 511.96442 511.97119 0 0 0 268.73047 960.99023 C 268.09315 959.81043 267.41929 958.70117 266.78711 957.51172 C 244.88562 916.30403 226.54398 870.18112 211.85352 820.70703 C 161.49923 805.93335 114.58344 787.40961 72.712891 765.25 C 70.611384 764.13779 68.63779 762.96011 66.566406 761.83203 z M 257.66602 832.85547 C 270.2535 871.08704 285.09587 906.72734 302.10938 938.73828 C 312.26639 957.84874 323.10906 974.83721 334.25586 990.71875 A 511.96442 511.97119 0 0 0 334.25781 990.7207 A 511.96442 511.97119 0 0 0 492 1022.5137 L 492 861.55469 C 460.02301 861.01261 428.38216 859.12747 397.27539 856.0332 C 393.36911 860.90234 388.18251 864.85352 383.95117 864.85352 C 377.01837 864.85352 378.44289 870.86782 389.10742 886.58984 C 394.44609 894.46019 398.9031 902.83471 399.00977 905.20703 C 400.60817 940.2929 401.85491 946.82525 408.30078 953.95117 C 412.28851 958.35922 417.89558 961.96289 420.76758 961.96289 C 427.24118 961.96289 427.49008 966.68463 421.33594 972.8418 C 412.55728 981.62393 401.01114 977.57072 390.19141 961.91797 C 384.38021 953.51152 372.30285 941.33321 363.35352 934.84766 C 341.10766 918.72596 337.31671 912.23017 333.20898 883.21289 C 331.10196 868.32895 328.28627 857.75935 322.75977 846.00391 C 300.64042 842.24846 278.87791 837.91363 257.66602 832.85547 z M 766.26172 832.85742 C 692.86082 850.36045 613.45384 860.16902 532 861.55469 L 532 1022.5078 A 511.96442 511.97119 0 0 0 689.66797 990.7207 C 700.81531 974.83845 711.66077 957.84979 721.81836 938.73828 C 738.8316 906.72783 753.67436 871.08832 766.26172 832.85742 z " />
  </g>
</svg>
