<?xml version="1.0" encoding="UTF-8" standalone="no"?>
<!-- Created with Inkscape (http://www.inkscape.org/) -->

<svg
   width="1024"
   height="1024"
   viewBox="0 0 1024 1024"
   version="1.1"
   id="svg5"
   xmlns="http://www.w3.org/2000/svg"
   xmlns:svg="http://www.w3.org/2000/svg">
  <defs
     id="defs2">
    <clipPath
       clipPathUnits="userSpaceOnUse"
       id="clipPath19332">
      <circle
         style="fill:#190d4d;fill-opacity:1;stroke-width:4.36364;stroke-linecap:round;stroke-linejoin:round"
         id="circle19334"
         cx="544"
         cy="384"
         r="144" />
    </clipPath>
  </defs>
  <g
     id="layer1">
    <ellipse
       style="fill:#a7b0ca;fill-opacity:1;stroke-width:15.5142;stroke-linecap:round;stroke-linejoin:round"
       id="ellipse7364"
       cx="511.96442"
       cy="511.97119"
       rx="511.96442"
       ry="511.97119" />
    <path
       id="path7366"
       style="color:#000000;fill:#fcfcfc;-inkscape-stroke:none"
       d="M 511.96533,2.2e-4 A 511.96442,511.97119 0 0 0 492.00049,1.42795 V 178.5549 c -81.47933,1.38125 -160.91087,11.19083 -234.33399,28.69922 12.58748,-38.23157 27.42986,-73.87187 44.44336,-105.88281 15.1739,-28.54972 31.66417,-53.09209 48.9375,-74.41211 a 511.96442,511.97119 0 0 0 -68.8457,28.63672 c -5.2724,8.73403 -10.4503,17.66263 -15.41406,27.00195 -21.90149,41.20769 -40.24314,87.3306 -54.9336,136.80469 -50.35429,14.77368 -97.27007,33.29742 -139.14062,55.45703 -6.43757,3.40703 -12.67315,6.92086 -18.82617,10.47461 a 511.96442,511.97119 0 0 0 -26.76172,65.27539 c 18.90945,-14.18239 40.34062,-27.71682 64.29883,-40.39648 32.65229,-17.28094 69.0497,-32.3331 108.13086,-45.04492 -17.1642,71.12536 -27.08514,147.94143 -28.98047,226.83203 H 1.42822 a 511.96442,511.97119 0 0 0 -1.42773,19.9707 511.96442,511.97119 0 0 0 1.43164,20.0293 h 168.93359 c 0.86429,84.52094 10.85996,166.98729 29.18946,242.9414 C 160.47403,762.2298 124.07661,747.17764 91.42432,729.8967 70.868,719.01746 52.22866,707.49434 35.38916,695.4885 a 511.96442,511.97119 0 0 0 31.17578,66.3418 c 2.07224,1.12847 4.04614,2.30729 6.14844,3.41992 41.87055,22.15961 88.78633,40.68335 139.14062,55.45703 14.69046,49.47409 33.03211,95.597 54.9336,136.80469 0.63218,1.18945 1.30604,2.29871 1.94336,3.47851 a 511.96442,511.97119 0 0 0 65.52734,29.73047 c -11.14733,-15.88216 -21.99095,-32.87109 -32.14844,-51.98242 -17.0135,-32.01094 -31.85588,-67.65124 -44.44336,-105.88281 73.42312,17.50839 152.85466,27.31797 234.33399,28.69921 v 160.959 a 511.96442,511.97119 0 0 0 19.96484,1.4277 511.96442,511.97119 0 0 0 20.03516,-1.4336 V 861.5549 c 81.45384,-1.38567 160.86082,-11.19423 234.26172,-28.69726 -12.58736,38.2309 -27.43012,73.87041 -44.44336,105.88086 -10.15759,19.11151 -21.00305,36.10017 -32.15039,51.98242 a 511.96442,511.97119 0 0 0 65.52929,-29.72852 c 0.63759,-1.1803 1.31091,-2.2905 1.94336,-3.48046 21.90149,-41.20769 40.24315,-87.3306 54.9336,-136.80469 50.35399,-14.77368 97.27009,-33.29742 139.14059,-55.45703 2.1026,-1.11278 4.076,-2.29325 6.1485,-3.42188 a 511.96442,511.97119 0 0 0 31.1777,-66.34179 c -16.8401,12.00641 -35.4799,23.53042 -56.0371,34.41015 -32.6523,17.28094 -69.05,32.3331 -108.13087,45.04492 18.32948,-75.95411 28.32517,-158.42046 29.18947,-242.9414 h 168.9336 a 511.96442,511.97119 0 0 0 1.4316,-20.0293 511.96442,511.97119 0 0 0 -0.4883,-19.9707 H 853.354 c -1.8953,-78.8906 -11.81628,-155.70667 -28.98047,-226.83203 39.08087,12.71182 75.47857,27.76398 108.13087,45.04492 24.4668,12.94884 46.2703,26.79487 65.4707,41.30664 a 511.96442,511.97119 0 0 0 -26.7715,-65.53906 c -6.5139,-3.78254 -13.1533,-7.50377 -19.9883,-11.1211 -41.8705,-22.15961 -88.7866,-40.68335 -139.14059,-55.45703 -14.69045,-49.47409 -33.03211,-95.597 -54.9336,-136.80469 -5.23393,-9.84765 -10.70666,-19.2362 -16.2832,-28.41015 A 511.96442,511.97119 0 0 0 671.88525,25.77951 c 17.63659,21.58451 34.47048,46.49792 49.9336,75.5918 17.01324,32.01045 31.856,67.64996 44.44336,105.88086 C 692.86131,189.74914 613.45433,179.94058 532.00049,178.5549 V 0.4924 A 511.96442,511.97119 0 0 0 511.96533,2.2e-4 Z M 492.00049,218.55881 V 492.00022 H 210.58252 c 2.13199,-84.31785 13.88866,-166.09047 33.75195,-240.00391 76.21545,-20.24216 160.70077,-31.88539 247.66602,-33.4375 z m 40,0.002 c 86.94043,1.55713 171.39934,13.19884 247.59375,33.43555 19.86329,73.91344 31.61996,155.68606 33.75195,240.00391 H 532.00049 Z M 210.36768,532.00022 H 492.00049 V 821.551 C 405.03524,819.99889 320.54992,808.35566 244.33447,788.1135 223.20973,709.50608 211.33751,621.983 210.36768,532.00022 Z m 321.63281,0 h 281.56054 c -0.96984,89.98278 -12.84205,177.50586 -33.96679,256.11328 -76.19441,20.23671 -160.65332,31.87842 -247.59375,33.43555 z" />
    <path
       id="path7374"
       style="fill:#ff8552;fill-opacity:1;stroke-width:15.5341;stroke-linecap:round;stroke-linejoin:round"
       d="m 501.99356,0.02268 c -3.90454,0.058 -7.00214,0.2309 -9.02454,0.5312 -20.30506,3.0144 -21.43893,10.2315 -4.87573,31.0825 11.0528,13.9141 11.50987,15.9148 9.22133,40.5505 -1.98506,21.3667 -1.2528,27.0753 4.17814,32.5088 9.66293,9.6668 17.17226,8.2125 41.26879,-7.9888 27.58079,-18.5437 69.14772,-55.3012 71.25385,-63.0145 0.88907,-3.2551 2.6768,-9.6374 3.97387,-14.1795 1.81387,-6.3521 0.31467,-8.8115 -6.49173,-10.6668 -13.07147,-3.5649 -64.10719,-7.7984 -95.63412,-8.6791 -5.2544,-0.1467 -9.96586,-0.2022 -13.86986,-0.144 z m -96.58239,37.4629 c -11.86879,0 -22.12853,5.5853 -22.12853,12.0476 0,1.5001 5.2416,4.5557 11.648,6.79 12.824,4.4723 14.3504,10.2827 5.70293,21.7205 -8.24959,10.912 -7.00586,21.3175 3.0336,25.3546 11.9616,4.8099 11.06027,5.0018 21.10453,-4.4382 11.0752,-10.409 11.62773,-26.8043 1.2208,-36.2262 -4.27093,-3.8669 -7.76533,-11.1269 -7.76533,-16.1368 0,-7.7154 -1.9632,-9.1115 -12.816,-9.1115 z m -62.16105,25.9387 c -2.232,0.2192 -4.55094,1.3706 -6.83253,3.4367 -3.45014,3.1236 -16.99894,9.8903 -30.10613,15.0292 -13.10773,5.1388 -29.36213,13.2822 -36.12746,18.1017 -8.80694,6.2736 -18.47893,8.9519 -34.0496,9.4302 -35.56852,1.0925 -58.26559,13.6088 -94.01918,51.8394 -33.62986,35.9597 -55.86932,67.2428 -80.44479,113.17 -16.62986,31.0785 -40.65652,96.509 -45.04532,122.66836 -2.50827,14.94965 -1.77174,16.64928 12.9296,29.9369 18.93546,17.11419 39.67732,28.05008 64.91412,34.22331 26.56053,6.49722 37.92639,12.90837 54.32745,30.64245 7.83894,8.47621 17.9392,16.53392 22.44693,17.90442 18.89067,5.74347 21.6592,12.11638 20.72533,47.78069 -0.8064,30.79168 0.13334,35.57664 11.54187,58.72064 8.00426,16.23648 22.76106,35.78981 41.50399,54.99552 21.34026,21.86714 29.60053,33.2457 31.01653,42.72794 1.06133,7.10821 3.60907,26.43312 5.65706,42.94037 3.13814,25.29755 6.14347,33.56875 19.14827,52.62853 23.11039,33.87157 28.47253,46.05802 32.37333,73.61317 4.10773,29.01728 7.89813,35.51296 30.14399,51.63466 8.94933,6.48555 21.02666,18.66272 26.83786,27.06917 10.81973,15.65275 22.3664,19.70688 31.14506,10.92475 6.15414,-6.15717 5.90454,-10.87925 -0.56906,-10.87925 -2.872,0 -8.47947,-3.60342 -12.4672,-8.01147 -6.44587,-7.12592 -7.6912,-13.65834 -9.2896,-48.74421 -0.10667,-2.37232 -4.56533,-10.74725 -9.904,-18.6176 -10.66453,-15.72202 -12.08906,-21.73568 -5.15626,-21.73568 7.55946,0 18.74613,-12.34688 18.74613,-20.68879 0,-4.30752 -2.88907,-11.03115 -6.42347,-14.93814 -6.06453,-6.704 -5.8752,-7.10106 3.40533,-7.10106 13.87253,0 20.31947,-9.71446 19.46613,-29.32992 -1.04693,-24.06757 7.37174,-44.47685 35.83946,-86.86704 29.47253,-43.88613 36.82826,-65.9089 29.8176,-89.31754 -5.45013,-18.19914 -16.18933,-25.33429 -44.49173,-29.58032 -20.75999,-3.11445 -26.73973,-7.7225 -37.54506,-28.91263 -17.64426,-34.60032 -63.72905,-62.27877 -103.68798,-62.27877 -11.51306,0 -22.91839,-3.29595 -34.07999,-9.83984 -15.57387,-9.13067 -19.05173,-9.64245 -48.42026,-7.19216 -31.16693,2.60037 -31.81119,2.46778 -43.46773,-8.61845 -16.11573,-15.32667 -23.97653,-31.54027 -21.43839,-44.23766 4.32266,-21.62122 -11.9264,-25.28293 -33.45066,-7.53354 -16.77547,13.83381 -28.5776,12.68394 -32.5552,-3.1712 -4.4736,-17.83083 5.74134,-28.7136 47.21439,-50.35253 21.34027,-11.13451 41.10773,-20.31136 43.93066,-20.39291 3.94134,-0.1136 4.53067,4.62992 2.5552,20.44598 -1.9376,15.51578 -1.2032,21.72538 2.95787,25.1801 7.9744,6.62128 15.7664,-1.01429 24.02399,-23.52613 4.9696,-13.54757 12.70667,-23.47061 28.77173,-36.90152 12.08533,-10.1039 28.96533,-26.1635 37.5072,-35.6951 45.75519,-51.0558 50.14132,-54.5328 68.85758,-54.5328 20.08533,0 27.21333,-6.0272 25.49547,-21.5612 -0.9632,-8.7051 1.92266,-12.768 16.30399,-22.9723 19.72,-13.992 27.0352,-25.6815 27.1184,-43.3121 0.0747,-15.6841 -13.17867,-32.5695 -25.56373,-32.5695 -11.80906,0 -40.40959,27.706 -51.93866,50.3146 -12.632,24.7713 -28.63626,25.5046 -29.03679,1.3276 -0.128,-7.8024 -2.57227,-11.0435 -9.59307,-12.7152 -5.18026,-1.2335 -10.056,-4.159 -10.8368,-6.5017 -2.76533,-8.3006 18.69493,-28.347 35.0736,-32.7591 36.22239,-9.7579 57.01172,-26.4148 57.01172,-45.6868 0,-8.1469 -1.37813,-9.0588 -10.8592,-7.1617 -5.97333,1.1951 -13.35679,0.6287 -16.41066,-1.2594 -0.8976,-0.5551 -1.8384,-0.9196 -2.7984,-1.1001 -0.72,-0.1355 -1.45493,-0.1637 -2.19893,-0.091 z m 440.65645,18.0714 c -0.77866,-0.043 -1.4288,0.059 -1.93386,0.3034 -19.2064,9.2842 -55.03679,32.6603 -58.48319,38.1532 -3.216,5.1259 -2.7808,8.1655 1.82773,12.7759 6.7232,6.7262 52.31892,21.6813 55.72266,18.2763 1.19093,-1.1912 2.1616,-7.93 2.1616,-14.976 0,-8.9964 2.40266,-14.097 8.06826,-17.1307 13.81227,-7.3951 20.3856,-1.7543 18.07147,15.5071 -2.1952,16.3745 0.936,19.6114 18.95093,19.6114 12.46186,0 16.73013,11.0801 7.00693,18.1928 -4.0736,2.9799 -10.90773,4.9899 -15.18933,4.4609 -4.2816,-0.5291 -12.5616,2.206 -18.39733,6.077 -8.80853,5.8426 -12.704,6.3055 -22.90933,2.7464 -21.616,-7.5386 -35.82133,-5.3678 -47.97279,7.321 -6.11254,6.3826 -17.06453,12.7162 -24.33547,14.0808 -16.11093,3.0237 -19.12746,9.386 -10.61653,22.3806 7.53227,11.5003 4.95627,17.9652 -7.1664,17.9652 -23.13013,0 -34.35252,26.4775 -18.10879,42.728 15.76053,15.7674 46.77706,7.8646 66.23305,-16.8803 19.39627,-24.6689 46.82079,-21.3356 54.76746,6.661 5.79946,20.431 8.36586,23.232 18.3824,20.0515 10.67199,-3.3886 10.86186,-20.7518 0.41066,-37.9028 -9.1696,-15.0455 -10.04746,-26.3105 -2.048,-26.3105 7.776,0 16.12213,14.2029 19.3984,33.0171 1.48853,8.5456 5.4512,18.5964 8.80426,22.3351 8.31204,9.2667 22.63464,8.5534 29.65924,-1.4795 7.6042,-10.8614 15.2096,-7.5535 27.5349,11.9793 9.3408,14.8028 11.0059,15.7195 28.5061,15.7195 10.2235,0 20.688,2.0946 23.2507,4.6583 11.8202,11.8251 -0.4373,34.18536 -18.7387,34.18536 -5.7973,0 -21.6832,-3.59968 -35.3082,-8.00389 -22.1008,-7.14406 -27.2064,-7.50491 -47.3355,-3.30774 -20.65973,4.30763 -23.44373,4.05675 -33.0032,-3.01194 -5.74186,-4.24589 -13.47946,-14.05329 -17.19146,-21.78889 -14.144,-29.4728 -37.89866,-28.9786 -101.31412,2.1015 -67.34719,33.00712 -77.07092,46.13384 -79.54238,107.38135 l -1.62294,40.35334 18.8976,18.39002 c 10.3968,10.11397 24.33973,24.72859 30.97866,32.4784 14.8656,17.35408 24.12533,17.91386 62.90399,3.79328 26.97333,-9.8216 29.02933,-10.03488 41.25386,-4.20293 12.10986,5.77728 12.96053,7.51813 14.56,29.64101 1.3616,18.83349 4.0384,26.41525 13.45333,38.16837 24.97333,31.17685 25.79093,39.13461 9.12266,88.46778 -13.27306,39.28394 -15.33439,74.93034 -5.67253,98.0649 10.02293,23.99866 19.92266,25.91386 51.48373,9.93856 33.6192,-17.01691 70.1307,-59.25296 85.6699,-99.10426 2.3141,-5.93531 10.5226,-13.80363 18.8218,-18.04112 26.28,-13.41835 28.6235,-18.40192 29.4768,-62.6201 0.7499,-38.86885 0.9877,-39.80757 12.4139,-49.38901 6.4069,-5.37195 15.5797,-13.07552 20.3845,-17.11547 7.1531,-6.01435 8.736,-11.30597 8.736,-29.18581 0,-19.59653 -1.2315,-22.88416 -11.9819,-32.06869 -37.6853,-32.19653 -46.3018,-41.27931 -53.2885,-56.14874 -11.4827,-24.43894 -12.3744,-39.26683 -2.4496,-40.68715 12.7435,-1.82368 28.1504,13.45461 42.6869,42.33344 7.4166,14.73306 15.2043,26.78842 17.3131,26.78842 4.9691,0 4.9861,0.16107 -3.7083,-40.78581 C 990.9876,307.11628 946.2106,223.79498 874.5599,151.77068 836.91456,113.92948 795.58604,82.10638 783.90764,81.49568 Z M 633.065,84.62888 c -0.59093,0.016 -1.2032,0.072 -1.84267,0.1669 -10.21226,1.5195 -17.07519,11.5423 -13.77919,20.1349 3.43573,8.9578 17.11093,7.9055 22.25759,-1.7145 5.50827,-10.2968 2.2272,-18.8174 -6.63573,-18.5873 z m 59.52212,46.7413 c -0.536,-0.016 -1.08533,0.032 -1.64533,0.144 -5.6992,1.1481 -6.53707,4.9817 -5.392,24.558 0.74613,12.7564 3.14667,25.3773 5.3312,28.0478 5.78293,7.0688 21.18133,5.9405 24.1376,-1.7677 1.39733,-3.6421 0,-11.9449 -3.0864,-18.4507 -3.09707,-6.5059 -7.568,-16.7554 -9.93387,-22.7827 -2.49813,-6.3637 -5.65813,-9.6351 -9.4112,-9.7488 z m -23.00053,27.9492 c -4.00053,-0.048 -10.63199,8.0311 -10.63199,14.5967 0,10.0907 7.30933,9.1537 11.31466,-1.4491 1.816,-4.8069 2.4784,-10.1367 1.47093,-11.8427 -0.368,-0.6201 -0.83786,-1.0045 -1.38773,-1.1836 -0.24,-0.078 -0.50133,-0.1178 -0.76587,-0.121 z m 333.89751,484.11105 c -2.9114,-0.12213 -12.0042,9.58971 -16.4938,19.55078 -3.767,8.35648 -10.0998,18.13669 -14.0752,21.73578 -12.9563,11.73061 -6.2059,34.46032 7.1136,23.95099 2.5488,-2.0112 8.4837,-15.32891 13.1872,-29.58789 4.704,-14.25904 9.3664,-28.12982 10.3589,-30.82448 1.1264,-3.05558 1.0352,-4.516 0.176,-4.77963 -0.08,-0.0267 -0.1707,-0.0427 -0.2667,-0.048 z" />
    <path
       id="path7376"
       style="fill:#000000;fill-opacity:0.193529;stroke-width:15.5142;stroke-linecap:round;stroke-linejoin:round"
       d="M 955.2724,255.87068 C 1093.6185,495.35343 1016.7604,801.4212 781.68631,947.12962 546.61222,1092.838 238.312,1025.507 85.38563,795.06152 682.61912,1023.9424 1023.9289,511.97114 955.2724,255.87068 Z" />
  </g>
</svg>
